{
classes = (
{
code = "zero one two three four five six seven eight nine A B C D E F G H I J K L M N O P Q R S T U V W X Y Z uni0410 uni0411 uni0412 uni0413 uni0414 uni0415 uni0416 uni0417 uni0418 uni0419 uni041A uni041B uni041C uni041D uni041E uni041F uni0420 uni0421 uni0422 uni0423 uni0424 uni0425 uni0426 uni0427 uni0428 uni0429 uni042A uni042B uni042C uni042D uni042E uni042F uni0401 K_alt W_alt Acircumflex Adieresis Ccedilla Ecircumflex Icircumflex Odieresis Udieresis Abreve Idotaccent Scedilla uni0162 uni0218 uni021A uni04C1";
name = calt1;
},
{
code = "o a c d e g q s u y t acircumflex adieresis ccedilla ecircumflex odieresis udieresis u_alt y_alt s_alt c_alt t_alt t2.alt g_alt a_alt abreve scedilla uni0163 uni0219 uni021B uni0430 uni0431 uni0435 uni0437 uni043E uni0441 uni0444 uni044D uni0451 space zero one three five six seven eight nine f v endash emdash uni00AD hyphen.uc uni00AD.uc endash.uc emdash.uc minus hyphen t0163.alt t021b.alt a2_alt a00E2.alt a00E4.alt a0103.alt";
name = calt2;
},
{
code = "uniE000 uniE001 uniE002 uniE003 uniE004 uniE005 uniE006 uniE007 uniE008 uniE009 uniE010 uniE011 uniE012 uniE013 uniE014 uniE015 uniE016 uniE017 uniE018 uniE019 uniE020 uniE021 uniE022";
name = tnum1;
},
{
code = "zero one two three four five six seven eight nine period comma colon semicolon quotesingle quotedbl quoteright quotedblright quoteleft quotedblleft quotesinglbase quotedblbase colon.uc";
name = pnum1;
}
);
copyright = "Copyright (c) 2021-2022, Dmitri Voloshin, Andrey Kudryavtsev";
designer = "Andrey Kudryavtsev";
designerURL = "https://onest.md";
familyName = Onest;
customParameters = (
{
name = glyphOrder;
value = (
.notdef,
NULL,
uni000D,
space,
E,
F,
H,
I,
L,
M,
N,
P,
R,
U,
V,
W,
X,
Y,
Z,
b,
d,
h,
i,
l,
m,
n,
p,
q,
u,
v,
w,
x,
z,
period,
comma,
A,
breve,
circumflex,
uni0326,
exclam,
quotedbl,
quotesingle,
numbersign,
percent,
asterisk,
plus,
slash,
colon,
semicolon,
less,
equal,
greater,
at,
bracketleft,
bracketright,
backslash,
asciicircum,

glyphs = (
{
color = (166, 255, 153, 255);
glyphname = E;
layers = (
{
layerId = "9D659DC9-364F-48BE-86F1-3EC0559472C9";
paths = (
{
closed = 1;
nodes = (
"82 707 LINE",
"573 707 LINE",
"573 603 LINE",
"198 603 LINE",
"198 402 LINE",
"530 402 LINE",
"530 297 LINE",
"198 297 LINE",
"198 103 LINE",
"573 103 LINE",
"573 0 LINE",
"82 0 LINE"
);
}
);
width = 616;
}
);
leftKerningGroup = _kern1;
unicode = 0045;
},
{
color = (166, 255, 153, 255);
glyphname = F;
layers = (
{
layerId = "9D659DC9-364F-48BE-86F1-3EC0559472C9";
paths = (
{
closed = 1;
nodes = (
"82 0 LINE",
"82 707 LINE",
"567 707 LINE",
"567 603 LINE",
"198 603 LINE",
"198 379 LINE",
"514 379 LINE",
"514 276 LINE",
"198 276 LINE",
"198 0 LINE"
);
}
);
width = 599;
}
);
leftKerningGroup = _kern1;
unicode = 0046;
},
{
color = (166, 255, 153, 255);
glyphname = H;
layers = (
{
layerId = "9D659DC9-364F-48BE-86F1-3EC0559472C9";
paths = (
{
closed = 1;
nodes = (
"544 400 LINE",
"544 707 LINE",
"660 707 LINE",
"660 0 LINE",
"544 0 LINE",
"544 296 LINE",
"198 296 LINE",
"198 0 LINE",
"82 0 LINE",
"82 707 LINE",
"198 707 LINE",
"198 400 LINE"
);
}
);
width = 742;
}
);
leftKerningGroup = _kern1;
rightKerningGroup = _kern2;
unicode = 0048;
},
{
color = (166, 255, 153, 255);
glyphname = I;
layers = (
{
layerId = "9D659DC9-364F-48BE-86F1-3EC0559472C9";
paths = (
{
closed = 1;
nodes = (
"198 0 LINE",
"82 0 LINE",
"82 707 LINE",
"198 707 LINE"
);
}
);
width = 280;
}
);
leftKerningGroup = _kern1;
rightKerningGroup = _kern2;
unicode = 0049;
},
{
color = (166, 255, 153, 255);
glyphname = L;
layers = (
{
layerId = "9D659DC9-364F-48BE-86F1-3EC0559472C9";
paths = (
{
closed = 1;
nodes = (
"82 707 LINE",
"197 707 LINE",
"197 103 LINE",
"565 103 LINE",
"565 0 LINE",
"82 0 LINE"
);
}
);
width = 600;
}
);
unicode = 004C;
},
{
color = (166, 255, 153, 255);
glyphname = M;
layers = (
{
layerId = "9D659DC9-364F-48BE-86F1-3EC0559472C9";
paths = (
{
closed = 1;
nodes = (
"82 0 LINE",
"82 707 LINE",
"228 707 LINE",
"439 345 LINE",
"648 707 LINE",
"790 707 LINE",
"790 0 LINE",
"675 0 LINE",
"675 551 LINE",
"462 184 LINE",
"410 184 LINE",
"197 551 LINE",
"197 0 LINE"
);
}
);
width = 872;
}
);
leftKerningGroup = _kern1;
rightKerningGroup = _kern2;
unicode = 004D;
},
{
color = (166, 255, 153, 255);
glyphname = N;
layers = (
{
layerId = "9D659DC9-364F-48BE-86F1-3EC0559472C9";
paths = (
{
closed = 1;
nodes = (
"82 0 LINE",
"82 707 LINE",
"207 707 LINE",
"559 176 LINE",
"559 707 LINE",
"674 707 LINE",
"674 0 LINE",
"550 0 LINE",
"196 529 LINE",
"196 0 LINE"
);
}
);
width = 756;
}
);
leftKerningGroup = _kern1;
rightKerningGroup = _kern2;
unicode = 004E;
},
{
color = (166, 255, 153, 255);
glyphname = P;
layers = (
{
layerId = "9D659DC9-364F-48BE-86F1-3EC0559472C9";
paths = (
{
closed = 1;
nodes = (
"82 707 LINE",
"341 707 LINE",
"402 707 OFFCURVE",
"499 680 OFFCURVE",
"568 622 OFFCURVE",
"605 531 OFFCURVE",
"605 467 QCURVE",
"605 408 OFFCURVE",
"566 316 OFFCURVE",
"495 254 OFFCURVE",
"397 222 OFFCURVE",
"337 222 QCURVE",
"198 222 LINE",
"198 0 LINE",
"82 0 LINE"
);
},
{
closed = 1;
nodes = (
"331 324 LINE",
"398 324 OFFCURVE",
"487 391 OFFCURVE",
"489 462 QCURVE",
"489 537 OFFCURVE",
"412 603 OFFCURVE",
"338 603 QCURVE",
"198 603 LINE",
"198 324 LINE"
);
}
);
width = 649;
}
);
leftKerningGroup = _kern1;
unicode = 0050;
},
{
color = (166, 255, 153, 255);
glyphname = R;
layers = (
{
layerId = "9D659DC9-364F-48BE-86F1-3EC0559472C9";
paths = (
{
closed = 1;
nodes = (
"198 259 LINE",
"198 0 LINE",
"82 0 LINE",
"82 707 LINE",
"357 707 LINE",
"412 707 OFFCURVE",
"508 685 OFFCURVE",
"579 633 OFFCURVE",
"620 547 OFFCURVE",
"620 484 QCURVE",
"620 441 OFFCURVE",
"595 370 OFFCURVE",
"553 317 OFFCURVE",
"497 282 OFFCURVE",
"465 274 QCURVE",
"618 0 LINE",
"489 0 LINE",
"454 65 OFFCURVE",
"383 194 OFFCURVE",
"347 259 QCURVE"
);
},
{
closed = 1;
nodes = (
"341 360 LINE",
"375 360 OFFCURVE",
"435 372 OFFCURVE",
"479 400 OFFCURVE",
"504 449 OFFCURVE",
"504 487 QCURVE",
"504 521 OFFCURVE",
"483 565 OFFCURVE",
"443 592 OFFCURVE",
"387 603 OFFCURVE",
"353 603 QCURVE",
"198 603 LINE",
"198 360 LINE"
);
}
);
width = 668;
}
);
leftKerningGroup = _kern1;
unicode = 0052;
},
{
color = (166, 255, 153, 255);
glyphname = U;
layers = (
{
layerId = "9D659DC9-364F-48BE-86F1-3EC0559472C9";
paths = (
{
closed = 1;
nodes = (
"664 707 LINE",
"664 316 LINE",
"664 245 OFFCURVE",
"631 126 OFFCURVE",
"561 40 OFFCURVE",
"450 -8 OFFCURVE",
"371 -8 QCURVE",
"292 -8 OFFCURVE",
"181 40 OFFCURVE",
"110 125 OFFCURVE",
"77 244 OFFCURVE",
"77 316 QCURVE",
"77 707 LINE",
"193 707 LINE",
"193 312 LINE",
"193 268 OFFCURVE",
"211 190 OFFCURVE",
"253 131 OFFCURVE",
"321 96 OFFCURVE",
"372 96 QCURVE",
"422 96 OFFCURVE",
"490 131 OFFCURVE",
"531 191 OFFCURVE",
"548 269 OFFCURVE",
"548 312 QCURVE",
"548 707 LINE"
);
}
);
width = 741;
}
);
unicode = 0055;
},
{
color = (166, 255, 153, 255);
glyphname = V;
layers = (
{
layerId = "9D659DC9-364F-48BE-86F1-3EC0559472C9";
paths = (
{
closed = 1;
nodes = (
"137 707 LINE",
"348 124 LINE",
"558 707 LINE",
"683 707 LINE",
"417 0 LINE",
"276 0 LINE",
"9 707 LINE"
);
}
);
width = 692;
}
);
unicode = 0056;
},
{
color = (166, 255, 153, 255);
glyphname = W;
layers = (
{
layerId = "9D659DC9-364F-48BE-86F1-3EC0559472C9";
paths = (
{
closed = 1;
nodes = (
"573 707 LINE",
"700 115 LINE",
"834 707 LINE",
"959 707 LINE",
"781 0 LINE",
"617 0 LINE",
"488 590 LINE",
"359 0 LINE",
"193 0 LINE",
"9 707 LINE",
"141 707 LINE",
"278 115 LINE",
"407 707 LINE"
);
}
);
width = 968;
}
);
leftKerningGroup = _kern19;
rightKerningGroup = _kern19;
unicode = 0057;
},
{
color = (166, 255, 153, 255);
glyphname = X;
layers = (
{
layerId = "9D659DC9-364F-48BE-86F1-3EC0559472C9";
paths = (
{
closed = 1;
nodes = (
"477 707 LINE",
"613 707 LINE",
"386 355 LINE",
"620 0 LINE",
"483 0 LINE",
"314 263 LINE",
"141 0 LINE",
"9 0 LINE",
"244 354 LINE",
"16 707 LINE",
"154 707 LINE",
"316 444 LINE"
);
}
);
width = 629;
}
);
unicode = 0058;
},
{
color = (166, 255, 153, 255);
glyphname = Y;
layers = (
{
layerId = "9D659DC9-364F-48BE-86F1-3EC0559472C9";
paths = (
{
closed = 1;
nodes = (
"507 707 LINE",
"638 707 LINE",
"383 265 LINE",
"383 0 LINE",
"267 0 LINE",
"267 264 LINE",
"9 707 LINE",
"143 707 LINE",
"326 377 LINE"
);
}
);
width = 647;
}
);
leftKerningGroup = _kern31;
rightKerningGroup = _kern31;
unicode = 0059;
},
{
color = (166, 255, 153, 255);
glyphname = Z;
layers = (
{
layerId = "9D659DC9-364F-48BE-86F1-3EC0559472C9";
paths = (
{
closed = 1;
nodes = (
"50 603 LINE",
"50 707 LINE",
"575 707 LINE",
"575 616 LINE",
"185 103 LINE",
"568 103 LINE",
"568 0 LINE",
"39 0 LINE",
"39 92 LINE",
"427 603 LINE"
);
}
);
width = 614;
}
);
unicode = 005A;
},
{
color = (166, 255, 153, 255);
glyphname = b;
layers = (
{
layerId = "9D659DC9-364F-48BE-86F1-3EC0559472C9";
paths = (
{
closed = 1;
nodes = (
"62 0 LINE",
"62 707 LINE",
"176 707 LINE",
"176 453 LINE",
"205 493 OFFCURVE",
"300 536 OFFCURVE",
"349 536 QCURVE",
"404 536 OFFCURVE",
"490 497 OFFCURVE",
"550 426 OFFCURVE",
"581 327 OFFCURVE",
"581 265 QCURVE",
"581 208 OFFCURVE",
"553 109 OFFCURVE",
"495 35 OFFCURVE",
"408 -7 OFFCURVE",
"349 -7 QCURVE",
"236 -7 OFFCURVE",
"176 66 QCURVE",
"175 49 OFFCURVE",
"174 17 OFFCURVE",
"174 0 QCURVE"
);
},
{
closed = 1;
nodes = (
"362 92 OFFCURVE",
"416 119 OFFCURVE",
"451 165 OFFCURVE",
"468 227 OFFCURVE",
"468 263 QCURVE",
"468 299 OFFCURVE",
"451 362 OFFCURVE",
"416 408 OFFCURVE",
"361 434 OFFCURVE",
"323 434 QCURVE",
"286 434 OFFCURVE",
"229 404 OFFCURVE",
"193 355 OFFCURVE",
"175 293 OFFCURVE",
"175 262 QCURVE",
"175 228 OFFCURVE",
"193 167 OFFCURVE",
"229 121 OFFCURVE",
"285 92 OFFCURVE",
"325 92 QCURVE"
);
}
);
width = 623;
}
);
rightKerningGroup = _kern6;
unicode = 0062;
},
{
color = (166, 255, 153, 255);
glyphname = d;
layers = (
{
layerId = "9D659DC9-364F-48BE-86F1-3EC0559472C9";
paths = (
{
closed = 1;
nodes = (
"561 0 LINE",
"454 0 LINE",
"448 73 LINE",
"419 31 OFFCURVE",
"331 -5 OFFCURVE",
"276 -7 QCURVE",
"215 -6 OFFCURVE",
"127 37 OFFCURVE",
"69 110 OFFCURVE",
"42 206 OFFCURVE",
"42 260 QCURVE",
"42 319 OFFCURVE",
"73 419 OFFCURVE",
"135 493 OFFCURVE",
"225 536 OFFCURVE",
"285 536 QCURVE",
"328 536 OFFCURVE",
"416 508 OFFCURVE",
"447 470 QCURVE",
"447 707 LINE",
"561 707 LINE"
);
},
{
closed = 1;
nodes = (
"260 433 OFFCURVE",
"206 407 OFFCURVE",
"171 361 OFFCURVE",
"155 298 OFFCURVE",
"155 262 QCURVE",
"155 226 OFFCURVE",
"171 164 OFFCURVE",
"206 118 OFFCURVE",
"261 91 OFFCURVE",
"300 91 QCURVE",
"337 91 OFFCURVE",
"392 120 OFFCURVE",
"429 168 OFFCURVE",
"447 230 OFFCURVE",
"447 263 QCURVE",
"447 298 OFFCURVE",
"430 360 OFFCURVE",
"394 405 OFFCURVE",
"338 432 OFFCURVE",
"298 433 QCURVE"
);
}
);
width = 623;
}
);
leftKerningGroup = _kern5;
unicode = 0064;
},
{
color = (166, 255, 153, 255);
glyphname = h;
layers = (
{
layerId = "9D659DC9-364F-48BE-86F1-3EC0559472C9";
paths = (
{
closed = 1;
nodes = (
"62 0 LINE",
"62 707 LINE",
"176 707 LINE",
"176 452 LINE",
"204 494 OFFCURVE",
"293 536 OFFCURVE",
"342 536 QCURVE",
"398 536 OFFCURVE",
"475 498 OFFCURVE",
"524 433 OFFCURVE",
"545 343 OFFCURVE",
"545 289 QCURVE",
"545 0 LINE",
"431 0 LINE",
"431 271 LINE",
"431 305 OFFCURVE",
"421 364 OFFCURVE",
"395 409 OFFCURVE",
"347 434 OFFCURVE",
"310 434 QCURVE",
"278 434 OFFCURVE",
"222 402 OFFCURVE",
"186 348 OFFCURVE",
"176 287 OFFCURVE",
"176 258 QCURVE",
"176 0 LINE"
);
}
);
width = 604;
}
);
unicode = 0068;
},
{
color = (166, 255, 153, 255);
glyphname = i;
layers = (
{
layerId = "9D659DC9-364F-48BE-86F1-3EC0559472C9";
paths = (
{
closed = 1;
nodes = (
"158 746 OFFCURVE",
"199 708 OFFCURVE",
"199 675 QCURVE",
"199 643 OFFCURVE",
"158 605 OFFCURVE",
"127 605 QCURVE",
"94 605 OFFCURVE",
"54 643 OFFCURVE",
"54 675 QCURVE",
"54 708 OFFCURVE",
"94 746 OFFCURVE",
"127 746 QCURVE"
);
},
{
closed = 1;
nodes = (
"69 0 LINE",
"69 527 LINE",
"183 527 LINE",
"183 0 LINE"
);
}
);
width = 253;
}
);
unicode = 0069;
},
{
color = (166, 255, 153, 255);
glyphname = l;
layers = (
{
layerId = "9D659DC9-364F-48BE-86F1-3EC0559472C9";
paths = (
{
closed = 1;
nodes = (
"62 0 LINE",
"62 707 LINE",
"176 707 LINE",
"176 0 LINE"
);
}
);
width = 238;
}
);
unicode = 006C;
},
{
color = (166, 255, 153, 255);
glyphname = m;
layers = (
{
layerId = "9D659DC9-364F-48BE-86F1-3EC0559472C9";
paths = (
{
closed = 1;
nodes = (
"171 527 LINE",
"176 462 LINE",
"231 536 OFFCURVE",
"320 536 QCURVE",
"376 536 OFFCURVE",
"444 490 OFFCURVE",
"463 451 QCURVE",
"494 493 OFFCURVE",
"573 536 OFFCURVE",
"626 536 QCURVE",
"671 536 OFFCURVE",
"736 506 OFFCURVE",
"775 452 OFFCURVE",
"793 381 OFFCURVE",
"793 341 QCURVE",
"793 0 LINE",
"679 0 LINE",
"679 299 LINE",
"679 323 OFFCURVE",
"673 371 OFFCURVE",
"654 410 OFFCURVE",
"618 434 OFFCURVE",
"588 434 QCURVE",
"556 434 OFFCURVE",
"515 404 OFFCURVE",
"492 360 OFFCURVE",
"484 305 OFFCURVE",
"484 278 QCURVE",
"484 0 LINE",
"371 0 LINE",
"371 301 LINE",
"371 324 OFFCURVE",
"366 371 OFFCURVE",
"348 409 OFFCURVE",
"313 434 OFFCURVE",
"282 434 QCURVE",
"252 434 OFFCURVE",
"207 403 OFFCURVE",
"183 356 OFFCURVE",
"175 301 OFFCURVE",
"175 278 QCURVE",
"175 0 LINE",
"62 0 LINE",
"62 527 LINE"
);
}
);
width = 850;
}
);
unicode = 006D;
},
{
color = (166, 255, 153, 255);
glyphname = n;
layers = (
{
layerId = "9D659DC9-364F-48BE-86F1-3EC0559472C9";
paths = (
{
closed = 1;
nodes = (
"62 0 LINE",
"62 527 LINE",
"171 527 LINE",
"177 454 LINE",
"206 495 OFFCURVE",
"293 536 OFFCURVE",
"342 536 QCURVE",
"398 536 OFFCURVE",
"475 498 OFFCURVE",
"524 432 OFFCURVE",
"545 342 OFFCURVE",
"545 289 QCURVE",
"545 0 LINE",
"431 0 LINE",
"431 272 LINE",
"431 306 OFFCURVE",
"422 364 OFFCURVE",
"396 409 OFFCURVE",
"349 434 OFFCURVE",
"312 434 QCURVE",
"277 434 OFFCURVE",
"220 401 OFFCURVE",
"189 347 OFFCURVE",
"176 281 OFFCURVE",
"176 251 QCURVE",
"176 0 LINE"
);
}
);
width = 604;
}
);
unicode = 006E;
},
{
color = (166, 255, 153, 255);
glyphname = p;
layers = (
{
layerId = "9D659DC9-364F-48BE-86F1-3EC0559472C9";
paths = (
{
closed = 1;
nodes = (
"62 -205 LINE",
"62 527 LINE",
"170 527 LINE",
"176 452 LINE",
"207 494 OFFCURVE",
"297 536 OFFCURVE",
"349 536 QCURVE",
"403 536 OFFCURVE",
"489 497 OFFCURVE",
"550 427 OFFCURVE",
"581 328 OFFCURVE",
"581 265 QCURVE",
"581 206 OFFCURVE",
"551 106 OFFCURVE",
"492 33 OFFCURVE",
"405 -7 OFFCURVE",
"347 -7 QCURVE",
"297 -7 OFFCURVE",
"208 24 OFFCURVE",
"176 57 QCURVE",
"176 -205 LINE"
);
},
{
closed = 1;
nodes = (
"362 92 OFFCURVE",
"416 119 OFFCURVE",
"451 165 OFFCURVE",
"468 227 OFFCURVE",
"468 263 QCURVE",
"468 299 OFFCURVE",
"451 362 OFFCURVE",
"416 408 OFFCURVE",
"361 434 OFFCURVE",
"323 434 QCURVE",
"286 434 OFFCURVE",
"232 406 OFFCURVE",
"194 360 OFFCURVE",
"175 297 OFFCURVE",
"175 264 QCURVE",
"175 191 OFFCURVE",
"251 93 OFFCURVE",
"325 92 QCURVE"
);
}
);
width = 623;
}
);
rightKerningGroup = _kern6;
unicode = 0070;
},
{
color = (166, 255, 153, 255);
glyphname = q;
layers = (
{
layerId = "9D659DC9-364F-48BE-86F1-3EC0559472C9";
paths = (
{
closed = 1;
nodes = (
"561 -205 LINE",
"447 -205 LINE",
"447 58 LINE",
"418 24 OFFCURVE",
"332 -8 OFFCURVE",
"283 -8 QCURVE",
"217 -8 OFFCURVE",
"129 35 OFFCURVE",
"70 109 OFFCURVE",
"42 206 OFFCURVE",
"42 260 QCURVE",
"42 319 OFFCURVE",
"72 418 OFFCURVE",
"134 492 OFFCURVE",
"226 535 OFFCURVE",
"292 536 QCURVE",
"338 535 OFFCURVE",
"422 504 OFFCURVE",
"450 471 QCURVE",
"459 527 LINE",
"561 527 LINE"
);
},
{
closed = 1;
nodes = (
"261 434 OFFCURVE",
"206 407 OFFCURVE",
"171 361 OFFCURVE",
"155 298 OFFCURVE",
"155 262 QCURVE",
"155 226 OFFCURVE",
"172 164 OFFCURVE",
"207 118 OFFCURVE",
"262 91 OFFCURVE",
"301 91 QCURVE",
"338 91 OFFCURVE",
"393 120 OFFCURVE",
"429 167 OFFCURVE",
"447 229 OFFCURVE",
"447 262 QCURVE",
"447 296 OFFCURVE",
"431 358 OFFCURVE",
"395 405 OFFCURVE",
"339 433 OFFCURVE",
"299 434 QCURVE"
);
}
);
width = 623;
}
);
leftKerningGroup = _kern5;
unicode = 0071;
},
{
color = (166, 255, 153, 255);
glyphname = u;
layers = (
{
layerId = "9D659DC9-364F-48BE-86F1-3EC0559472C9";
paths = (
{
closed = 1;
nodes = (
"359 92 OFFCURVE",
"415 166 OFFCURVE",
"415 234 QCURVE",
"415 527 LINE",
"528 527 LINE",
"528 230 LINE",
"528 164 OFFCURVE",
"492 73 OFFCURVE",
"430 18 OFFCURVE",
"345 -7 OFFCURVE",
"293 -7 QCURVE",
"183 -7 OFFCURVE",
"60 107 OFFCURVE",
"60 230 QCURVE",
"60 527 LINE",
"173 527 LINE",
"173 234 LINE",
"173 166 OFFCURVE",
"232 93 OFFCURVE",
"293 92 QCURVE"
);
}
);
width = 588;
}
);
unicode = 0075;
},
{
color = (166, 255, 153, 255);
glyphname = v;
layers = (
{
layerId = "9D659DC9-364F-48BE-86F1-3EC0559472C9";
paths = (
{
closed = 1;
nodes = (
"2 527 LINE",
"128 527 LINE",
"274 109 LINE",
"419 527 LINE",
"545 527 LINE",
"347 0 LINE",
"200 0 LINE"
);
}
);
width = 547;
}
);
unicode = 0076;
},
{
color = (166, 255, 153, 255);
glyphname = w;
layers = (
{
layerId = "9D659DC9-364F-48BE-86F1-3EC0559472C9";
paths = (
{
closed = 1;
nodes = (
"7 527 LINE",
"133 527 LINE",
"243 121 LINE",
"362 527 LINE",
"490 527 LINE",
"609 121 LINE",
"719 527 LINE",
"841 527 LINE",
"677 0 LINE",
"543 0 LINE",
"424 388 LINE",
"308 0 LINE",
"170 0 LINE"
);
}
);
width = 848;
}
);
leftKerningGroup = _kern20;
rightKerningGroup = _kern20;
unicode = 0077;
},
{
color = (166, 255, 153, 255);
glyphname = x;
layers = (
{
layerId = "9D659DC9-364F-48BE-86F1-3EC0559472C9";
paths = (
{
closed = 1;
nodes = (
"387 0 LINE",
"259 188 LINE",
"135 0 LINE",
"9 0 LINE",
"190 268 LINE",
"18 527 LINE",
"150 527 LINE",
"265 341 LINE",
"377 527 LINE",
"507 527 LINE",
"333 265 LINE",
"518 0 LINE"
);
}
);
width = 527;
}
);
unicode = 0078;
},
{
color = (166, 255, 153, 255);
glyphname = z;
layers = (
{
layerId = "9D659DC9-364F-48BE-86F1-3EC0559472C9";
paths = (
{
closed = 1;
nodes = (
"474 440 LINE",
"186 98 LINE",
"474 98 LINE",
"474 0 LINE",
"42 0 LINE",
"42 87 LINE",
"328 428 LINE",
"42 428 LINE",
"42 527 LINE",
"474 527 LINE"
);
}
);
width = 517;
}
);
unicode = 007A;
},
{
color = (166, 255, 153, 255);
glyphname = period;
layers = (
{
layerId = "9D659DC9-364F-48BE-86F1-3EC0559472C9";
paths = (
{
closed = 1;
nodes = (
"167 139 OFFCURVE",
"208 99 OFFCURVE",
"208 65 QCURVE",
"208 30 OFFCURVE",
"167 -8 OFFCURVE",
"135 -8 QCURVE",
"103 -8 OFFCURVE",
"62 30 OFFCURVE",
"62 65 QCURVE",
"62 99 OFFCURVE",
"103 139 OFFCURVE",
"135 139 QCURVE"
);
}
);
width = 270;
}
);
leftKerningGroup = _kern14;
rightKerningGroup = _kern14;
unicode = 002E;
},
{
color = (166, 255, 153, 255);
glyphname = comma;
layers = (
{
layerId = "9D659DC9-364F-48BE-86F1-3EC0559472C9";
paths = (
{
closed = 1;
nodes = (
"104 -6 OFFCURVE",
"65 31 OFFCURVE",
"65 63 QCURVE",
"65 98 OFFCURVE",
"109 135 OFFCURVE",
"136 135 QCURVE",
"139 135 OFFCURVE",
"142 135 QCURVE",
"187 132 OFFCURVE",
"221 74 OFFCURVE",
"221 42 QCURVE",
"221 37 OFFCURVE",
"221 32 QCURVE",
"221 3 OFFCURVE",
"199 -54 OFFCURVE",
"163 -104 OFFCURVE",
"117 -141 OFFCURVE",
"92 -149 QCURVE",
"62 -108 LINE",
"86 -91 OFFCURVE",
"126 -39 OFFCURVE",
"134 -8 QCURVE"
);
}
);
width = 283;
}
);
leftKerningGroup = _kern14;
rightKerningGroup = _kern14;
unicode = 002C;
},
{
color = (166, 255, 153, 255);
glyphname = A;
layers = (
{
layerId = "9D659DC9-364F-48BE-86F1-3EC0559472C9";
paths = (
{
closed = 1;
nodes = (
"557 0 LINE",
"505 143 LINE",
"184 143 LINE",
"131 0 LINE",
"5 0 LINE",
"273 707 LINE",
"417 707 LINE",
"684 0 LINE"
);
},
{
closed = 1;
nodes = (
"469 247 LINE",
"345 593 LINE",
"220 247 LINE"
);
}
);
width = 689;
}
);
leftKerningGroup = _kern30;
rightKerningGroup = _kern30;
unicode = 0041;
},
{
color = (248, 153, 255, 255);
glyphname = breve;
layers = (
{
layerId = "9D659DC9-364F-48BE-86F1-3EC0559472C9";
paths = (
{
closed = 1;
nodes = (
"208 743 LINE",
"210 705 OFFCURVE",
"258 675 OFFCURVE",
"293 675 QCURVE",
"328 675 OFFCURVE",
"376 705 OFFCURVE",
"378 743 QCURVE",
"472 743 LINE",
"471 703 OFFCURVE",
"442 647 OFFCURVE",
"393 611 OFFCURVE",
"329 595 OFFCURVE",
"292 595 QCURVE",
"255 595 OFFCURVE",
"191 611 OFFCURVE",
"143 646 OFFCURVE",
"115 702 OFFCURVE",
"114 743 QCURVE"
);
}
);
width = 586;
}
);
unicode = 02D8;
},
{
color = (248, 153, 255, 255);
glyphname = circumflex;
layers = (
{
layerId = "9D659DC9-364F-48BE-86F1-3EC0559472C9";
paths = (
{
closed = 1;
nodes = (
"466 599 LINE",
"360 599 LINE",
"286 692 LINE",
"213 599 LINE",
"108 599 LINE",
"249 769 LINE",
"323 769 LINE"
);
}
);
width = 574;
}
);
unicode = 02C6;
},
{
color = (248, 153, 255, 255);
glyphname = uni0326;
layers = (
{
layerId = "9D659DC9-364F-48BE-86F1-3EC0559472C9";
paths = (
{
closed = 1;
nodes = (
"-325 -187 OFFCURVE",
"-358 -157 OFFCURVE",
"-358 -132 QCURVE",
"-358 -106 OFFCURVE",
"-322 -74 OFFCURVE",
"-296 -74 QCURVE",
"-261 -74 OFFCURVE",
"-227 -121 OFFCURVE",
"-227 -152 QCURVE",
"-227 -175 OFFCURVE",
"-244 -222 OFFCURVE",
"-273 -264 OFFCURVE",
"-313 -295 OFFCURVE",
"-336 -303 QCURVE",
"-360 -270 LINE",
"-340 -256 OFFCURVE",
"-305 -214 OFFCURVE",
"-299 -189 QCURVE"
);
}
);
width = 0;
}
);
unicode = 0326;
},
{
color = (166, 255, 153, 255);
glyphname = exclam;
layers = (
{
layerId = "9D659DC9-364F-48BE-86F1-3EC0559472C9";
paths = (
{
closed = 1;
nodes = (
"96 225 LINE",
"83 707 LINE",
"206 707 LINE",
"193 225 LINE"
);
},
{
closed = 1;
nodes = (
"178 137 OFFCURVE",
"218 96 OFFCURVE",
"218 63 QCURVE",
"218 31 OFFCURVE",
"177 -8 OFFCURVE",
"145 -8 QCURVE",
"112 -8 OFFCURVE",
"72 30 OFFCURVE",
"72 63 QCURVE",
"72 96 OFFCURVE",
"112 137 OFFCURVE",
"145 137 QCURVE"
);
}
);
width = 290;
}
);
unicode = 0021;
},
{
color = (166, 255, 153, 255);
glyphname = quotedbl;
layers = (
{
layerId = "9D659DC9-364F-48BE-86F1-3EC0559472C9";
paths = (
{
closed = 1;
nodes = (
"152 455 LINE",
"67 455 LINE",
"54 707 LINE",
"165 707 LINE"
);
},
{
closed = 1;
nodes = (
"321 455 LINE",
"236 455 LINE",
"223 707 LINE",
"335 707 LINE"
);
}
);
width = 389;
}
);
unicode = 0022;
},
{
color = (166, 255, 153, 255);
glyphname = quotesingle;
layers = (
{
layerId = "9D659DC9-364F-48BE-86F1-3EC0559472C9";
paths = (
{
closed = 1;
nodes = (
"160 455 LINE",
"75 455 LINE",
"62 707 LINE",
"173 707 LINE"
);
}
);
width = 235;
}
);
unicode = 0027;
},
{
color = (166, 255, 153, 255);
glyphname = numbersign;
layers = (
{
layerId = "9D659DC9-364F-48BE-86F1-3EC0559472C9";
paths = (
{
closed = 1;
nodes = (
"190 531 LINE",
"193 554 OFFCURVE",
"195 576 QCURVE",
"204 663 LINE",
"207 685 OFFCURVE",
"209 707 QCURVE",
"309 707 LINE",
"289 531 LINE",
"408 531 LINE",
"428 707 LINE",
"528 707 LINE",
"509 531 LINE",
"604 531 LINE",
"604 433 LINE",
"498 433 LINE",
"480 273 LINE",
"575 273 LINE",
"575 175 LINE",
"469 175 LINE",
"449 0 LINE",
"349 0 LINE",
"369 175 LINE",
"249 175 LINE",
"230 0 LINE",
"129 0 LINE",
"149 175 LINE",
"54 175 LINE",
"54 273 LINE",
"160 273 LINE",
"178 433 LINE",
"83 433 LINE",
"83 531 LINE"
);
},
{
closed = 1;
nodes = (
"260 273 LINE",
"380 273 LINE",
"397 433 LINE",
"278 433 LINE"
);
}
);
width = 658;
}
);
unicode = 0023;
},
{
color = (166, 255, 153, 255);
glyphname = percent;
layers = (
{
layerId = "9D659DC9-364F-48BE-86F1-3EC0559472C9";
paths = (
{
closed = 1;
nodes = (
"174 389 OFFCURVE",
"115 415 OFFCURVE",
"74 459 OFFCURVE",
"54 519 OFFCURVE",
"54 554 QCURVE",
"54 626 OFFCURVE",
"135 719 OFFCURVE",
"213 719 QCURVE",
"289 719 OFFCURVE",
"370 626 OFFCURVE",
"370 554 QCURVE",
"370 519 OFFCURVE",
"349 459 OFFCURVE",
"309 415 OFFCURVE",
"251 389 OFFCURVE",
"213 389 QCURVE"
);
},
{
closed = 1;
nodes = (
"136 0 LINE",
"580 707 LINE",
"694 707 LINE",
"250 0 LINE"
);
},
{
closed = 1;
nodes = (
"175 632 OFFCURVE",
"145 585 OFFCURVE",
"145 554 QCURVE",
"145 522 OFFCURVE",
"175 476 OFFCURVE",
"213 476 QCURVE",
"249 476 OFFCURVE",
"277 523 OFFCURVE",
"277 554 QCURVE",
"277 585 OFFCURVE",
"249 632 OFFCURVE",
"213 632 QCURVE"
);
},
{
closed = 1;
nodes = (
"584 -11 OFFCURVE",
"525 15 OFFCURVE",
"484 59 OFFCURVE",
"464 119 OFFCURVE",
"464 154 QCURVE",
"464 226 OFFCURVE",
"545 319 OFFCURVE",
"623 319 QCURVE",
"699 319 OFFCURVE",
"781 226 OFFCURVE",
"781 154 QCURVE",
"781 119 OFFCURVE",
"760 59 OFFCURVE",
"720 15 OFFCURVE",
"661 -11 OFFCURVE",
"623 -11 QCURVE"
);
},
{
closed = 1;
nodes = (
"586 232 OFFCURVE",
"555 186 OFFCURVE",
"555 154 QCURVE",
"555 122 OFFCURVE",
"586 76 OFFCURVE",
"622 76 QCURVE",
"659 76 OFFCURVE",
"687 123 OFFCURVE",
"687 154 QCURVE",
"687 170 OFFCURVE",
"681 198 OFFCURVE",
"666 219 OFFCURVE",
"641 232 OFFCURVE",
"622 232 QCURVE"
);
}
);
width = 835;
}
);
unicode = 0025;
},
{
color = (166, 255, 153, 255);
glyphname = asterisk;
layers = (
{
layerId = "9D659DC9-364F-48BE-86F1-3EC0559472C9";
paths = (
{
closed = 1;
nodes = (
"259 729 LINE",
"259 630 LINE",
"353 661 LINE",
"377 587 LINE",
"282 556 LINE",
"342 475 LINE",
"279 429 LINE",
"220 510 LINE",
"162 430 LINE",
"98 476 LINE",
"161 559 LINE",
"64 589 LINE",
"87 661 LINE",
"181 630 LINE",
"181 729 LINE"
);
}
);
width = 441;
}
);
unicode = 002A;
},
{
color = (166, 255, 153, 255);
glyphname = plus;
layers = (
{
layerId = "9D659DC9-364F-48BE-86F1-3EC0559472C9";
paths = (
{
closed = 1;
nodes = (
"69 406 LINE",
"233 406 LINE",
"233 573 LINE",
"330 573 LINE",
"330 406 LINE",
"495 406 LINE",
"495 308 LINE",
"330 308 LINE",
"330 140 LINE",
"233 140 LINE",
"233 308 LINE",
"69 308 LINE"
);
}
);
width = 564;
}
);
unicode = 002B;
},
{
color = (166, 255, 153, 255);
glyphname = slash;
layers = (
{
layerId = "9D659DC9-364F-48BE-86F1-3EC0559472C9";
paths = (
{
closed = 1;
nodes = (
"339 792 LINE",
"452 792 LINE",
"146 -169 LINE",
"34 -169 LINE"
);
}
);
width = 486;
}
);
unicode = 002F;
},
{
color = (166, 255, 153, 255);
glyphname = colon;
layers = (
{
layerId = "9D659DC9-364F-48BE-86F1-3EC0559472C9";
paths = (
{
closed = 1;
nodes = (
"168 496 OFFCURVE",
"208 455 OFFCURVE",
"208 422 QCURVE",
"208 387 OFFCURVE",
"167 349 OFFCURVE",
"135 349 QCURVE",
"102 349 OFFCURVE",
"62 387 OFFCURVE",
"62 422 QCURVE",
"62 455 OFFCURVE",
"102 496 OFFCURVE",
"135 496 QCURVE"
);
},
{
closed = 1;
nodes = (
"168 138 OFFCURVE",
"208 97 OFFCURVE",
"208 64 QCURVE",
"208 30 OFFCURVE",
"167 -9 OFFCURVE",
"135 -9 QCURVE",
"102 -9 OFFCURVE",
"62 30 OFFCURVE",
"62 64 QCURVE",
"62 97 OFFCURVE",
"102 138 OFFCURVE",
"135 138 QCURVE"
);
}
);
width = 270;
}
);
leftKerningGroup = _kern15;
unicode = 003A;
},
{
color = (166, 255, 153, 255);
glyphname = semicolon;
layers = (
{
layerId = "9D659DC9-364F-48BE-86F1-3EC0559472C9";
paths = (
{
closed = 1;
nodes = (
"176 496 OFFCURVE",
"216 455 OFFCURVE",
"216 422 QCURVE",
"216 387 OFFCURVE",
"176 349 OFFCURVE",
"143 349 QCURVE",
"109 349 OFFCURVE",
"70 387 OFFCURVE",
"70 422 QCURVE",
"70 455 OFFCURVE",
"109 496 OFFCURVE",
"143 496 QCURVE"
);
},
{
closed = 1;
nodes = (
"102 -5 OFFCURVE",
"65 33 OFFCURVE",
"65 64 QCURVE",
"65 99 OFFCURVE",
"108 136 OFFCURVE",
"136 136 QCURVE",
"139 136 OFFCURVE",
"142 136 QCURVE",
"164 136 OFFCURVE",
"194 117 OFFCURVE",
"213 89 OFFCURVE",
"221 53 OFFCURVE",
"221 35 QCURVE",
"221 7 OFFCURVE",
"200 -51 OFFCURVE",
"165 -101 OFFCURVE",
"118 -140 OFFCURVE",
"92 -149 QCURVE",
"62 -107 LINE",
"87 -90 OFFCURVE",
"126 -37 OFFCURVE",
"133 -7 QCURVE"
);
}
);
width = 283;
}
);
leftKerningGroup = _kern15;
unicode = 003B;
},
{
color = (166, 255, 153, 255);
glyphname = less;
layers = (
{
layerId = "9D659DC9-364F-48BE-86F1-3EC0559472C9";
paths = (
{
closed = 1;
nodes = (
"34 382 LINE",
"403 621 LINE",
"403 506 LINE",
"165 357 LINE",
"403 206 LINE",
"403 90 LINE",
"34 327 LINE"
);
}
);
width = 467;
}
);
unicode = 003C;
},
{
color = (166, 255, 153, 255);
glyphname = equal;
layers = (
{
layerId = "9D659DC9-364F-48BE-86F1-3EC0559472C9";
paths = (
{
closed = 1;
nodes = (
"64 534 LINE",
"490 534 LINE",
"490 436 LINE",
"64 436 LINE"
);
},
{
closed = 1;
nodes = (
"64 278 LINE",
"490 278 LINE",
"490 180 LINE",
"64 180 LINE"
);
}
);
width = 554;
}
);
unicode = 003D;
},
{
color = (166, 255, 153, 255);
glyphname = greater;
layers = (
{
layerId = "9D659DC9-364F-48BE-86F1-3EC0559472C9";
paths = (
{
closed = 1;
nodes = (
"433 329 LINE",
"64 90 LINE",
"64 205 LINE",
"302 355 LINE",
"64 505 LINE",
"64 621 LINE",
"433 384 LINE"
);
}
);
width = 467;
}
);
unicode = 003E;
},
{
color = (166, 255, 153, 255);
glyphname = at;
layers = (
{
layerId = "9D659DC9-364F-48BE-86F1-3EC0559472C9";
paths = (
{
closed = 1;
nodes = (
"590 78 OFFCURVE",
"511 44 OFFCURVE",
"468 44 QCURVE",
"421 44 OFFCURVE",
"352 78 OFFCURVE",
"306 136 OFFCURVE",
"284 213 OFFCURVE",
"284 255 QCURVE",
"284 304 OFFCURVE",
"314 392 OFFCURVE",
"370 459 OFFCURVE",
"450 498 OFFCURVE",
"501 498 QCURVE",
"519 498 OFFCURVE",
"556 491 OFFCURVE",
"591 475 OFFCURVE",
"619 449 OFFCURVE",
"627 431 QCURVE",
"651 479 LINE",
"717 471 LINE",
"707 416 OFFCURVE",
"693 306 OFFCURVE",
"687 250 QCURVE",
"685 232 OFFCURVE",
"684 209 OFFCURVE",
"684 207 QCURVE",
"684 189 OFFCURVE",
"693 154 OFFCURVE",
"718 128 OFFCURVE",
"744 126 QCURVE",
"771 126 OFFCURVE",
"804 159 OFFCURVE",
"824 210 OFFCURVE",
"831 269 OFFCURVE",
"831 296 QCURVE",
"831 371 OFFCURVE",
"789 493 OFFCURVE",
"711 580 OFFCURVE",
"597 627 OFFCURVE",
"525 627 QCURVE",
"437 627 OFFCURVE",
"305 571 OFFCURVE",
"216 472 OFFCURVE",
"170 338 OFFCURVE",
"169 260 QCURVE",
"169 186 OFFCURVE",
"212 63 OFFCURVE",
"294 -26 OFFCURVE",
"415 -76 OFFCURVE",
"492 -76 QCURVE",
"511 -76 OFFCURVE",
"539 -75 OFFCURVE",
"564 -72 OFFCURVE",
"589 -67 OFFCURVE",
"605 -64 QCURVE",
"607 -88 OFFCURVE",
"613 -139 OFFCURVE",
"616 -163 QCURVE",
"582 -171 OFFCURVE",
"522 -177 OFFCURVE",
"484 -177 QCURVE",
"387 -177 OFFCURVE",
"232 -115 OFFCURVE",
"123 -3 OFFCURVE",
"65 152 OFFCURVE",
"65 244 QCURVE",
"65 353 OFFCURVE",
"131 530 OFFCURVE",
"251 655 OFFCURVE",
"420 722 OFFCURVE",
"522 722 QCURVE",
"615 722 OFFCURVE",
"764 661 OFFCURVE",
"870 552 OFFCURVE",
"927 403 OFFCURVE",
"927 315 QCURVE",
"927 270 OFFCURVE",
"911 172 OFFCURVE",
"870 91 OFFCURVE",
"798 39 OFFCURVE",
"742 39 QCURVE",
"699 39 OFFCURVE",
"632 78 OFFCURVE",
"617 117 QCURVE"
);
},
{
closed = 1;
nodes = (
"474 410 OFFCURVE",
"428 386 OFFCURVE",
"396 346 OFFCURVE",
"379 291 OFFCURVE",
"378 261 QCURVE",
"378 257 OFFCURVE",
"378 253 QCURVE",
"378 232 OFFCURVE",
"388 189 OFFCURVE",
"413 152 OFFCURVE",
"452 130 OFFCURVE",
"479 130 QCURVE",
"512 130 OFFCURVE",
"557 161 OFFCURVE",
"586 209 OFFCURVE",
"599 266 OFFCURVE",
"599 292 QCURVE",
"599 314 OFFCURVE",
"588 357 OFFCURVE",
"565 390 OFFCURVE",
"529 410 OFFCURVE",
"503 410 QCURVE"
);
}
);
width = 991;
}
);
unicode = 0040;
},
{
color = (166, 255, 153, 255);
glyphname = bracketleft;
layers = (
{
layerId = "9D659DC9-364F-48BE-86F1-3EC0559472C9";
paths = (
{
closed = 1;
nodes = (
"82 -178 LINE",
"82 787 LINE",
"307 787 LINE",
"307 693 LINE",
"191 693 LINE",
"191 -84 LINE",
"307 -84 LINE",
"307 -178 LINE"
);
}
);
width = 337;
}
);
unicode = 005B;
},
{
color = (166, 255, 153, 255);
glyphname = bracketright;
layers = (
{
layerId = "9D659DC9-364F-48BE-86F1-3EC0559472C9";
paths = (
{
closed = 1;
nodes = (
"255 787 LINE",
"255 -178 LINE",
"30 -178 LINE",
"30 -84 LINE",
"146 -84 LINE",
"146 693 LINE",
"30 693 LINE",
"30 787 LINE"
);
}
);
width = 337;
}
);
unicode = 005D;
},
{
color = (166, 255, 153, 255);
glyphname = backslash;
layers = (
{
layerId = "9D659DC9-364F-48BE-86F1-3EC0559472C9";
paths = (
{
closed = 1;
nodes = (
"339 -170 LINE",
"34 792 LINE",
"146 792 LINE",
"452 -170 LINE"
);
}
);
width = 486;
}
);
unicode = 005C;
},
{
color = (166, 255, 153, 255);
glyphname = asciicircum;
layers = (
{
layerId = "9D659DC9-364F-48BE-86F1-3EC0559472C9";
paths = (
{
closed = 1;
nodes = (
"287 712 LINE",
"441 486 LINE",
"332 486 LINE",
"247 623 LINE",
"160 486 LINE",
"54 486 LINE",
"206 712 LINE"
);
}
);
width = 495;
}
);
unicode = 005E;
},
{
color = (166, 255, 153, 255);
glyphname = underscore;
layers = (
{
layerId = "9D659DC9-364F-48BE-86F1-3EC0559472C9";
paths = (
{
closed = 1;
nodes = (
"-8 -62 LINE",
"451 -62 LINE",
"451 -159 LINE",
"-8 -159 LINE"
);
}
);
width = 443;
}
);
unicode = 005F;
},
{
color = (166, 255, 153, 255);
glyphname = braceleft;
layers = (
{
layerId = "9D659DC9-364F-48BE-86F1-3EC0559472C9";
paths = (
{
closed = 1;
nodes = (
"288 693 LINE",
"268 693 OFFCURVE",
"248 678 OFFCURVE",
"240 654 OFFCURVE",
"239 624 OFFCURVE",
"239 609 QCURVE",
"239 433 LINE",
"239 413 OFFCURVE",
"233 374 OFFCURVE",
"219 340 OFFCURVE",
"194 312 OFFCURVE",
"175 304 QCURVE",
"194 296 OFFCURVE",
"219 269 OFFCURVE",
"233 234 OFFCURVE",
"239 194 OFFCURVE",
"239 175 QCURVE",
"239 -4 LINE",
"239 -25 OFFCURVE",
"241 -56 OFFCURVE",
"251 -75 OFFCURVE",
"270 -84 OFFCURVE",
"288 -84 QCURVE",
"353 -84 LINE",
"353 -178 LINE",
"257 -178 LINE",
"197 -178 OFFCURVE",
"131 -126 OFFCURVE",
"131 -61 QCURVE",
"131 147 LINE",
"131 168 OFFCURVE",
"126 208 OFFCURVE",
"107 240 OFFCURVE",
"67 259 OFFCURVE",
"32 259 QCURVE",
"32 350 LINE",
"73 350 OFFCURVE",
"114 380 OFFCURVE",
"131 422 OFFCURVE",
"131 445 QCURVE",
"131 649 LINE",
"131 727 OFFCURVE",
"190 787 OFFCURVE",
"257 787 QCURVE",
"353 787 LINE",
"353 693 LINE"
);
}
);
width = 407;
}
);
unicode = 007B;
},
{
color = (166, 255, 153, 255);
glyphname = bar;
layers = (
{
layerId = "9D659DC9-364F-48BE-86F1-3EC0559472C9";
paths = (
{
closed = 1;
nodes = (
"82 -171 LINE",
"82 800 LINE",
"189 800 LINE",
"189 -171 LINE"
);
}
);
width = 271;
}
);
unicode = 007C;
},
{
color = (166, 255, 153, 255);
glyphname = braceright;
layers = (
{
layerId = "9D659DC9-364F-48BE-86F1-3EC0559472C9";
paths = (
{
closed = 1;
nodes = (
"119 -84 LINE",
"138 -84 OFFCURVE",
"159 -69 OFFCURVE",
"167 -45 OFFCURVE",
"168 -15 OFFCURVE",
"168 0 QCURVE",
"168 176 LINE",
"168 195 OFFCURVE",
"174 235 OFFCURVE",
"188 269 OFFCURVE",
"213 297 OFFCURVE",
"232 305 QCURVE",
"213 312 OFFCURVE",
"188 340 OFFCURVE",
"174 375 OFFCURVE",
"168 415 OFFCURVE",
"168 434 QCURVE",
"168 613 LINE",
"168 634 OFFCURVE",
"166 665 OFFCURVE",
"156 684 OFFCURVE",
"137 693 OFFCURVE",
"119 693 QCURVE",
"54 693 LINE",
"54 787 LINE",
"154 787 LINE",
"214 787 OFFCURVE",
"276 735 OFFCURVE",
"276 670 QCURVE",
"276 462 LINE",
"276 441 OFFCURVE",
"281 401 OFFCURVE",
"300 369 OFFCURVE",
"340 350 OFFCURVE",
"375 350 QCURVE",
"375 259 LINE",
"334 259 OFFCURVE",
"292 229 OFFCURVE",
"276 187 OFFCURVE",
"276 165 QCURVE",
"276 -40 LINE",
"276 -118 OFFCURVE",
"217 -178 OFFCURVE",
"150 -178 QCURVE",
"54 -178 LINE",
"54 -84 LINE"
);
}
);
width = 407;
}
);
unicode = 007D;
},
{
color = (166, 255, 153, 255);
glyphname = Euro;
layers = (
{
layerId = "9D659DC9-364F-48BE-86F1-3EC0559472C9";
paths = (
{
closed = 1;
nodes = (
"332 -8 OFFCURVE",
"180 111 OFFCURVE",
"151 221 QCURVE",
"44 221 LINE",
"60 314 LINE",
"139 314 LINE",
"138 334 OFFCURVE",
"138 374 OFFCURVE",
"141 393 QCURVE",
"47 393 LINE",
"63 486 LINE",
"154 486 LINE",
"184 596 OFFCURVE",
"333 714 OFFCURVE",
"449 714 QCURVE",
"517 714 OFFCURVE",
"617 675 OFFCURVE",
"659 633 QCURVE",
"599 551 LINE",
"564 581 OFFCURVE",
"496 611 OFFCURVE",
"448 611 QCURVE",
"384 611 OFFCURVE",
"293 546 OFFCURVE",
"275 486 QCURVE",
"539 486 LINE",
"523 393 LINE",
"255 393 LINE",
"253 374 OFFCURVE",
"253 333 OFFCURVE",
"255 314 QCURVE",
"508 314 LINE",
"492 221 LINE",
"275 221 LINE",
"290 161 OFFCURVE",
"388 94 OFFCURVE",
"454 94 QCURVE",
"502 94 OFFCURVE",
"572 121 OFFCURVE",
"607 154 QCURVE",
"622 134 OFFCURVE",
"651 96 OFFCURVE",
"665 76 QCURVE",
"625 34 OFFCURVE",
"519 -8 OFFCURVE",
"452 -8 QCURVE"
);
}
);
width = 709;
}
);
unicode = 20AC;
},
{
color = (166, 255, 153, 255);
glyphname = quotedblbase;
layers = (
{
layerId = "9D659DC9-364F-48BE-86F1-3EC0559472C9";
paths = (
{
closed = 1;
nodes = (
"101 0 OFFCURVE",
"65 37 OFFCURVE",
"65 67 QCURVE",
"65 99 OFFCURVE",
"106 136 OFFCURVE",
"137 136 QCURVE",
"138 136 OFFCURVE",
"140 136 QCURVE",
"178 133 OFFCURVE",
"216 78 OFFCURVE",
"216 44 QCURVE",
"216 42 OFFCURVE",
"216 40 QCURVE",
"216 12 OFFCURVE",
"195 -44 OFFCURVE",
"161 -93 OFFCURVE",
"116 -131 OFFCURVE",
"91 -139 QCURVE",
"62 -100 LINE",
"87 -82 OFFCURVE",
"124 -32 OFFCURVE",
"131 -2 QCURVE"
);
},
{
closed = 1;
nodes = (
"306 0 OFFCURVE",
"270 37 OFFCURVE",
"270 67 QCURVE",
"270 99 OFFCURVE",
"311 136 OFFCURVE",
"342 136 QCURVE",
"343 136 OFFCURVE",
"345 136 QCURVE",
"383 133 OFFCURVE",
"421 78 OFFCURVE",
"421 44 QCURVE",
"421 42 OFFCURVE",
"421 40 QCURVE",
"421 12 OFFCURVE",
"400 -44 OFFCURVE",
"366 -93 OFFCURVE",
"321 -131 OFFCURVE",
"296 -139 QCURVE",
"267 -100 LINE",
"292 -82 OFFCURVE",
"329 -32 OFFCURVE",
"336 -2 QCURVE"
);
}
);
width = 484;
}
);
leftKerningGroup = _kern14;
rightKerningGroup = _kern14;
unicode = 201E;
},
{
color = (166, 255, 153, 255);
glyphname = quotesinglbase;
layers = (
{
layerId = "9D659DC9-364F-48BE-86F1-3EC0559472C9";
paths = (
{
closed = 1;
nodes = (
"101 0 OFFCURVE",
"65 37 OFFCURVE",
"65 67 QCURVE",
"65 99 OFFCURVE",
"106 135 OFFCURVE",
"134 135 QCURVE",
"137 135 OFFCURVE",
"140 135 QCURVE",
"177 133 OFFCURVE",
"216 78 OFFCURVE",
"216 44 QCURVE",
"216 42 OFFCURVE",
"216 40 QCURVE",
"216 12 OFFCURVE",
"195 -44 OFFCURVE",
"161 -93 OFFCURVE",
"116 -131 OFFCURVE",
"91 -139 QCURVE",
"62 -100 LINE",
"87 -82 OFFCURVE",
"124 -32 OFFCURVE",
"131 -2 QCURVE"
);
}
);
width = 279;
}
);
unicode = 201A;
},
{
color = (166, 255, 153, 255);
glyphname = quotedblright;
layers = (
{
layerId = "9D659DC9-364F-48BE-86F1-3EC0559472C9";
paths = (
{
closed = 1;
nodes = (
"100 595 OFFCURVE",
"65 631 OFFCURVE",
"65 661 QCURVE",
"65 695 OFFCURVE",
"107 731 OFFCURVE",
"137 731 QCURVE",
"138 731 OFFCURVE",
"140 731 QCURVE",
"161 730 OFFCURVE",
"190 714 OFFCURVE",
"208 687 OFFCURVE",
"216 652 OFFCURVE",
"216 633 QCURVE",
"216 606 OFFCURVE",
"196 550 OFFCURVE",
"161 501 OFFCURVE",
"116 464 OFFCURVE",
"91 456 QCURVE",
"62 496 LINE",
"87 513 OFFCURVE",
"124 564 OFFCURVE",
"131 593 QCURVE"
);
},
{
closed = 1;
nodes = (
"305 595 OFFCURVE",
"270 631 OFFCURVE",
"270 661 QCURVE",
"270 695 OFFCURVE",
"312 731 OFFCURVE",
"342 731 QCURVE",
"343 731 OFFCURVE",
"345 731 QCURVE",
"385 729 OFFCURVE",
"421 672 OFFCURVE",
"421 637 QCURVE",
"421 635 OFFCURVE",
"421 633 QCURVE",
"421 606 OFFCURVE",
"401 550 OFFCURVE",
"366 501 OFFCURVE",
"321 464 OFFCURVE",
"296 456 QCURVE",
"267 496 LINE",
"292 513 OFFCURVE",
"329 564 OFFCURVE",
"336 593 QCURVE"
);
}
);
width = 484;
}
);
unicode = 201D;
},
{
color = (166, 255, 153, 255);
glyphname = quoteright;
layers = (
{
layerId = "9D659DC9-364F-48BE-86F1-3EC0559472C9";
paths = (
{
closed = 1;
nodes = (
"101 595 OFFCURVE",
"65 631 OFFCURVE",
"65 661 QCURVE",
"65 695 OFFCURVE",
"109 731 OFFCURVE",
"140 731 QCURVE",
"160 731 OFFCURVE",
"190 714 OFFCURVE",
"208 687 OFFCURVE",
"216 652 OFFCURVE",
"216 633 QCURVE",
"216 606 OFFCURVE",
"195 550 OFFCURVE",
"161 501 OFFCURVE",
"116 464 OFFCURVE",
"91 456 QCURVE",
"62 496 LINE",
"87 513 OFFCURVE",
"124 564 OFFCURVE",
"131 593 QCURVE"
);
}
);
width = 279;
}
);
unicode = 2019;
},
{
color = (166, 255, 153, 255);
glyphname = quotedblleft;
layers = (
{
layerId = "9D659DC9-364F-48BE-86F1-3EC0559472C9";
paths = (
{
closed = 1;
nodes = (
"384 611 OFFCURVE",
"420 574 OFFCURVE",
"420 545 QCURVE",
"420 511 OFFCURVE",
"378 475 OFFCURVE",
"351 475 QCURVE",
"348 475 OFFCURVE",
"345 475 QCURVE",
"324 475 OFFCURVE",
"295 493 OFFCURVE",
"276 520 OFFCURVE",
"268 555 OFFCURVE",
"268 573 QCURVE",
"268 600 OFFCURVE",
"288 656 OFFCURVE",
"323 705 OFFCURVE",
"368 742 OFFCURVE",
"394 751 QCURVE",
"423 711 LINE",
"398 694 OFFCURVE",
"360 643 OFFCURVE",
"353 613 QCURVE"
);
},
{
closed = 1;
nodes = (
"179 611 OFFCURVE",
"215 574 OFFCURVE",
"215 545 QCURVE",
"215 511 OFFCURVE",
"173 475 OFFCURVE",
"145 475 QCURVE",
"142 475 OFFCURVE",
"139 475 QCURVE",
"118 475 OFFCURVE",
"89 493 OFFCURVE",
"71 520 OFFCURVE",
"63 555 OFFCURVE",
"63 573 QCURVE",
"63 600 OFFCURVE",
"83 656 OFFCURVE",
"118 705 OFFCURVE",
"163 742 OFFCURVE",
"189 751 QCURVE",
"218 711 LINE",
"193 694 OFFCURVE",
"155 643 OFFCURVE",
"148 613 QCURVE"
);
}
);
width = 485;
}
);
unicode = 201C;
},
{
color = (166, 255, 153, 255);
glyphname = quoteleft;
layers = (
{
layerId = "9D659DC9-364F-48BE-86F1-3EC0559472C9";
paths = (
{
closed = 1;
nodes = (
"178 611 OFFCURVE",
"214 574 OFFCURVE",
"214 545 QCURVE",
"214 511 OFFCURVE",
"172 475 OFFCURVE",
"145 475 QCURVE",
"142 475 OFFCURVE",
"139 475 QCURVE",
"118 475 OFFCURVE",
"89 493 OFFCURVE",
"71 520 OFFCURVE",
"63 555 OFFCURVE",
"63 573 QCURVE",
"63 600 OFFCURVE",
"83 656 OFFCURVE",
"118 705 OFFCURVE",
"163 742 OFFCURVE",
"188 751 QCURVE",
"217 711 LINE",
"192 694 OFFCURVE",
"155 643 OFFCURVE",
"148 613 QCURVE"
);
}
);
width = 279;
}
);
unicode = 2018;
},
{
color = (166, 255, 153, 255);
glyphname = minus;
layers = (
{
layerId = "9D659DC9-364F-48BE-86F1-3EC0559472C9";
paths = (
{
closed = 1;
nodes = (
"69 406 LINE",
"471 406 LINE",
"471 308 LINE",
"69 308 LINE"
);
}
);
width = 540;
}
);
unicode = 2212;
},
{
color = (166, 255, 153, 255);
glyphname = hyphen;
layers = (
{
layerId = "9D659DC9-364F-48BE-86F1-3EC0559472C9";
paths = (
{
closed = 1;
nodes = (
"69 335 LINE",
"388 335 LINE",
"388 237 LINE",
"69 237 LINE"
);
}
);
width = 457;
}
);
unicode = 002D;
},
{
color = (166, 255, 153, 255);
glyphname = endash;
layers = (
{
layerId = "9D659DC9-364F-48BE-86F1-3EC0559472C9";
paths = (
{
closed = 1;
nodes = (
"69 335 LINE",
"533 335 LINE",
"533 237 LINE",
"69 237 LINE"
);
}
);
width = 602;
}
);
unicode = 2013;
},
{
color = (166, 255, 153, 255);
glyphname = emdash;
layers = (
{
layerId = "9D659DC9-364F-48BE-86F1-3EC0559472C9";
paths = (
{
closed = 1;
nodes = (
"69 335 LINE",
"736 335 LINE",
"736 237 LINE",
"69 237 LINE"
);
}
);
width = 805;
}
);
unicode = 2014;
},
{
color = (248, 153, 255, 255);
glyphname = grave;
layers = (
{
layerId = "9D659DC9-364F-48BE-86F1-3EC0559472C9";
paths = (
{
closed = 1;
nodes = (
"262 606 LINE",
"167 606 LINE",
"50 769 LINE",
"165 769 LINE"
);
}
);
width = 362;
}
);
unicode = 0060;
},
{
color = (248, 153, 255, 255);
glyphname = acute;
layers = (
{
layerId = "9D659DC9-364F-48BE-86F1-3EC0559472C9";
paths = (
{
closed = 1;
nodes = (
"197 769 LINE",
"312 769 LINE",
"195 606 LINE",
"100 606 LINE"
);
}
);
width = 362;
}
);
unicode = 00B4;
},
{
color = (166, 255, 153, 255);
glyphname = guillemotright;
layers = (
{
layerId = "9D659DC9-364F-48BE-86F1-3EC0559472C9";
paths = (
{
closed = 1;
nodes = (
"54 449 LINE",
"171 449 LINE",
"291 267 LINE",
"171 86 LINE",
"54 86 LINE",
"176 267 LINE"
);
},
{
closed = 1;
nodes = (
"252 449 LINE",
"370 449 LINE",
"491 267 LINE",
"370 86 LINE",
"252 86 LINE",
"377 267 LINE"
);
}
);
width = 525;
}
);
unicode = 00BB;
},
{
color = (166, 255, 153, 255);
glyphname = guilsinglright;
layers = (
{
layerId = "9D659DC9-364F-48BE-86F1-3EC0559472C9";
paths = (
{
closed = 1;
nodes = (
"54 449 LINE",
"171 449 LINE",
"292 267 LINE",
"171 86 LINE",
"56 86 LINE",
"177 265 LINE"
);
}
);
width = 326;
}
);
unicode = 203A;
},
{
color = (166, 255, 153, 255);
glyphname = guillemotleft;
layers = (
{
layerId = "9D659DC9-364F-48BE-86F1-3EC0559472C9";
paths = (
{
closed = 1;
nodes = (
"272 86 LINE",
"154 86 LINE",
"34 267 LINE",
"154 449 LINE",
"272 449 LINE",
"147 267 LINE"
);
},
{
closed = 1;
nodes = (
"471 86 LINE",
"353 86 LINE",
"233 267 LINE",
"353 449 LINE",
"471 449 LINE",
"348 267 LINE"
);
}
);
width = 525;
}
);
unicode = 00AB;
},
{
color = (166, 255, 153, 255);
glyphname = guilsinglleft;
layers = (
{
layerId = "9D659DC9-364F-48BE-86F1-3EC0559472C9";
paths = (
{
closed = 1;
nodes = (
"273 86 LINE",
"154 86 LINE",
"34 267 LINE",
"155 449 LINE",
"272 449 LINE",
"148 270 LINE"
);
}
);
width = 327;
}
);
unicode = 2039;
},
{
color = (166, 255, 153, 255);
glyphname = uni00AD;
layers = (
{
layerId = "9D659DC9-364F-48BE-86F1-3EC0559472C9";
paths = (
{
closed = 1;
nodes = (
"69 335 LINE",
"386 335 LINE",
"386 237 LINE",
"69 237 LINE"
);
}
);
width = 455;
}
);
unicode = 00AD;
},
{
color = (166, 255, 153, 255);
glyphname = ellipsis;
layers = (
{
layerId = "9D659DC9-364F-48BE-86F1-3EC0559472C9";
paths = (
{
closed = 1;
nodes = (
"157 139 OFFCURVE",
"198 99 OFFCURVE",
"198 65 QCURVE",
"198 30 OFFCURVE",
"157 -8 OFFCURVE",
"125 -8 QCURVE",
"93 -8 OFFCURVE",
"52 30 OFFCURVE",
"52 65 QCURVE",
"52 99 OFFCURVE",
"93 139 OFFCURVE",
"125 139 QCURVE"
);
},
{
closed = 1;
nodes = (
"404 139 OFFCURVE",
"445 99 OFFCURVE",
"445 65 QCURVE",
"445 30 OFFCURVE",
"404 -8 OFFCURVE",
"372 -8 QCURVE",
"340 -8 OFFCURVE",
"299 30 OFFCURVE",
"299 65 QCURVE",
"299 99 OFFCURVE",
"340 139 OFFCURVE",
"372 139 QCURVE"
);
},
{
closed = 1;
nodes = (
"650 139 OFFCURVE",
"691 99 OFFCURVE",
"691 65 QCURVE",
"691 30 OFFCURVE",
"650 -8 OFFCURVE",
"618 -8 QCURVE",
"586 -8 OFFCURVE",
"545 30 OFFCURVE",
"545 65 QCURVE",
"545 99 OFFCURVE",
"586 139 OFFCURVE",
"618 139 QCURVE"
);
}
);
width = 743;
}
);
unicode = 2026;
},
{
color = (166, 255, 153, 255);
glyphname = uni0445;
layers = (
{
layerId = "9D659DC9-364F-48BE-86F1-3EC0559472C9";
paths = (
{
closed = 1;
nodes = (
"387 0 LINE",
"259 188 LINE",
"135 0 LINE",
"9 0 LINE",
"191 267 LINE",
"18 527 LINE",
"150 527 LINE",
"265 341 LINE",
"377 527 LINE",
"507 527 LINE",
"333 265 LINE",
"518 0 LINE"
);
}
);
width = 527;
}
);
unicode = 0445;
},
{
color = (166, 255, 153, 255);
glyphname = uni0431;
layers = (
{
layerId = "9D659DC9-364F-48BE-86F1-3EC0559472C9";
paths = (
{
closed = 1;
nodes = (
"184 458 OFFCURVE",
"280 493 OFFCURVE",
"329 493 QCURVE",
"383 493 OFFCURVE",
"468 459 OFFCURVE",
"528 397 OFFCURVE",
"560 310 OFFCURVE",
"560 256 QCURVE",
"560 198 OFFCURVE",
"525 100 OFFCURVE",
"458 31 OFFCURVE",
"363 -7 OFFCURVE",
"303 -7 QCURVE",
"224 -6 OFFCURVE",
"123 56 OFFCURVE",
"65 154 OFFCURVE",
"43 277 OFFCURVE",
"43 340 QCURVE",
"43 403 OFFCURVE",
"62 535 OFFCURVE",
"91 586 QCURVE",
"115 626 OFFCURVE",
"178 673 OFFCURVE",
"254 698 OFFCURVE",
"340 710 OFFCURVE",
"386 716 QCURVE",
"421 720 OFFCURVE",
"494 728 OFFCURVE",
"529 740 QCURVE",
"529 631 LINE",
"511 623 OFFCURVE",
"447 614 OFFCURVE",
"375 607 OFFCURVE",
"305 600 OFFCURVE",
"278 596 QCURVE",
"246 591 OFFCURVE",
"197 558 OFFCURVE",
"167 511 OFFCURVE",
"153 450 OFFCURVE",
"152 418 QCURVE"
);
},
{
closed = 1;
nodes = (
"340 92 OFFCURVE",
"393 118 OFFCURVE",
"429 159 OFFCURVE",
"447 214 OFFCURVE",
"447 244 QCURVE",
"447 275 OFFCURVE",
"428 330 OFFCURVE",
"393 369 OFFCURVE",
"343 391 OFFCURVE",
"311 391 QCURVE",
"278 391 OFFCURVE",
"225 370 OFFCURVE",
"188 331 OFFCURVE",
"166 277 OFFCURVE",
"165 246 QCURVE",
"165 216 OFFCURVE",
"181 161 OFFCURVE",
"216 119 OFFCURVE",
"269 92 OFFCURVE",
"306 92 QCURVE"
);
}
);
width = 598;
}
);
rightKerningGroup = _kern10;
unicode = 0431;
},
{
color = (166, 255, 153, 255);
glyphname = uni0432;
layers = (
{
layerId = "9D659DC9-364F-48BE-86F1-3EC0559472C9";
paths = (
{
closed = 1;
nodes = (
"62 527 LINE",
"287 527 LINE",
"322 527 OFFCURVE",
"394 520 OFFCURVE",
"453 492 OFFCURVE",
"490 439 OFFCURVE",
"491 394 QCURVE",
"491 359 OFFCURVE",
"459 299 OFFCURVE",
"424 280 QCURVE",
"472 267 OFFCURVE",
"517 202 OFFCURVE",
"517 157 QCURVE",
"517 115 OFFCURVE",
"483 54 OFFCURVE",
"427 17 OFFCURVE",
"353 0 OFFCURVE",
"312 0 QCURVE",
"62 0 LINE"
);
},
{
closed = 1;
nodes = (
"177 432 LINE",
"177 311 LINE",
"246 311 LINE",
"269 311 OFFCURVE",
"318 312 OFFCURVE",
"357 324 OFFCURVE",
"382 350 OFFCURVE",
"382 374 QCURVE",
"382 395 OFFCURVE",
"363 418 OFFCURVE",
"335 430 OFFCURVE",
"300 432 OFFCURVE",
"285 432 QCURVE"
);
},
{
closed = 1;
nodes = (
"293 96 LINE",
"313 96 OFFCURVE",
"352 100 OFFCURVE",
"383 115 OFFCURVE",
"403 140 OFFCURVE",
"403 161 QCURVE",
"403 199 OFFCURVE",
"356 225 OFFCURVE",
"322 225 QCURVE",
"177 225 LINE",
"177 96 LINE"
);
}
);
width = 561;
}
);
leftKerningGroup = _kern11;
unicode = 0432;
},
{
color = (166, 255, 153, 255);
glyphname = uni0433;
layers = (
{
layerId = "9D659DC9-364F-48BE-86F1-3EC0559472C9";
paths = (
{
closed = 1;
nodes = (
"62 0 LINE",
"62 527 LINE",
"443 527 LINE",
"443 428 LINE",
"176 428 LINE",
"176 0 LINE"
);
}
);
width = 461;
}
);
leftKerningGroup = _kern11;
rightKerningGroup = _kern24;
unicode = 0433;
},
{
color = (166, 255, 153, 255);
glyphname = uni0434;
layers = (
{
layerId = "9D659DC9-364F-48BE-86F1-3EC0559472C9";
paths = (
{
closed = 1;
nodes = (
"122 387 OFFCURVE",
"124 478 OFFCURVE",
"124 527 QCURVE",
"530 527 LINE",
"530 97 LINE",
"599 97 LINE",
"599 -154 LINE",
"488 -154 LINE",
"488 0 LINE",
"128 0 LINE",
"128 -154 LINE",
"17 -154 LINE",
"17 97 LINE",
"46 97 OFFCURVE",
"85 134 OFFCURVE",
"92 155 QCURVE",
"99 173 OFFCURVE",
"109 228 OFFCURVE",
"115 282 OFFCURVE",
"119 328 OFFCURVE",
"120 354 QCURVE"
);
},
{
closed = 1;
nodes = (
"416 428 LINE",
"228 428 LINE",
"226 392 OFFCURVE",
"224 308 OFFCURVE",
"222 269 QCURVE",
"221 247 OFFCURVE",
"217 206 OFFCURVE",
"209 161 OFFCURVE",
"195 117 OFFCURVE",
"183 97 QCURVE",
"416 97 LINE"
);
}
);
width = 616;
}
);
rightKerningGroup = _kern13;
unicode = 0434;
},
{
color = (166, 255, 153, 255);
glyphname = uni0436;
layers = (
{
layerId = "9D659DC9-364F-48BE-86F1-3EC0559472C9";
paths = (
{
closed = 1;
nodes = (
"347 0 LINE",
"347 213 LINE",
"265 213 LINE",
"143 0 LINE",
"9 0 LINE",
"176 276 LINE",
"23 527 LINE",
"150 527 LINE",
"273 311 LINE",
"347 311 LINE",
"347 527 LINE",
"460 527 LINE",
"460 311 LINE",
"534 311 LINE",
"657 527 LINE",
"784 527 LINE",
"631 276 LINE",
"798 0 LINE",
"664 0 LINE",
"542 213 LINE",
"460 213 LINE",
"460 0 LINE"
);
}
);
width = 807;
}
);
unicode = 0436;
},
{
color = (166, 255, 153, 255);
glyphname = uni043A;
layers = (
{
layerId = "9D659DC9-364F-48BE-86F1-3EC0559472C9";
paths = (
{
closed = 1;
nodes = (
"62 0 LINE",
"62 527 LINE",
"175 527 LINE",
"175 312 LINE",
"256 312 LINE",
"391 527 LINE",
"521 527 LINE",
"354 276 LINE",
"534 0 LINE",
"402 0 LINE",
"263 213 LINE",
"175 213 LINE",
"175 0 LINE"
);
}
);
width = 536;
}
);
leftKerningGroup = _kern11;
unicode = 043A;
},
{
color = (166, 255, 153, 255);
glyphname = uni0438;
layers = (
{
layerId = "9D659DC9-364F-48BE-86F1-3EC0559472C9";
paths = (
{
closed = 1;
nodes = (
"62 0 LINE",
"62 527 LINE",
"176 527 LINE",
"176 165 LINE",
"444 527 LINE",
"547 527 LINE",
"547 0 LINE",
"433 0 LINE",
"433 355 LINE",
"432 353 OFFCURVE",
"168 0 QCURVE"
);
}
);
width = 609;
}
);
leftKerningGroup = _kern11;
unicode = 0438;
},
{
color = (166, 255, 153, 255);
glyphname = uni0439;
layers = (
{
layerId = "9D659DC9-364F-48BE-86F1-3EC0559472C9";
paths = (
{
closed = 1;
nodes = (
"348 668 OFFCURVE",
"394 700 OFFCURVE",
"397 735 QCURVE",
"497 735 LINE",
"490 657 OFFCURVE",
"393 585 OFFCURVE",
"313 585 QCURVE",
"231 585 OFFCURVE",
"134 657 OFFCURVE",
"128 735 QCURVE",
"228 735 LINE",
"232 700 OFFCURVE",
"277 668 OFFCURVE",
"313 668 QCURVE"
);
},
{
closed = 1;
nodes = (
"62 0 LINE",
"62 527 LINE",
"176 527 LINE",
"176 165 LINE",
"444 527 LINE",
"547 527 LINE",
"547 0 LINE",
"433 0 LINE",
"433 354 LINE",
"432 352 OFFCURVE",
"168 0 QCURVE"
);
}
);
width = 609;
}
);
unicode = 0439;
},
{
color = (166, 255, 153, 255);
glyphname = uni043B;
layers = (
{
layerId = "9D659DC9-364F-48BE-86F1-3EC0559472C9";
paths = (
{
closed = 1;
nodes = (
"116 319 OFFCURVE",
"119 454 OFFCURVE",
"121 527 QCURVE",
"515 527 LINE",
"515 0 LINE",
"400 0 LINE",
"400 428 LINE",
"227 428 LINE",
"225 379 OFFCURVE",
"222 282 OFFCURVE",
"219 234 QCURVE",
"218 216 OFFCURVE",
"213 167 OFFCURVE",
"205 118 OFFCURVE",
"189 75 OFFCURVE",
"177 57 QCURVE",
"156 27 OFFCURVE",
"87 0 OFFCURVE",
"42 0 QCURVE",
"14 0 LINE",
"14 98 LINE",
"44 98 OFFCURVE",
"81 127 OFFCURVE",
"100 172 OFFCURVE",
"109 225 OFFCURVE",
"111 251 QCURVE"
);
}
);
width = 577;
}
);
unicode = 043B;
},
{
color = (166, 255, 153, 255);
glyphname = uni043C;
layers = (
{
layerId = "9D659DC9-364F-48BE-86F1-3EC0559472C9";
paths = (
{
closed = 1;
nodes = (
"62 527 LINE",
"199 527 LINE",
"358 276 LINE",
"516 527 LINE",
"650 527 LINE",
"650 0 LINE",
"538 0 LINE",
"538 378 LINE",
"371 118 LINE",
"344 118 LINE",
"174 378 LINE",
"174 0 LINE",
"62 0 LINE"
);
}
);
width = 713;
}
);
leftKerningGroup = _kern11;
unicode = 043C;
},
{
color = (166, 255, 153, 255);
glyphname = uni043D;
layers = (
{
layerId = "9D659DC9-364F-48BE-86F1-3EC0559472C9";
paths = (
{
closed = 1;
nodes = (
"62 0 LINE",
"62 527 LINE",
"176 527 LINE",
"176 310 LINE",
"410 310 LINE",
"410 527 LINE",
"524 527 LINE",
"524 0 LINE",
"410 0 LINE",
"410 211 LINE",
"176 211 LINE",
"176 0 LINE"
);
}
);
width = 586;
}
);
leftKerningGroup = _kern11;
unicode = 043D;
},
{
color = (166, 255, 153, 255);
glyphname = uni043F;
layers = (
{
layerId = "9D659DC9-364F-48BE-86F1-3EC0559472C9";
paths = (
{
closed = 1;
nodes = (
"62 0 LINE",
"62 527 LINE",
"524 527 LINE",
"524 0 LINE",
"410 0 LINE",
"410 428 LINE",
"176 428 LINE",
"176 0 LINE"
);
}
);
width = 586;
}
);
leftKerningGroup = _kern11;
unicode = 043F;
},
{
color = (166, 255, 153, 255);
glyphname = uni0442;
layers = (
{
layerId = "9D659DC9-364F-48BE-86F1-3EC0559472C9";
paths = (
{
closed = 1;
nodes = (
"473 527 LINE",
"473 428 LINE",
"295 428 LINE",
"295 0 LINE",
"182 0 LINE",
"182 428 LINE",
"4 428 LINE",
"4 527 LINE"
);
}
);
width = 477;
}
);
unicode = 0442;
},
{
color = (166, 255, 153, 255);
glyphname = uni0444;
layers = (
{
layerId = "9D659DC9-364F-48BE-86F1-3EC0559472C9";
paths = (
{
closed = 1;
nodes = (
"322 703 LINE",
"435 703 LINE",
"435 535 LINE",
"498 534 OFFCURVE",
"602 498 OFFCURVE",
"677 430 OFFCURVE",
"719 329 OFFCURVE",
"719 261 QCURVE",
"719 194 OFFCURVE",
"676 94 OFFCURVE",
"601 28 OFFCURVE",
"496 -6 OFFCURVE",
"435 -7 QCURVE",
"435 -200 LINE",
"322 -200 LINE",
"322 -7 LINE",
"259 -6 OFFCURVE",
"156 28 OFFCURVE",
"80 93 OFFCURVE",
"38 193 OFFCURVE",
"38 259 QCURVE",
"38 327 OFFCURVE",
"77 429 OFFCURVE",
"151 498 OFFCURVE",
"256 535 OFFCURVE",
"322 535 QCURVE"
);
},
{
closed = 1;
nodes = (
"435 89 LINE",
"519 89 OFFCURVE",
"604 179 OFFCURVE",
"604 263 QCURVE",
"604 349 OFFCURVE",
"517 437 OFFCURVE",
"435 437 QCURVE"
);
},
{
closed = 1;
nodes = (
"322 437 LINE",
"239 437 OFFCURVE",
"153 349 OFFCURVE",
"153 263 QCURVE",
"153 178 OFFCURVE",
"238 90 OFFCURVE",
"322 89 QCURVE"
);
}
);
width = 757;
}
);
leftKerningGroup = _kern9;
rightKerningGroup = _kern10;
unicode = 0444;
},
{
color = (166, 255, 153, 255);
glyphname = uni0446;
layers = (
{
layerId = "9D659DC9-364F-48BE-86F1-3EC0559472C9";
paths = (
{
closed = 1;
nodes = (
"405 97 LINE",
"405 527 LINE",
"519 527 LINE",
"519 97 LINE",
"590 97 LINE",
"590 -154 LINE",
"478 -154 LINE",
"478 0 LINE",
"62 0 LINE",
"62 527 LINE",
"175 527 LINE",
"175 97 LINE"
);
}
);
width = 607;
}
);
leftKerningGroup = _kern11;
rightKerningGroup = _kern13;
unicode = 0446;
},
{
color = (166, 255, 153, 255);
glyphname = uni0447;
layers = (
{
layerId = "9D659DC9-364F-48BE-86F1-3EC0559472C9";
paths = (
{
closed = 1;
nodes = (
"39 527 LINE",
"153 527 LINE",
"153 423 LINE",
"153 383 OFFCURVE",
"160 329 OFFCURVE",
"184 294 OFFCURVE",
"230 279 OFFCURVE",
"269 279 QCURVE",
"294 279 OFFCURVE",
"352 284 OFFCURVE",
"371 287 QCURVE",
"371 527 LINE",
"484 527 LINE",
"484 0 LINE",
"371 0 LINE",
"371 188 LINE",
"349 185 OFFCURVE",
"299 181 OFFCURVE",
"270 180 OFFCURVE",
"238 180 QCURVE",
"190 181 OFFCURVE",
"116 204 OFFCURVE",
"65 253 OFFCURVE",
"39 335 OFFCURVE",
"39 395 QCURVE"
);
}
);
width = 547;
}
);
leftKerningGroup = _kern11;
unicode = 0447;
},
{
color = (166, 255, 153, 255);
glyphname = uni0448;
layers = (
{
layerId = "9D659DC9-364F-48BE-86F1-3EC0559472C9";
paths = (
{
closed = 1;
nodes = (
"62 527 LINE",
"176 527 LINE",
"176 97 LINE",
"352 97 LINE",
"352 527 LINE",
"465 527 LINE",
"465 97 LINE",
"642 97 LINE",
"642 527 LINE",
"756 527 LINE",
"756 0 LINE",
"62 0 LINE"
);
}
);
width = 818;
}
);
leftKerningGroup = _kern11;
unicode = 0448;
},
{
color = (166, 255, 153, 255);
glyphname = uni0449;
layers = (
{
layerId = "9D659DC9-364F-48BE-86F1-3EC0559472C9";
paths = (
{
closed = 1;
nodes = (
"62 527 LINE",
"176 527 LINE",
"176 97 LINE",
"352 97 LINE",
"352 527 LINE",
"465 527 LINE",
"465 97 LINE",
"642 97 LINE",
"642 527 LINE",
"756 527 LINE",
"756 97 LINE",
"826 97 LINE",
"826 -154 LINE",
"716 -154 LINE",
"716 0 LINE",
"62 0 LINE"
);
}
);
width = 843;
}
);
leftKerningGroup = _kern11;
rightKerningGroup = _kern13;
unicode = 0449;
},
{
color = (166, 255, 153, 255);
glyphname = uni044A;
layers = (
{
layerId = "9D659DC9-364F-48BE-86F1-3EC0559472C9";
paths = (
{
closed = 1;
nodes = (
"136 428 LINE",
"9 428 LINE",
"9 527 LINE",
"250 527 LINE",
"250 349 LINE",
"367 349 LINE",
"411 349 OFFCURVE",
"486 333 OFFCURVE",
"541 294 OFFCURVE",
"572 231 OFFCURVE",
"572 185 QCURVE",
"572 131 OFFCURVE",
"534 59 OFFCURVE",
"471 17 OFFCURVE",
"392 0 OFFCURVE",
"352 0 QCURVE",
"136 0 LINE"
);
},
{
closed = 1;
nodes = (
"345 96 LINE",
"366 96 OFFCURVE",
"407 104 OFFCURVE",
"439 122 OFFCURVE",
"459 153 OFFCURVE",
"459 177 QCURVE",
"459 205 OFFCURVE",
"434 236 OFFCURVE",
"396 249 OFFCURVE",
"354 251 OFFCURVE",
"337 251 QCURVE",
"250 251 LINE",
"250 96 LINE"
);
}
);
width = 607;
}
);
unicode = 044A;
},
{
color = (166, 255, 153, 255);
glyphname = uni044B;
layers = (
{
layerId = "9D659DC9-364F-48BE-86F1-3EC0559472C9";
paths = (
{
closed = 1;
nodes = (
"62 527 LINE",
"177 527 LINE",
"177 349 LINE",
"272 349 LINE",
"316 349 OFFCURVE",
"392 333 OFFCURVE",
"447 294 OFFCURVE",
"479 230 OFFCURVE",
"479 182 QCURVE",
"479 128 OFFCURVE",
"439 57 OFFCURVE",
"375 16 OFFCURVE",
"295 0 OFFCURVE",
"256 0 QCURVE",
"62 0 LINE"
);
},
{
closed = 1;
nodes = (
"547 0 LINE",
"547 527 LINE",
"660 527 LINE",
"660 0 LINE"
);
},
{
closed = 1;
nodes = (
"246 95 LINE",
"268 95 OFFCURVE",
"312 102 OFFCURVE",
"346 119 OFFCURVE",
"366 151 OFFCURVE",
"366 177 QCURVE",
"366 199 OFFCURVE",
"351 227 OFFCURVE",
"326 244 OFFCURVE",
"294 250 OFFCURVE",
"278 251 QCURVE",
"177 251 LINE",
"177 96 LINE"
);
}
);
width = 723;
}
);
leftKerningGroup = _kern11;
unicode = 044B;
},
{
color = (166, 255, 153, 255);
glyphname = uni044C;
layers = (
{
layerId = "9D659DC9-364F-48BE-86F1-3EC0559472C9";
paths = (
{
closed = 1;
nodes = (
"62 527 LINE",
"176 527 LINE",
"176 349 LINE",
"294 349 LINE",
"340 349 OFFCURVE",
"415 334 OFFCURVE",
"470 294 OFFCURVE",
"501 230 OFFCURVE",
"501 183 QCURVE",
"501 130 OFFCURVE",
"462 59 OFFCURVE",
"399 17 OFFCURVE",
"319 0 OFFCURVE",
"278 0 QCURVE",
"62 0 LINE"
);
},
{
closed = 1;
nodes = (
"265 95 LINE",
"288 95 OFFCURVE",
"333 102 OFFCURVE",
"366 119 OFFCURVE",
"387 151 OFFCURVE",
"388 177 QCURVE",
"388 205 OFFCURVE",
"364 235 OFFCURVE",
"328 249 OFFCURVE",
"285 251 OFFCURVE",
"267 251 QCURVE",
"176 251 LINE",
"176 96 LINE"
);
}
);
width = 541;
}
);
leftKerningGroup = _kern11;
unicode = 044C;
},
{
color = (166, 255, 153, 255);
glyphname = uni044E;
layers = (
{
layerId = "9D659DC9-364F-48BE-86F1-3EC0559472C9";
paths = (
{
closed = 1;
nodes = (
"563 536 OFFCURVE",
"657 496 OFFCURVE",
"722 424 OFFCURVE",
"755 324 OFFCURVE",
"755 263 QCURVE",
"755 201 OFFCURVE",
"723 102 OFFCURVE",
"659 31 OFFCURVE",
"564 -7 OFFCURVE",
"500 -7 QCURVE",
"386 -7 OFFCURVE",
"264 112 OFFCURVE",
"253 214 QCURVE",
"176 214 LINE",
"176 0 LINE",
"62 0 LINE",
"62 527 LINE",
"176 527 LINE",
"176 313 LINE",
"253 313 LINE",
"265 414 OFFCURVE",
"387 536 OFFCURVE",
"500 536 QCURVE"
);
},
{
closed = 1;
nodes = (
"538 92 OFFCURVE",
"592 119 OFFCURVE",
"627 164 OFFCURVE",
"643 225 OFFCURVE",
"643 261 QCURVE",
"643 297 OFFCURVE",
"627 361 OFFCURVE",
"593 407 OFFCURVE",
"539 434 OFFCURVE",
"500 434 QCURVE",
"462 434 OFFCURVE",
"408 407 OFFCURVE",
"374 361 OFFCURVE",
"359 297 OFFCURVE",
"359 261 QCURVE",
"359 225 OFFCURVE",
"375 164 OFFCURVE",
"409 119 OFFCURVE",
"462 92 OFFCURVE",
"500 92 QCURVE"
);
}
);
width = 793;
}
);
leftKerningGroup = _kern11;
rightKerningGroup = _kern10;
unicode = 044E;
},
{
color = (166, 255, 153, 255);
glyphname = uni044F;
layers = (
{
layerId = "9D659DC9-364F-48BE-86F1-3EC0559472C9";
paths = (
{
closed = 1;
nodes = (
"494 0 LINE",
"381 0 LINE",
"381 180 LINE",
"286 180 LINE",
"163 0 LINE",
"29 0 LINE",
"172 198 LINE",
"111 213 OFFCURVE",
"48 293 OFFCURVE",
"48 355 QCURVE",
"48 404 OFFCURVE",
"81 470 OFFCURVE",
"140 511 OFFCURVE",
"216 527 OFFCURVE",
"260 527 QCURVE",
"494 527 LINE"
);
},
{
closed = 1;
nodes = (
"381 432 LINE",
"268 432 LINE",
"249 432 OFFCURVE",
"211 427 OFFCURVE",
"180 410 OFFCURVE",
"162 380 OFFCURVE",
"162 359 QCURVE",
"162 356 OFFCURVE",
"162 354 QCURVE",
"162 328 OFFCURVE",
"192 292 OFFCURVE",
"240 277 OFFCURVE",
"280 274 OFFCURVE",
"300 274 QCURVE",
"381 274 LINE"
);
}
);
width = 557;
}
);
leftKerningGroup = _kern11;
unicode = 044F;
},
{
color = (166, 255, 153, 255);
glyphname = uni0410;
layers = (
{
layerId = "9D659DC9-364F-48BE-86F1-3EC0559472C9";
paths = (
{
closed = 1;
nodes = (
"418 707 LINE",
"684 0 LINE",
"557 0 LINE",
"505 143 LINE",
"184 143 LINE",
"131 0 LINE",
"5 0 LINE",
"273 707 LINE"
);
},
{
closed = 1;
nodes = (
"469 247 LINE",
"345 592 LINE",
"220 247 LINE"
);
}
);
width = 689;
}
);
leftKerningGroup = _kern30;
rightKerningGroup = _kern30;
unicode = 0410;
},
{
color = (166, 255, 153, 255);
glyphname = uni0415;
layers = (
{
layerId = "9D659DC9-364F-48BE-86F1-3EC0559472C9";
paths = (
{
closed = 1;
nodes = (
"82 0 LINE",
"82 707 LINE",
"573 707 LINE",
"573 603 LINE",
"198 603 LINE",
"198 402 LINE",
"530 402 LINE",
"530 297 LINE",
"198 297 LINE",
"198 103 LINE",
"573 103 LINE",
"573 0 LINE"
);
}
);
width = 616;
}
);
unicode = 0415;
},
{
color = (166, 255, 153, 255);
glyphname = uni041C;
layers = (
{
layerId = "9D659DC9-364F-48BE-86F1-3EC0559472C9";
paths = (
{
closed = 1;
nodes = (
"82 0 LINE",
"82 707 LINE",
"228 707 LINE",
"439 345 LINE",
"648 707 LINE",
"790 707 LINE",
"790 0 LINE",
"675 0 LINE",
"675 551 LINE",
"462 184 LINE",
"410 184 LINE",
"197 551 LINE",
"197 0 LINE"
);
}
);
width = 872;
}
);
unicode = 041C;
},
{
color = (166, 255, 153, 255);
glyphname = uni041D;
layers = (
{
layerId = "9D659DC9-364F-48BE-86F1-3EC0559472C9";
paths = (
{
closed = 1;
nodes = (
"198 400 LINE",
"537 400 LINE",
"537 707 LINE",
"653 707 LINE",
"653 0 LINE",
"537 0 LINE",
"537 296 LINE",
"198 296 LINE",
"198 0 LINE",
"82 0 LINE",
"82 707 LINE",
"198 707 LINE"
);
}
);
width = 735;
}
);
unicode = 041D;
},
{
color = (166, 255, 153, 255);
glyphname = uni0420;
layers = (
{
layerId = "9D659DC9-364F-48BE-86F1-3EC0559472C9";
paths = (
{
closed = 1;
nodes = (
"82 0 LINE",
"82 707 LINE",
"341 707 LINE",
"402 707 OFFCURVE",
"499 680 OFFCURVE",
"567 622 OFFCURVE",
"604 531 OFFCURVE",
"604 468 QCURVE",
"604 410 OFFCURVE",
"566 318 OFFCURVE",
"496 255 OFFCURVE",
"397 221 OFFCURVE",
"336 221 QCURVE",
"197 221 LINE",
"197 0 LINE"
);
},
{
closed = 1;
nodes = (
"197 324 LINE",
"330 324 LINE",
"363 324 OFFCURVE",
"420 340 OFFCURVE",
"462 374 OFFCURVE",
"487 426 OFFCURVE",
"488 462 QCURVE",
"488 537 OFFCURVE",
"411 603 OFFCURVE",
"337 603 QCURVE",
"197 603 LINE"
);
}
);
width = 643;
}
);
unicode = 0420;
},
{
color = (166, 255, 153, 255);
glyphname = uni0422;
layers = (
{
layerId = "9D659DC9-364F-48BE-86F1-3EC0559472C9";
paths = (
{
closed = 1;
nodes = (
"350 0 LINE",
"234 0 LINE",
"234 603 LINE",
"9 603 LINE",
"9 707 LINE",
"574 707 LINE",
"574 603 LINE",
"350 603 LINE"
);
}
);
width = 583;
}
);
leftKerningGroup = _kern28;
rightKerningGroup = _kern28;
unicode = 0422;
},
{
color = (166, 255, 153, 255);
glyphname = uni0425;
layers = (
{
layerId = "9D659DC9-364F-48BE-86F1-3EC0559472C9";
paths = (
{
closed = 1;
nodes = (
"477 707 LINE",
"613 707 LINE",
"386 355 LINE",
"620 0 LINE",
"482 0 LINE",
"313 264 LINE",
"140 0 LINE",
"9 0 LINE",
"244 354 LINE",
"16 707 LINE",
"154 707 LINE",
"316 444 LINE"
);
}
);
width = 629;
}
);
unicode = 0425;
},
{
color = (166, 255, 153, 255);
glyphname = T;
layers = (
{
layerId = "9D659DC9-364F-48BE-86F1-3EC0559472C9";
paths = (
{
closed = 1;
nodes = (
"233 0 LINE",
"233 603 LINE",
"9 603 LINE",
"9 707 LINE",
"574 707 LINE",
"574 603 LINE",
"349 603 LINE",
"349 0 LINE"
);
}
);
width = 583;
}
);
leftKerningGroup = _kern28;
rightKerningGroup = _kern28;
unicode = 0054;
},
{
color = (166, 255, 153, 255);
glyphname = uni0412;
layers = (
{
layerId = "9D659DC9-364F-48BE-86F1-3EC0559472C9";
paths = (
{
closed = 1;
nodes = (
"81 0 LINE",
"81 707 LINE",
"362 707 LINE",
"407 707 OFFCURVE",
"490 691 OFFCURVE",
"553 651 OFFCURVE",
"591 583 OFFCURVE",
"591 530 QCURVE",
"591 479 OFFCURVE",
"549 399 OFFCURVE",
"501 376 QCURVE",
"566 360 OFFCURVE",
"626 271 OFFCURVE",
"626 207 QCURVE",
"626 140 OFFCURVE",
"572 59 OFFCURVE",
"488 15 OFFCURVE",
"387 0 OFFCURVE",
"341 0 QCURVE"
);
},
{
closed = 1;
nodes = (
"197 603 LINE",
"197 409 LINE",
"332 409 LINE",
"357 409 OFFCURVE",
"410 417 OFFCURVE",
"452 440 OFFCURVE",
"479 479 OFFCURVE",
"479 511 QCURVE",
"479 542 OFFCURVE",
"457 579 OFFCURVE",
"421 598 OFFCURVE",
"374 603 OFFCURVE",
"349 603 QCURVE"
);
},
{
closed = 1;
nodes = (
"197 103 LINE",
"339 103 LINE",
"366 103 OFFCURVE",
"427 110 OFFCURVE",
"477 133 OFFCURVE",
"510 175 OFFCURVE",
"510 211 QCURVE",
"510 241 OFFCURVE",
"485 280 OFFCURVE",
"445 301 OFFCURVE",
"396 309 OFFCURVE",
"371 309 QCURVE",
"349 309 OFFCURVE",
"327 309 QCURVE",
"241 308 LINE",
"219 308 OFFCURVE",
"197 308 QCURVE"
);
}
);
width = 670;
}
);
unicode = 0412;
},
{
color = (166, 255, 153, 255);
glyphname = uni041F;
layers = (
{
layerId = "9D659DC9-364F-48BE-86F1-3EC0559472C9";
paths = (
{
closed = 1;
nodes = (
"656 0 LINE",
"540 0 LINE",
"540 603 LINE",
"198 603 LINE",
"198 0 LINE",
"82 0 LINE",
"82 707 LINE",
"656 707 LINE"
);
}
);
width = 738;
}
);
unicode = 041F;
},
{
color = (166, 255, 153, 255);
glyphname = uni0413;
layers = (
{
layerId = "9D659DC9-364F-48BE-86F1-3EC0559472C9";
paths = (
{
closed = 1;
nodes = (
"82 0 LINE",
"82 707 LINE",
"555 707 LINE",
"555 603 LINE",
"198 603 LINE",
"198 0 LINE"
);
}
);
width = 579;
}
);
leftKerningGroup = _kern23;
rightKerningGroup = _kern23;
unicode = 0413;
},
{
color = (166, 255, 153, 255);
glyphname = uni041B;
layers = (
{
layerId = "9D659DC9-364F-48BE-86F1-3EC0559472C9";
paths = (
{
closed = 1;
nodes = (
"505 0 LINE",
"505 603 LINE",
"247 603 LINE",
"246 572 OFFCURVE",
"246 521 OFFCURVE",
"245 453 OFFCURVE",
"243 367 OFFCURVE",
"241 310 QCURVE",
"241 283 OFFCURVE",
"238 226 OFFCURVE",
"231 170 OFFCURVE",
"220 120 OFFCURVE",
"210 100 QCURVE",
"183 45 OFFCURVE",
"91 -4 OFFCURVE",
"14 -4 QCURVE",
"14 102 LINE",
"52 102 OFFCURVE",
"97 146 OFFCURVE",
"120 217 OFFCURVE",
"127 308 OFFCURVE",
"129 355 QCURVE",
"130 419 OFFCURVE",
"132 518 OFFCURVE",
"134 600 OFFCURVE",
"134 671 OFFCURVE",
"135 707 QCURVE",
"621 707 LINE",
"621 0 LINE"
);
}
);
width = 703;
}
);
unicode = 041B;
},
{
color = (166, 255, 153, 255);
glyphname = uni0414;
layers = (
{
layerId = "9D659DC9-364F-48BE-86F1-3EC0559472C9";
paths = (
{
closed = 1;
nodes = (
"17 -187 LINE",
"17 103 LINE",
"25 103 LINE",
"56 103 OFFCURVE",
"95 136 OFFCURVE",
"119 194 OFFCURVE",
"130 271 OFFCURVE",
"133 316 QCURVE",
"139 416 OFFCURVE",
"142 607 OFFCURVE",
"144 707 QCURVE",
"625 707 LINE",
"625 103 LINE",
"710 103 LINE",
"710 -187 LINE",
"595 -187 LINE",
"595 0 LINE",
"132 0 LINE",
"132 -187 LINE"
);
},
{
closed = 1;
nodes = (
"509 103 LINE",
"509 603 LINE",
"254 603 LINE",
"247 352 LINE",
"246 328 OFFCURVE",
"243 265 OFFCURVE",
"236 198 OFFCURVE",
"222 131 OFFCURVE",
"211 103 QCURVE"
);
}
);
width = 727;
}
);
rightKerningGroup = _kern12;
unicode = 0414;
},
{
color = (166, 255, 153, 255);
glyphname = uni0411;
layers = (
{
layerId = "9D659DC9-364F-48BE-86F1-3EC0559472C9";
paths = (
{
closed = 1;
nodes = (
"82 707 LINE",
"579 707 LINE",
"579 603 LINE",
"198 603 LINE",
"198 426 LINE",
"360 426 LINE",
"418 426 OFFCURVE",
"515 407 OFFCURVE",
"582 359 OFFCURVE",
"619 280 OFFCURVE",
"619 222 QCURVE",
"619 158 OFFCURVE",
"572 72 OFFCURVE",
"494 21 OFFCURVE",
"394 0 OFFCURVE",
"340 0 QCURVE",
"82 0 LINE"
);
},
{
closed = 1;
nodes = (
"198 103 LINE",
"332 103 LINE",
"364 103 OFFCURVE",
"426 110 OFFCURVE",
"474 134 OFFCURVE",
"504 180 OFFCURVE",
"504 219 QCURVE",
"504 255 OFFCURVE",
"476 297 OFFCURVE",
"431 318 OFFCURVE",
"373 323 OFFCURVE",
"343 323 QCURVE",
"198 323 LINE"
);
}
);
width = 669;
}
);
unicode = 0411;
},
{
color = (166, 255, 153, 255);
glyphname = uni0416;
layers = (
{
layerId = "9D659DC9-364F-48BE-86F1-3EC0559472C9";
paths = (
{
closed = 1;
nodes = (
"396 0 LINE",
"396 297 LINE",
"300 297 LINE",
"141 0 LINE",
"9 0 LINE",
"60 91 OFFCURVE",
"158 272 OFFCURVE",
"208 363 QCURVE",
"11 707 LINE",
"142 707 LINE",
"307 401 LINE",
"396 401 LINE",
"396 707 LINE",
"512 707 LINE",
"512 401 LINE",
"602 401 LINE",
"767 707 LINE",
"897 707 LINE",
"700 363 LINE",
"899 0 LINE",
"767 0 LINE",
"608 297 LINE",
"512 297 LINE",
"512 0 LINE"
);
}
);
width = 908;
}
);
unicode = 0416;
},
{
color = (166, 255, 153, 255);
glyphname = uni0417;
layers = (
{
layerId = "9D659DC9-364F-48BE-86F1-3EC0559472C9";
paths = (
{
closed = 1;
nodes = (
"295 -7 OFFCURVE",
"202 5 OFFCURVE",
"112 48 OFFCURVE",
"45 130 OFFCURVE",
"39 199 QCURVE",
"152 199 LINE",
"156 164 OFFCURVE",
"199 123 OFFCURVE",
"251 103 OFFCURVE",
"309 97 OFFCURVE",
"331 97 QCURVE",
"356 97 OFFCURVE",
"411 106 OFFCURVE",
"456 130 OFFCURVE",
"486 174 OFFCURVE",
"486 209 QCURVE",
"486 246 OFFCURVE",
"454 287 OFFCURVE",
"407 306 OFFCURVE",
"352 310 OFFCURVE",
"328 310 QCURVE",
"238 310 LINE",
"238 409 LINE",
"318 409 LINE",
"342 410 OFFCURVE",
"392 420 OFFCURVE",
"432 443 OFFCURVE",
"458 482 OFFCURVE",
"460 512 QCURVE",
"460 543 OFFCURVE",
"433 582 OFFCURVE",
"392 604 OFFCURVE",
"342 612 OFFCURVE",
"318 612 QCURVE",
"291 612 OFFCURVE",
"238 601 OFFCURVE",
"196 577 OFFCURVE",
"170 541 OFFCURVE",
"169 516 QCURVE",
"56 516 LINE",
"56 568 OFFCURVE",
"99 643 OFFCURVE",
"172 692 OFFCURVE",
"268 715 OFFCURVE",
"321 715 QCURVE",
"368 715 OFFCURVE",
"458 698 OFFCURVE",
"529 656 OFFCURVE",
"573 585 OFFCURVE",
"573 531 QCURVE",
"573 511 OFFCURVE",
"564 468 OFFCURVE",
"543 428 OFFCURVE",
"506 391 OFFCURVE",
"479 377 QCURVE",
"539 362 OFFCURVE",
"602 271 OFFCURVE",
"602 209 QCURVE",
"602 149 OFFCURVE",
"555 66 OFFCURVE",
"478 15 OFFCURVE",
"378 -7 OFFCURVE",
"326 -7 QCURVE"
);
}
);
width = 646;
}
);
leftKerningGroup = _kern7;
rightKerningGroup = _kern8;
unicode = 0417;
},
{
color = (166, 255, 153, 255);
glyphname = uni0418;
layers = (
{
layerId = "9D659DC9-364F-48BE-86F1-3EC0559472C9";
paths = (
{
closed = 1;
nodes = (
"82 0 LINE",
"82 707 LINE",
"198 707 LINE",
"198 188 LINE",
"561 707 LINE",
"665 707 LINE",
"665 0 LINE",
"549 0 LINE",
"549 514 LINE",
"186 0 LINE"
);
}
);
width = 747;
}
);
unicode = 0418;
},
{
color = (166, 255, 153, 255);
glyphname = uni0419;
layers = (
{
layerId = "9D659DC9-364F-48BE-86F1-3EC0559472C9";
paths = (
{
closed = 1;
nodes = (
"416 848 OFFCURVE",
"462 884 OFFCURVE",
"466 917 QCURVE",
"569 917 LINE",
"562 840 OFFCURVE",
"462 761 OFFCURVE",
"378 761 QCURVE",
"294 761 OFFCURVE",
"194 840 OFFCURVE",
"188 917 QCURVE",
"291 917 LINE",
"296 883 OFFCURVE",
"341 848 OFFCURVE",
"379 848 QCURVE"
);
},
{
closed = 1;
nodes = (
"82 0 LINE",
"82 707 LINE",
"198 707 LINE",
"198 188 LINE",
"561 707 LINE",
"665 707 LINE",
"665 0 LINE",
"549 0 LINE",
"549 514 LINE",
"186 0 LINE"
);
}
);
width = 747;
}
);
unicode = 0419;
},
{
color = (166, 255, 153, 255);
glyphname = uni041A;
layers = (
{
layerId = "9D659DC9-364F-48BE-86F1-3EC0559472C9";
paths = (
{
closed = 1;
nodes = (
"198 0 LINE",
"82 0 LINE",
"82 707 LINE",
"198 707 LINE",
"198 398 LINE",
"289 398 LINE",
"507 707 LINE",
"640 707 LINE",
"388 364 LINE",
"643 0 LINE",
"508 0 LINE",
"300 295 LINE",
"198 295 LINE"
);
}
);
width = 652;
}
);
unicode = 041A;
},
{
color = (166, 255, 153, 255);
glyphname = uni0423;
layers = (
{
layerId = "9D659DC9-364F-48BE-86F1-3EC0559472C9";
paths = (
{
closed = 1;
nodes = (
"334 315 LINE",
"335 318 OFFCURVE",
"338 327 OFFCURVE",
"348 353 OFFCURVE",
"368 403 OFFCURVE",
"402 488 OFFCURVE",
"453 615 OFFCURVE",
"490 707 QCURVE",
"618 707 LINE",
"398 190 LINE",
"380 151 OFFCURVE",
"331 74 OFFCURVE",
"295 47 QCURVE",
"259 20 OFFCURVE",
"167 0 OFFCURVE",
"103 0 QCURVE",
"103 105 LINE",
"124 105 OFFCURVE",
"168 107 OFFCURVE",
"213 124 OFFCURVE",
"255 160 OFFCURVE",
"273 194 QCURVE",
"10 707 LINE",
"145 707 LINE"
);
}
);
width = 612;
}
);
unicode = 0423;
},
{
color = (166, 255, 153, 255);
glyphname = uni0424;
layers = (
{
layerId = "9D659DC9-364F-48BE-86F1-3EC0559472C9";
paths = (
{
closed = 1;
nodes = (
"368 -13 LINE",
"368 100 LINE",
"310 100 LINE",
"247 100 OFFCURVE",
"148 139 OFFCURVE",
"79 210 OFFCURVE",
"43 310 OFFCURVE",
"43 372 QCURVE",
"43 436 OFFCURVE",
"82 536 OFFCURVE",
"154 605 OFFCURVE",
"254 641 OFFCURVE",
"315 641 QCURVE",
"368 641 LINE",
"368 743 LINE",
"484 743 LINE",
"484 641 LINE",
"534 641 LINE",
"595 641 OFFCURVE",
"695 605 OFFCURVE",
"768 537 OFFCURVE",
"808 438 OFFCURVE",
"809 375 QCURVE",
"809 312 OFFCURVE",
"772 211 OFFCURVE",
"704 139 OFFCURVE",
"605 100 OFFCURVE",
"542 100 QCURVE",
"484 100 LINE",
"484 -13 LINE"
);
},
{
closed = 1;
nodes = (
"318 544 LINE",
"240 544 OFFCURVE",
"158 451 OFFCURVE",
"158 377 QCURVE",
"158 338 OFFCURVE",
"177 272 OFFCURVE",
"217 224 OFFCURVE",
"277 198 OFFCURVE",
"318 198 QCURVE",
"368 198 LINE",
"368 544 LINE"
);
},
{
closed = 1;
nodes = (
"484 198 LINE",
"536 198 LINE",
"577 198 OFFCURVE",
"637 225 OFFCURVE",
"676 271 OFFCURVE",
"694 335 OFFCURVE",
"694 373 QCURVE",
"694 410 OFFCURVE",
"672 473 OFFCURVE",
"630 519 OFFCURVE",
"570 544 OFFCURVE",
"532 544 QCURVE",
"484 544 LINE"
);
}
);
width = 852;
}
);
leftKerningGroup = _kern7;
rightKerningGroup = _kern8;
unicode = 0424;
},
{
color = (166, 255, 153, 255);
glyphname = uni0426;
layers = (
{
layerId = "9D659DC9-364F-48BE-86F1-3EC0559472C9";
paths = (
{
closed = 1;
nodes = (
"82 0 LINE",
"82 707 LINE",
"198 707 LINE",
"198 103 LINE",
"523 103 LINE",
"523 707 LINE",
"638 707 LINE",
"638 103 LINE",
"723 103 LINE",
"723 -187 LINE",
"608 -187 LINE",
"608 0 LINE"
);
}
);
width = 737;
}
);
rightKerningGroup = _kern12;
unicode = 0426;
},
{
color = (166, 255, 153, 255);
glyphname = uni0427;
layers = (
{
layerId = "9D659DC9-364F-48BE-86F1-3EC0559472C9";
paths = (
{
closed = 1;
nodes = (
"371 343 OFFCURVE",
"439 348 OFFCURVE",
"480 354 QCURVE",
"480 707 LINE",
"596 707 LINE",
"596 0 LINE",
"480 0 LINE",
"480 250 LINE",
"446 244 OFFCURVE",
"365 238 OFFCURVE",
"327 238 QCURVE",
"262 238 OFFCURVE",
"163 261 OFFCURVE",
"94 315 OFFCURVE",
"59 404 OFFCURVE",
"59 470 QCURVE",
"59 707 LINE",
"175 707 LINE",
"175 492 LINE",
"175 446 OFFCURVE",
"194 389 OFFCURVE",
"234 356 OFFCURVE",
"294 344 OFFCURVE",
"336 343 QCURVE"
);
}
);
width = 678;
}
);
unicode = 0427;
},
{
color = (166, 255, 153, 255);
glyphname = uni0428;
layers = (
{
layerId = "9D659DC9-364F-48BE-86F1-3EC0559472C9";
paths = (
{
closed = 1;
nodes = (
"82 707 LINE",
"198 707 LINE",
"198 103 LINE",
"437 103 LINE",
"437 707 LINE",
"553 707 LINE",
"553 103 LINE",
"792 103 LINE",
"792 707 LINE",
"908 707 LINE",
"908 0 LINE",
"82 0 LINE"
);
}
);
width = 990;
}
);
unicode = 0428;
},
{
color = (166, 255, 153, 255);
glyphname = uni0429;
layers = (
{
layerId = "9D659DC9-364F-48BE-86F1-3EC0559472C9";
paths = (
{
closed = 1;
nodes = (
"82 707 LINE",
"197 707 LINE",
"197 103 LINE",
"437 103 LINE",
"437 707 LINE",
"552 707 LINE",
"552 103 LINE",
"791 103 LINE",
"791 707 LINE",
"907 707 LINE",
"907 103 LINE",
"992 103 LINE",
"992 -187 LINE",
"877 -187 LINE",
"877 0 LINE",
"82 0 LINE"
);
}
);
width = 1006;
}
);
rightKerningGroup = _kern12;
unicode = 0429;
},
{
color = (166, 255, 153, 255);
glyphname = uni042A;
layers = (
{
layerId = "9D659DC9-364F-48BE-86F1-3EC0559472C9";
paths = (
{
closed = 1;
nodes = (
"174 603 LINE",
"9 603 LINE",
"9 707 LINE",
"290 707 LINE",
"290 434 LINE",
"447 434 LINE",
"502 434 OFFCURVE",
"596 413 OFFCURVE",
"665 365 OFFCURVE",
"705 285 OFFCURVE",
"705 225 QCURVE",
"705 160 OFFCURVE",
"661 74 OFFCURVE",
"585 22 OFFCURVE",
"482 0 OFFCURVE",
"424 0 QCURVE",
"174 0 LINE"
);
},
{
closed = 1;
nodes = (
"290 103 LINE",
"418 103 LINE",
"450 103 OFFCURVE",
"512 111 OFFCURVE",
"560 137 OFFCURVE",
"590 183 OFFCURVE",
"590 222 QCURVE",
"590 258 OFFCURVE",
"562 301 OFFCURVE",
"517 324 OFFCURVE",
"460 330 OFFCURVE",
"430 330 QCURVE",
"290 330 LINE"
);
}
);
width = 750;
}
);
unicode = 042A;
},
{
color = (166, 255, 153, 255);
glyphname = uni042B;
layers = (
{
layerId = "9D659DC9-364F-48BE-86F1-3EC0559472C9";
paths = (
{
closed = 1;
nodes = (
"82 707 LINE",
"197 707 LINE",
"197 434 LINE",
"329 434 LINE",
"384 434 OFFCURVE",
"478 414 OFFCURVE",
"547 364 OFFCURVE",
"587 284 OFFCURVE",
"587 225 QCURVE",
"587 160 OFFCURVE",
"543 74 OFFCURVE",
"468 22 OFFCURVE",
"365 0 OFFCURVE",
"307 0 QCURVE",
"82 0 LINE"
);
},
{
closed = 1;
nodes = (
"684 0 LINE",
"684 707 LINE",
"800 707 LINE",
"800 0 LINE"
);
},
{
closed = 1;
nodes = (
"197 103 LINE",
"300 103 LINE",
"332 103 OFFCURVE",
"394 111 OFFCURVE",
"442 137 OFFCURVE",
"472 183 OFFCURVE",
"472 222 QCURVE",
"472 259 OFFCURVE",
"445 302 OFFCURVE",
"400 324 OFFCURVE",
"342 330 OFFCURVE",
"312 330 QCURVE",
"197 330 LINE"
);
}
);
width = 882;
}
);
unicode = 042B;
},
{
color = (166, 255, 153, 255);
glyphname = uni042C;
layers = (
{
layerId = "9D659DC9-364F-48BE-86F1-3EC0559472C9";
paths = (
{
closed = 1;
nodes = (
"81 707 LINE",
"197 707 LINE",
"197 434 LINE",
"353 434 LINE",
"408 434 OFFCURVE",
"502 414 OFFCURVE",
"571 365 OFFCURVE",
"610 285 OFFCURVE",
"611 225 QCURVE",
"611 160 OFFCURVE",
"566 74 OFFCURVE",
"490 22 OFFCURVE",
"388 0 OFFCURVE",
"330 0 QCURVE",
"81 0 LINE"
);
},
{
closed = 1;
nodes = (
"197 103 LINE",
"325 103 LINE",
"356 103 OFFCURVE",
"418 111 OFFCURVE",
"466 136 OFFCURVE",
"496 182 OFFCURVE",
"496 220 QCURVE",
"496 257 OFFCURVE",
"469 301 OFFCURVE",
"424 323 OFFCURVE",
"366 330 OFFCURVE",
"335 330 QCURVE",
"197 330 LINE"
);
}
);
width = 656;
}
);
unicode = 042C;
},
{
color = (166, 255, 153, 255);
glyphname = uni042D;
layers = (
{
layerId = "9D659DC9-364F-48BE-86F1-3EC0559472C9";
paths = (
{
closed = 1;
nodes = (
"275 612 OFFCURVE",
"179 551 OFFCURVE",
"165 499 QCURVE",
"50 499 LINE",
"59 553 OFFCURVE",
"113 635 OFFCURVE",
"193 689 OFFCURVE",
"293 716 OFFCURVE",
"347 716 QCURVE",
"431 716 OFFCURVE",
"553 659 OFFCURVE",
"632 561 OFFCURVE",
"670 427 OFFCURVE",
"670 351 QCURVE",
"670 274 OFFCURVE",
"629 143 OFFCURVE",
"547 47 OFFCURVE",
"423 -7 OFFCURVE",
"341 -7 QCURVE",
"287 -7 OFFCURVE",
"187 18 OFFCURVE",
"107 71 OFFCURVE",
"52 152 OFFCURVE",
"43 208 QCURVE",
"161 208 LINE",
"169 178 OFFCURVE",
"206 135 OFFCURVE",
"255 109 OFFCURVE",
"313 97 OFFCURVE",
"343 97 QCURVE",
"391 97 OFFCURVE",
"466 128 OFFCURVE",
"518 183 OFFCURVE",
"546 259 OFFCURVE",
"548 303 QCURVE",
"247 303 LINE",
"247 404 LINE",
"548 404 LINE",
"545 446 OFFCURVE",
"517 522 OFFCURVE",
"467 579 OFFCURVE",
"393 612 OFFCURVE",
"344 612 QCURVE"
);
}
);
width = 713;
}
);
leftKerningGroup = _kern7;
rightKerningGroup = _kern8;
unicode = 042D;
},
{
color = (166, 255, 153, 255);
glyphname = uni042E;
layers = (
{
layerId = "9D659DC9-364F-48BE-86F1-3EC0559472C9";
paths = (
{
closed = 1;
nodes = (
"82 0 LINE",
"82 707 LINE",
"198 707 LINE",
"198 403 LINE",
"299 403 LINE",
"305 471 OFFCURVE",
"352 586 OFFCURVE",
"435 669 OFFCURVE",
"552 715 OFFCURVE",
"628 715 QCURVE",
"710 715 OFFCURVE",
"836 661 OFFCURVE",
"922 565 OFFCURVE",
"965 433 OFFCURVE",
"965 355 QCURVE",
"965 277 OFFCURVE",
"921 145 OFFCURVE",
"836 48 OFFCURVE",
"710 -7 OFFCURVE",
"628 -7 QCURVE",
"553 -7 OFFCURVE",
"437 38 OFFCURVE",
"354 119 OFFCURVE",
"306 231 OFFCURVE",
"300 299 QCURVE",
"198 299 LINE",
"198 0 LINE"
);
},
{
closed = 1;
nodes = (
"571 611 OFFCURVE",
"490 569 OFFCURVE",
"439 498 OFFCURVE",
"415 405 OFFCURVE",
"415 354 QCURVE",
"415 303 OFFCURVE",
"438 210 OFFCURVE",
"489 139 OFFCURVE",
"570 97 OFFCURVE",
"627 97 QCURVE",
"684 97 OFFCURVE",
"766 139 OFFCURVE",
"820 209 OFFCURVE",
"846 302 OFFCURVE",
"846 347 QCURVE",
"846 351 OFFCURVE",
"846 354 QCURVE",
"846 405 OFFCURVE",
"820 498 OFFCURVE",
"767 569 OFFCURVE",
"684 611 OFFCURVE",
"627 611 QCURVE"
);
}
);
width = 1008;
}
);
rightKerningGroup = _kern8;
unicode = 042E;
},
{
color = (166, 255, 153, 255);
glyphname = uni042F;
layers = (
{
layerId = "9D659DC9-364F-48BE-86F1-3EC0559472C9";
paths = (
{
closed = 1;
nodes = (
"337 252 LINE",
"183 0 LINE",
"50 0 LINE",
"219 268 LINE",
"144 285 OFFCURVE",
"56 389 OFFCURVE",
"56 474 QCURVE",
"56 538 OFFCURVE",
"95 626 OFFCURVE",
"165 682 OFFCURVE",
"265 707 OFFCURVE",
"326 707 QCURVE",
"594 707 LINE",
"594 0 LINE",
"479 0 LINE",
"479 252 LINE"
);
},
{
closed = 1;
nodes = (
"479 354 LINE",
"479 603 LINE",
"326 603 LINE",
"249 603 OFFCURVE",
"171 546 OFFCURVE",
"171 475 QCURVE",
"172 437 OFFCURVE",
"206 388 OFFCURVE",
"256 363 OFFCURVE",
"319 354 OFFCURVE",
"348 354 QCURVE"
);
}
);
width = 676;
}
);
unicode = 042F;
},
{
color = (166, 255, 153, 255);
glyphname = uni0440;
layers = (
{
layerId = "9D659DC9-364F-48BE-86F1-3EC0559472C9";
paths = (
{
closed = 1;
nodes = (
"176 -205 LINE",
"62 -205 LINE",
"62 527 LINE",
"170 527 LINE",
"176 452 LINE",
"205 493 OFFCURVE",
"298 536 OFFCURVE",
"349 536 QCURVE",
"403 536 OFFCURVE",
"489 497 OFFCURVE",
"550 427 OFFCURVE",
"581 328 OFFCURVE",
"581 265 QCURVE",
"581 206 OFFCURVE",
"551 106 OFFCURVE",
"492 33 OFFCURVE",
"405 -7 OFFCURVE",
"343 -7 QCURVE",
"295 -7 OFFCURVE",
"208 24 OFFCURVE",
"176 60 QCURVE"
);
},
{
closed = 1;
nodes = (
"362 92 OFFCURVE",
"416 119 OFFCURVE",
"451 165 OFFCURVE",
"468 227 OFFCURVE",
"468 263 QCURVE",
"468 299 OFFCURVE",
"451 362 OFFCURVE",
"416 408 OFFCURVE",
"361 434 OFFCURVE",
"323 434 QCURVE",
"289 434 OFFCURVE",
"232 406 OFFCURVE",
"194 360 OFFCURVE",
"175 297 OFFCURVE",
"175 264 QCURVE",
"175 228 OFFCURVE",
"193 165 OFFCURVE",
"230 120 OFFCURVE",
"286 92 OFFCURVE",
"325 92 QCURVE"
);
}
);
width = 619;
}
);
leftKerningGroup = _kern11;
rightKerningGroup = _kern10;
unicode = 0440;
},
{
color = (166, 255, 153, 255);
glyphname = O;
layers = (
{
layerId = "9D659DC9-364F-48BE-86F1-3EC0559472C9";
paths = (
{
closed = 1;
nodes = (
"301 -7 OFFCURVE",
"174 48 OFFCURVE",
"88 144 OFFCURVE",
"43 276 OFFCURVE",
"43 354 QCURVE",
"43 433 OFFCURVE",
"89 566 OFFCURVE",
"176 662 OFFCURVE",
"303 716 OFFCURVE",
"385 716 QCURVE",
"467 716 OFFCURVE",
"594 663 OFFCURVE",
"681 567 OFFCURVE",
"726 434 OFFCURVE",
"726 355 QCURVE",
"726 277 OFFCURVE",
"681 144 OFFCURVE",
"594 48 OFFCURVE",
"466 -7 OFFCURVE",
"384 -7 QCURVE"
);
},
{
closed = 1;
nodes = (
"328 612 OFFCURVE",
"245 570 OFFCURVE",
"189 500 OFFCURVE",
"162 406 OFFCURVE",
"162 355 QCURVE",
"162 304 OFFCURVE",
"189 211 OFFCURVE",
"244 139 OFFCURVE",
"328 97 OFFCURVE",
"385 97 QCURVE",
"441 97 OFFCURVE",
"525 138 OFFCURVE",
"580 208 OFFCURVE",
"607 301 OFFCURVE",
"607 354 QCURVE",
"607 406 OFFCURVE",
"580 499 OFFCURVE",
"525 570 OFFCURVE",
"442 612 OFFCURVE",
"385 612 QCURVE"
);
}
);
width = 769;
}
);
leftKerningGroup = _kern3;
rightKerningGroup = _kern4;
unicode = 004F;
},
{
color = (166, 255, 153, 255);
glyphname = a;
layers = (
{
layerId = "9D659DC9-364F-48BE-86F1-3EC0559472C9";
paths = (
{
closed = 1;
nodes = (
"402 65 LINE",
"376 28 OFFCURVE",
"290 -7 OFFCURVE",
"237 -7 QCURVE",
"195 -7 OFFCURVE",
"126 13 OFFCURVE",
"74 54 OFFCURVE",
"44 115 OFFCURVE",
"44 154 QCURVE",
"44 197 OFFCURVE",
"78 258 OFFCURVE",
"137 296 OFFCURVE",
"217 315 OFFCURVE",
"261 315 QCURVE",
"396 315 LINE",
"396 373 OFFCURVE",
"344 437 OFFCURVE",
"279 438 QCURVE",
"241 438 OFFCURVE",
"186 412 OFFCURVE",
"177 382 QCURVE",
"60 382 LINE",
"66 424 OFFCURVE",
"109 482 OFFCURVE",
"170 520 OFFCURVE",
"245 536 OFFCURVE",
"283 536 QCURVE",
"332 536 OFFCURVE",
"416 510 OFFCURVE",
"447 479 QCURVE",
"482 443 OFFCURVE",
"506 343 OFFCURVE",
"506 284 QCURVE",
"506 0 LINE",
"407 0 LINE"
);
},
{
closed = 1;
nodes = (
"286 234 LINE",
"257 234 OFFCURVE",
"199 225 OFFCURVE",
"158 192 OFFCURVE",
"158 161 QCURVE",
"158 123 OFFCURVE",
"213 84 OFFCURVE",
"253 84 QCURVE",
"284 84 OFFCURVE",
"337 100 OFFCURVE",
"375 137 OFFCURVE",
"396 194 OFFCURVE",
"396 234 QCURVE"
);
}
);
width = 566;
}
);
leftKerningGroup = _kern27;
rightKerningGroup = _kern27;
unicode = 0061;
},
{
color = (166, 255, 153, 255);
glyphname = c;
layers = (
{
layerId = "9D659DC9-364F-48BE-86F1-3EC0559472C9";
paths = (
{
closed = 1;
nodes = (
"230 -7 OFFCURVE",
"136 32 OFFCURVE",
"73 103 OFFCURVE",
"42 202 OFFCURVE",
"42 262 QCURVE",
"42 322 OFFCURVE",
"75 422 OFFCURVE",
"141 494 OFFCURVE",
"235 536 OFFCURVE",
"297 536 QCURVE",
"388 536 OFFCURVE",
"508 453 OFFCURVE",
"524 363 QCURVE",
"407 363 LINE",
"398 398 OFFCURVE",
"338 434 OFFCURVE",
"295 434 QCURVE",
"257 434 OFFCURVE",
"203 406 OFFCURVE",
"169 358 OFFCURVE",
"154 295 OFFCURVE",
"154 261 QCURVE",
"154 226 OFFCURVE",
"170 164 OFFCURVE",
"204 119 OFFCURVE",
"258 92 OFFCURVE",
"296 92 QCURVE",
"341 92 OFFCURVE",
"400 132 OFFCURVE",
"408 165 QCURVE",
"526 165 LINE",
"518 120 OFFCURVE",
"475 54 OFFCURVE",
"413 12 OFFCURVE",
"337 -7 OFFCURVE",
"294 -7 QCURVE"
);
}
);
width = 562;
}
);
leftKerningGroup = _kern5;
rightKerningGroup = _kern6;
unicode = 0063;
},
{
color = (166, 255, 153, 255);
glyphname = e;
layers = (
{
layerId = "9D659DC9-364F-48BE-86F1-3EC0559472C9";
paths = (
{
closed = 1;
nodes = (
"156 225 LINE",
"158 196 OFFCURVE",
"178 146 OFFCURVE",
"213 109 OFFCURVE",
"264 87 OFFCURVE",
"298 87 QCURVE",
"334 87 OFFCURVE",
"394 113 OFFCURVE",
"408 145 QCURVE",
"525 145 LINE",
"515 105 OFFCURVE",
"470 47 OFFCURVE",
"409 10 OFFCURVE",
"336 -7 OFFCURVE",
"295 -7 QCURVE",
"232 -7 OFFCURVE",
"137 31 OFFCURVE",
"73 103 OFFCURVE",
"42 202 OFFCURVE",
"42 264 QCURVE",
"42 324 OFFCURVE",
"76 423 OFFCURVE",
"141 495 OFFCURVE",
"233 536 OFFCURVE",
"292 536 QCURVE",
"354 536 OFFCURVE",
"444 495 OFFCURVE",
"505 425 OFFCURVE",
"535 331 OFFCURVE",
"535 276 QCURVE",
"535 250 OFFCURVE",
"532 225 QCURVE"
);
},
{
closed = 1;
nodes = (
"424 311 LINE",
"422 371 OFFCURVE",
"350 437 OFFCURVE",
"293 437 QCURVE",
"261 437 OFFCURVE",
"213 417 OFFCURVE",
"180 383 OFFCURVE",
"160 337 OFFCURVE",
"157 311 QCURVE"
);
}
);
width = 576;
}
);
leftKerningGroup = _kern5;
rightKerningGroup = _kern6;
unicode = 0065;
},
{
color = (166, 255, 153, 255);
glyphname = f;
layers = (
{
layerId = "9D659DC9-364F-48BE-86F1-3EC0559472C9";
paths = (
{
closed = 1;
nodes = (
"111 0 LINE",
"111 428 LINE",
"27 428 LINE",
"27 527 LINE",
"111 527 LINE",
"111 589 LINE",
"111 677 OFFCURVE",
"194 760 OFFCURVE",
"286 760 QCURVE",
"358 760 LINE",
"358 661 LINE",
"293 661 LINE",
"251 661 OFFCURVE",
"223 617 OFFCURVE",
"223 576 QCURVE",
"223 527 LINE",
"358 527 LINE",
"358 428 LINE",
"223 428 LINE",
"223 0 LINE"
);
}
);
width = 375;
}
);
unicode = 0066;
},
{
color = (166, 255, 153, 255);
glyphname = g;
layers = (
{
layerId = "9D659DC9-364F-48BE-86F1-3EC0559472C9";
paths = (
{
closed = 1;
nodes = (
"562 93 LINE",
"562 49 OFFCURVE",
"560 -39 OFFCURVE",
"548 -84 QCURVE",
"524 -169 OFFCURVE",
"398 -253 OFFCURVE",
"304 -253 QCURVE",
"260 -253 OFFCURVE",
"181 -233 OFFCURVE",
"118 -191 OFFCURVE",
"74 -126 OFFCURVE",
"67 -80 QCURVE",
"186 -80 LINE",
"194 -116 OFFCURVE",
"263 -152 OFFCURVE",
"305 -152 QCURVE",
"353 -152 OFFCURVE",
"410 -117 OFFCURVE",
"440 -56 OFFCURVE",
"448 23 OFFCURVE",
"448 67 QCURVE",
"423 28 OFFCURVE",
"344 -8 OFFCURVE",
"285 -7 QCURVE",
"217 -8 OFFCURVE",
"128 35 OFFCURVE",
"70 109 OFFCURVE",
"42 205 OFFCURVE",
"42 259 QCURVE",
"42 319 OFFCURVE",
"73 419 OFFCURVE",
"135 493 OFFCURVE",
"227 535 OFFCURVE",
"288 536 QCURVE",
"340 535 OFFCURVE",
"421 500 OFFCURVE",
"451 464 QCURVE",
"460 527 LINE",
"562 527 LINE"
);
},
{
closed = 1;
nodes = (
"262 434 OFFCURVE",
"207 406 OFFCURVE",
"172 360 OFFCURVE",
"155 297 OFFCURVE",
"155 261 QCURVE",
"155 225 OFFCURVE",
"172 164 OFFCURVE",
"208 118 OFFCURVE",
"263 91 OFFCURVE",
"301 91 QCURVE",
"340 91 OFFCURVE",
"395 121 OFFCURVE",
"431 170 OFFCURVE",
"449 232 OFFCURVE",
"449 265 QCURVE",
"449 299 OFFCURVE",
"431 361 OFFCURVE",
"394 406 OFFCURVE",
"338 434 OFFCURVE",
"300 434 QCURVE"
);
}
);
width = 624;
}
);
leftKerningGroup = _kern5;
unicode = 0067;
},
{
color = (166, 255, 153, 255);
glyphname = j;
layers = (
{
layerId = "9D659DC9-364F-48BE-86F1-3EC0559472C9";
paths = (
{
closed = 1;
nodes = (
"166 747 OFFCURVE",
"207 708 OFFCURVE",
"207 675 QCURVE",
"207 643 OFFCURVE",
"166 604 OFFCURVE",
"134 604 QCURVE",
"102 604 OFFCURVE",
"61 643 OFFCURVE",
"61 675 QCURVE",
"61 708 OFFCURVE",
"102 747 OFFCURVE",
"134 747 QCURVE"
);
},
{
closed = 1;
nodes = (
"191 527 LINE",
"191 -37 LINE",
"191 -126 OFFCURVE",
"116 -211 OFFCURVE",
"24 -211 QCURVE",
"-36 -211 LINE",
"-36 -112 LINE",
"3 -112 LINE",
"47 -112 OFFCURVE",
"77 -66 OFFCURVE",
"77 -24 QCURVE",
"77 527 LINE"
);
}
);
width = 261;
}
);
unicode = 006A;
},
{
color = (166, 255, 153, 255);
glyphname = o;
layers = (
{
layerId = "9D659DC9-364F-48BE-86F1-3EC0559472C9";
paths = (
{
closed = 1;
nodes = (
"362 536 OFFCURVE",
"458 496 OFFCURVE",
"525 425 OFFCURVE",
"559 325 OFFCURVE",
"559 264 QCURVE",
"559 202 OFFCURVE",
"526 103 OFFCURVE",
"460 31 OFFCURVE",
"363 -7 OFFCURVE",
"299 -7 QCURVE",
"236 -7 OFFCURVE",
"140 32 OFFCURVE",
"75 103 OFFCURVE",
"42 203 OFFCURVE",
"42 264 QCURVE",
"42 325 OFFCURVE",
"75 425 OFFCURVE",
"141 496 OFFCURVE",
"237 536 OFFCURVE",
"299 536 QCURVE"
);
},
{
closed = 1;
nodes = (
"338 92 OFFCURVE",
"393 119 OFFCURVE",
"428 165 OFFCURVE",
"445 227 OFFCURVE",
"445 263 QCURVE",
"445 299 OFFCURVE",
"428 362 OFFCURVE",
"393 408 OFFCURVE",
"338 434 OFFCURVE",
"299 434 QCURVE",
"261 434 OFFCURVE",
"207 408 OFFCURVE",
"171 362 OFFCURVE",
"154 299 OFFCURVE",
"154 263 QCURVE",
"154 227 OFFCURVE",
"171 165 OFFCURVE",
"206 119 OFFCURVE",
"261 92 OFFCURVE",
"299 92 QCURVE"
);
}
);
width = 601;
}
);
leftKerningGroup = _kern5;
rightKerningGroup = _kern6;
unicode = 006F;
},
{
color = (166, 255, 153, 255);
glyphname = r;
layers = (
{
layerId = "9D659DC9-364F-48BE-86F1-3EC0559472C9";
paths = (
{
closed = 1;
nodes = (
"62 0 LINE",
"62 527 LINE",
"169 527 LINE",
"175 452 LINE",
"236 536 OFFCURVE",
"341 536 QCURVE",
"351 536 OFFCURVE",
"370 535 OFFCURVE",
"378 534 QCURVE",
"378 428 LINE",
"366 428 OFFCURVE",
"343 427 OFFCURVE",
"332 427 QCURVE",
"288 426 OFFCURVE",
"229 397 OFFCURVE",
"192 349 OFFCURVE",
"176 284 OFFCURVE",
"176 247 QCURVE",
"176 0 LINE"
);
}
);
width = 390;
}
);
leftKerningGroup = _kern29;
rightKerningGroup = _kern29;
unicode = 0072;
},
{
color = (166, 255, 153, 255);
glyphname = t;
layers = (
{
layerId = "9D659DC9-364F-48BE-86F1-3EC0559472C9";
paths = (
{
closed = 1;
nodes = (
"220 527 LINE",
"353 527 LINE",
"353 428 LINE",
"220 428 LINE",
"220 187 LINE",
"220 142 OFFCURVE",
"252 98 OFFCURVE",
"297 98 QCURVE",
"349 98 LINE",
"349 0 LINE",
"287 0 LINE",
"190 0 OFFCURVE",
"107 80 OFFCURVE",
"107 171 QCURVE",
"107 428 LINE",
"24 428 LINE",
"24 527 LINE",
"107 527 LINE",
"107 676 LINE",
"220 676 LINE"
);
}
);
width = 377;
}
);
leftKerningGroup = _kern21;
rightKerningGroup = _kern21;
unicode = 0074;
},
{
color = (166, 255, 153, 255);
glyphname = y2_alt;
layers = (
{
layerId = "9D659DC9-364F-48BE-86F1-3EC0559472C9";
paths = (
{
closed = 1;
nodes = (
"440 527 LINE",
"562 527 LINE",
"414 86 LINE",
"387 5 OFFCURVE",
"339 -122 OFFCURVE",
"274 -207 OFFCURVE",
"180 -251 OFFCURVE",
"105 -251 QCURVE",
"88 -251 LINE",
"88 -149 LINE",
"95 -149 OFFCURVE",
"102 -149 QCURVE",
"128 -149 OFFCURVE",
"173 -135 OFFCURVE",
"211 -107 OFFCURVE",
"239 -62 OFFCURVE",
"251 -33 QCURVE",
"15 527 LINE",
"149 527 LINE",
"309 108 LINE"
);
}
);
width = 569;
}
);
},
{
color = (166, 255, 153, 255);
glyphname = uni0443;
layers = (
{
layerId = "9D659DC9-364F-48BE-86F1-3EC0559472C9";
paths = (
{
closed = 1;
nodes = (
"440 527 LINE",
"565 527 LINE",
"413 84 LINE",
"384 2 OFFCURVE",
"337 -124 OFFCURVE",
"273 -208 OFFCURVE",
"180 -251 OFFCURVE",
"105 -251 QCURVE",
"88 -251 LINE",
"88 -149 LINE",
"92 -149 OFFCURVE",
"96 -149 QCURVE",
"126 -149 OFFCURVE",
"173 -135 OFFCURVE",
"211 -107 OFFCURVE",
"239 -62 OFFCURVE",
"251 -33 QCURVE",
"17 527 LINE",
"151 527 LINE",
"310 110 LINE"
);
}
);
width = 572;
}
);
unicode = 0443;
},
{
color = (166, 255, 153, 255);
glyphname = uni0451;
layers = (
{
layerId = "9D659DC9-364F-48BE-86F1-3EC0559472C9";
paths = (
{
closed = 1;
nodes = (
"211 727 OFFCURVE",
"252 688 OFFCURVE",
"252 656 QCURVE",
"252 624 OFFCURVE",
"211 586 OFFCURVE",
"179 586 QCURVE",
"148 586 OFFCURVE",
"108 624 OFFCURVE",
"108 656 QCURVE",
"108 688 OFFCURVE",
"148 727 OFFCURVE",
"179 727 QCURVE"
);
},
{
closed = 1;
nodes = (
"446 727 OFFCURVE",
"486 688 OFFCURVE",
"486 656 QCURVE",
"486 624 OFFCURVE",
"446 586 OFFCURVE",
"414 586 QCURVE",
"382 586 OFFCURVE",
"343 624 OFFCURVE",
"343 656 QCURVE",
"343 688 OFFCURVE",
"382 727 OFFCURVE",
"414 727 QCURVE"
);
},
{
closed = 1;
nodes = (
"156 225 LINE",
"158 196 OFFCURVE",
"178 146 OFFCURVE",
"213 109 OFFCURVE",
"264 87 OFFCURVE",
"298 87 QCURVE",
"334 87 OFFCURVE",
"394 113 OFFCURVE",
"408 145 QCURVE",
"525 145 LINE",
"515 105 OFFCURVE",
"470 47 OFFCURVE",
"409 10 OFFCURVE",
"337 -7 OFFCURVE",
"296 -7 QCURVE",
"233 -7 OFFCURVE",
"137 31 OFFCURVE",
"73 103 OFFCURVE",
"42 202 OFFCURVE",
"42 264 QCURVE",
"42 324 OFFCURVE",
"76 423 OFFCURVE",
"141 495 OFFCURVE",
"233 536 OFFCURVE",
"293 536 QCURVE",
"355 536 OFFCURVE",
"444 495 OFFCURVE",
"505 425 OFFCURVE",
"535 331 OFFCURVE",
"535 276 QCURVE",
"535 250 OFFCURVE",
"532 225 QCURVE"
);
},
{
closed = 1;
nodes = (
"424 311 LINE",
"422 371 OFFCURVE",
"350 437 OFFCURVE",
"293 437 QCURVE",
"261 437 OFFCURVE",
"213 417 OFFCURVE",
"180 383 OFFCURVE",
"160 337 OFFCURVE",
"157 311 QCURVE"
);
}
);
width = 576;
}
);
leftKerningGroup = _kern9;
rightKerningGroup = _kern10;
unicode = 0451;
},
{
color = (166, 255, 153, 255);
glyphname = uni0437;
layers = (
{
layerId = "9D659DC9-364F-48BE-86F1-3EC0559472C9";
paths = (
{
closed = 1;
nodes = (
"450 268 OFFCURVE",
"490 205 OFFCURVE",
"490 166 QCURVE",
"490 164 OFFCURVE",
"490 162 QCURVE",
"490 112 OFFCURVE",
"450 46 OFFCURVE",
"383 7 OFFCURVE",
"306 -7 OFFCURVE",
"266 -7 QCURVE",
"227 -7 OFFCURVE",
"146 8 OFFCURVE",
"79 46 OFFCURVE",
"35 108 OFFCURVE",
"32 155 QCURVE",
"142 155 LINE",
"146 135 OFFCURVE",
"173 109 OFFCURVE",
"209 93 OFFCURVE",
"249 87 OFFCURVE",
"266 87 QCURVE",
"284 87 OFFCURVE",
"326 92 OFFCURVE",
"359 107 OFFCURVE",
"381 134 OFFCURVE",
"381 156 QCURVE",
"381 194 OFFCURVE",
"324 220 OFFCURVE",
"281 220 QCURVE",
"193 220 LINE",
"193 310 LINE",
"272 310 LINE",
"309 310 OFFCURVE",
"361 340 OFFCURVE",
"361 377 QCURVE",
"361 396 OFFCURVE",
"342 421 OFFCURVE",
"314 435 OFFCURVE",
"280 440 OFFCURVE",
"267 440 QCURVE",
"250 440 OFFCURVE",
"214 435 OFFCURVE",
"182 421 OFFCURVE",
"160 397 OFFCURVE",
"158 378 QCURVE",
"49 378 LINE",
"53 425 OFFCURVE",
"95 486 OFFCURVE",
"157 522 OFFCURVE",
"232 536 OFFCURVE",
"269 536 QCURVE",
"306 536 OFFCURVE",
"377 522 OFFCURVE",
"437 484 OFFCURVE",
"470 431 OFFCURVE",
"470 389 QCURVE",
"470 351 OFFCURVE",
"435 297 OFFCURVE",
"408 282 QCURVE"
);
}
);
width = 529;
}
);
leftKerningGroup = _kern9;
rightKerningGroup = _kern10;
unicode = 0437;
},
{
color = (166, 255, 153, 255);
glyphname = uni044D;
layers = (
{
layerId = "9D659DC9-364F-48BE-86F1-3EC0559472C9";
paths = (
{
closed = 1;
nodes = (
"405 309 LINE",
"401 364 OFFCURVE",
"336 434 OFFCURVE",
"271 434 QCURVE",
"252 434 OFFCURVE",
"215 428 OFFCURVE",
"183 413 OFFCURVE",
"159 389 OFFCURVE",
"154 372 QCURVE",
"36 372 LINE",
"46 415 OFFCURVE",
"91 477 OFFCURVE",
"154 518 OFFCURVE",
"230 536 OFFCURVE",
"271 536 QCURVE",
"333 536 OFFCURVE",
"425 495 OFFCURVE",
"485 424 OFFCURVE",
"516 324 OFFCURVE",
"516 263 QCURVE",
"516 203 OFFCURVE",
"486 103 OFFCURVE",
"426 32 OFFCURVE",
"333 -7 OFFCURVE",
"268 -7 QCURVE",
"231 -7 OFFCURVE",
"156 9 OFFCURVE",
"91 47 OFFCURVE",
"43 107 OFFCURVE",
"34 151 QCURVE",
"151 151 LINE",
"157 136 OFFCURVE",
"182 113 OFFCURVE",
"214 98 OFFCURVE",
"251 91 OFFCURVE",
"270 91 QCURVE",
"336 91 OFFCURVE",
"402 161 OFFCURVE",
"404 216 QCURVE",
"191 216 LINE",
"191 309 LINE"
);
}
);
width = 554;
}
);
leftKerningGroup = _kern9;
rightKerningGroup = _kern10;
unicode = 044D;
},
{
color = (166, 255, 153, 255);
glyphname = C;
layers = (
{
layerId = "9D659DC9-364F-48BE-86F1-3EC0559472C9";
paths = (
{
closed = 1;
nodes = (
"320 612 OFFCURVE",
"239 570 OFFCURVE",
"187 500 OFFCURVE",
"162 407 OFFCURVE",
"162 356 QCURVE",
"162 304 OFFCURVE",
"188 210 OFFCURVE",
"241 139 OFFCURVE",
"323 97 OFFCURVE",
"379 97 QCURVE",
"448 97 OFFCURVE",
"541 157 OFFCURVE",
"553 208 QCURVE",
"669 208 LINE",
"661 157 OFFCURVE",
"610 77 OFFCURVE",
"534 22 OFFCURVE",
"434 -7 OFFCURVE",
"377 -7 QCURVE",
"294 -7 OFFCURVE",
"169 47 OFFCURVE",
"85 143 OFFCURVE",
"43 275 OFFCURVE",
"43 354 QCURVE",
"43 431 OFFCURVE",
"86 564 OFFCURVE",
"170 661 OFFCURVE",
"295 716 OFFCURVE",
"378 716 QCURVE",
"495 716 OFFCURVE",
"647 606 OFFCURVE",
"663 499 QCURVE",
"549 499 LINE",
"536 551 OFFCURVE",
"446 612 OFFCURVE",
"376 612 QCURVE"
);
}
);
width = 706;
}
);
leftKerningGroup = _kern3;
rightKerningGroup = _kern4;
unicode = 0043;
},
{
color = (166, 255, 153, 255);
glyphname = S;
layers = (
{
layerId = "9D659DC9-364F-48BE-86F1-3EC0559472C9";
paths = (
{
closed = 1;
nodes = (
"306 613 OFFCURVE",
"258 605 OFFCURVE",
"218 584 OFFCURVE",
"192 547 OFFCURVE",
"192 519 QCURVE",
"192 477 OFFCURVE",
"248 434 OFFCURVE",
"287 423 QCURVE",
"315 415 OFFCURVE",
"372 401 OFFCURVE",
"396 396 QCURVE",
"438 387 OFFCURVE",
"513 361 OFFCURVE",
"569 318 OFFCURVE",
"602 253 OFFCURVE",
"602 205 QCURVE",
"602 148 OFFCURVE",
"561 68 OFFCURVE",
"491 16 OFFCURVE",
"397 -8 OFFCURVE",
"343 -8 QCURVE",
"288 -8 OFFCURVE",
"189 15 OFFCURVE",
"111 66 OFFCURVE",
"59 146 OFFCURVE",
"52 202 QCURVE",
"172 202 LINE",
"180 172 OFFCURVE",
"216 132 OFFCURVE",
"263 108 OFFCURVE",
"317 98 OFFCURVE",
"343 98 QCURVE",
"371 98 OFFCURVE",
"423 107 OFFCURVE",
"461 129 OFFCURVE",
"485 165 OFFCURVE",
"485 194 QCURVE",
"485 234 OFFCURVE",
"443 271 OFFCURVE",
"408 280 QCURVE",
"360 294 OFFCURVE",
"259 315 OFFCURVE",
"214 332 QCURVE",
"184 343 OFFCURVE",
"134 373 OFFCURVE",
"96 415 OFFCURVE",
"75 472 OFFCURVE",
"75 510 QCURVE",
"75 568 OFFCURVE",
"119 647 OFFCURVE",
"190 695 OFFCURVE",
"280 716 OFFCURVE",
"327 716 QCURVE",
"377 716 OFFCURVE",
"467 693 OFFCURVE",
"537 645 OFFCURVE",
"580 569 OFFCURVE",
"584 515 QCURVE",
"470 515 LINE",
"466 542 OFFCURVE",
"441 578 OFFCURVE",
"404 601 OFFCURVE",
"356 612 OFFCURVE",
"329 613 QCURVE"
);
}
);
width = 655;
}
);
leftKerningGroup = _kern3;
rightKerningGroup = _kern4;
unicode = 0053;
},
{
color = (166, 255, 153, 255);
glyphname = uni0421;
layers = (
{
layerId = "9D659DC9-364F-48BE-86F1-3EC0559472C9";
paths = (
{
closed = 1;
nodes = (
"320 612 OFFCURVE",
"239 570 OFFCURVE",
"187 500 OFFCURVE",
"162 407 OFFCURVE",
"162 356 QCURVE",
"162 304 OFFCURVE",
"188 210 OFFCURVE",
"241 139 OFFCURVE",
"323 97 OFFCURVE",
"379 97 QCURVE",
"448 97 OFFCURVE",
"541 157 OFFCURVE",
"553 208 QCURVE",
"669 208 LINE",
"661 157 OFFCURVE",
"610 77 OFFCURVE",
"534 22 OFFCURVE",
"434 -7 OFFCURVE",
"377 -7 QCURVE",
"294 -7 OFFCURVE",
"169 47 OFFCURVE",
"85 143 OFFCURVE",
"43 275 OFFCURVE",
"43 354 QCURVE",
"43 431 OFFCURVE",
"86 564 OFFCURVE",
"170 661 OFFCURVE",
"295 716 OFFCURVE",
"378 716 QCURVE",
"495 716 OFFCURVE",
"647 606 OFFCURVE",
"663 499 QCURVE",
"549 499 LINE",
"536 551 OFFCURVE",
"446 612 OFFCURVE",
"376 612 QCURVE"
);
}
);
width = 712;
}
);
leftKerningGroup = _kern7;
rightKerningGroup = _kern8;
unicode = 0421;
},
{
color = (166, 255, 153, 255);
glyphname = G;
layers = (
{
layerId = "9D659DC9-364F-48BE-86F1-3EC0559472C9";
paths = (
{
closed = 1;
nodes = (
"317 611 OFFCURVE",
"237 569 OFFCURVE",
"186 499 OFFCURVE",
"162 406 OFFCURVE",
"162 354 QCURVE",
"162 302 OFFCURVE",
"187 209 OFFCURVE",
"240 138 OFFCURVE",
"322 97 OFFCURVE",
"378 97 QCURVE",
"469 97 OFFCURVE",
"570 192 OFFCURVE",
"572 268 QCURVE",
"365 268 LINE",
"365 366 LINE",
"683 366 LINE",
"683 328 OFFCURVE",
"680 251 OFFCURVE",
"670 209 QCURVE",
"658 164 OFFCURVE",
"612 85 OFFCURVE",
"540 27 OFFCURVE",
"441 -7 OFFCURVE",
"377 -7 QCURVE",
"294 -7 OFFCURVE",
"169 46 OFFCURVE",
"85 142 OFFCURVE",
"43 274 OFFCURVE",
"43 352 QCURVE",
"43 431 OFFCURVE",
"85 565 OFFCURVE",
"168 662 OFFCURVE",
"293 716 OFFCURVE",
"376 716 QCURVE",
"434 716 OFFCURVE",
"533 687 OFFCURVE",
"609 632 OFFCURVE",
"659 551 OFFCURVE",
"667 499 QCURVE",
"550 499 LINE",
"537 552 OFFCURVE",
"442 612 OFFCURVE",
"373 612 QCURVE"
);
}
);
width = 726;
}
);
leftKerningGroup = _kern3;
rightKerningGroup = _kern4;
unicode = 0047;
},
{
color = (166, 255, 153, 255);
glyphname = uni041E;
layers = (
{
layerId = "9D659DC9-364F-48BE-86F1-3EC0559472C9";
paths = (
{
closed = 1;
nodes = (
"301 -7 OFFCURVE",
"174 48 OFFCURVE",
"88 144 OFFCURVE",
"43 276 OFFCURVE",
"43 354 QCURVE",
"43 433 OFFCURVE",
"89 566 OFFCURVE",
"176 662 OFFCURVE",
"303 716 OFFCURVE",
"385 716 QCURVE",
"467 716 OFFCURVE",
"594 663 OFFCURVE",
"681 567 OFFCURVE",
"726 434 OFFCURVE",
"726 355 QCURVE",
"726 277 OFFCURVE",
"681 144 OFFCURVE",
"594 48 OFFCURVE",
"466 -7 OFFCURVE",
"384 -7 QCURVE"
);
},
{
closed = 1;
nodes = (
"328 612 OFFCURVE",
"245 570 OFFCURVE",
"189 500 OFFCURVE",
"162 406 OFFCURVE",
"162 355 QCURVE",
"162 304 OFFCURVE",
"189 211 OFFCURVE",
"244 139 OFFCURVE",
"328 97 OFFCURVE",
"385 97 QCURVE",
"441 97 OFFCURVE",
"525 138 OFFCURVE",
"580 208 OFFCURVE",
"607 301 OFFCURVE",
"607 354 QCURVE",
"607 406 OFFCURVE",
"580 499 OFFCURVE",
"525 570 OFFCURVE",
"442 612 OFFCURVE",
"385 612 QCURVE"
);
}
);
width = 769;
}
);
leftKerningGroup = _kern7;
rightKerningGroup = _kern8;
unicode = 041E;
},
{
color = (166, 255, 153, 255);
glyphname = Q;
layers = (
{
layerId = "9D659DC9-364F-48BE-86F1-3EC0559472C9";
paths = (
{
closed = 1;
nodes = (
"522 17 LINE",
"460 -7 OFFCURVE",
"383 -7 QCURVE",
"300 -7 OFFCURVE",
"174 48 OFFCURVE",
"87 144 OFFCURVE",
"43 276 OFFCURVE",
"43 354 QCURVE",
"43 433 OFFCURVE",
"89 566 OFFCURVE",
"176 662 OFFCURVE",
"303 716 OFFCURVE",
"385 716 QCURVE",
"467 716 OFFCURVE",
"593 663 OFFCURVE",
"680 567 OFFCURVE",
"725 434 OFFCURVE",
"725 355 QCURVE",
"725 269 OFFCURVE",
"671 127 OFFCURVE",
"618 78 QCURVE",
"715 -51 LINE",
"625 -120 LINE"
);
},
{
closed = 1;
nodes = (
"328 612 OFFCURVE",
"244 570 OFFCURVE",
"188 500 OFFCURVE",
"161 406 OFFCURVE",
"161 355 QCURVE",
"161 304 OFFCURVE",
"188 211 OFFCURVE",
"243 139 OFFCURVE",
"327 97 OFFCURVE",
"384 97 QCURVE",
"440 97 OFFCURVE",
"524 138 OFFCURVE",
"579 208 OFFCURVE",
"606 301 OFFCURVE",
"606 354 QCURVE",
"606 406 OFFCURVE",
"579 499 OFFCURVE",
"524 570 OFFCURVE",
"441 612 OFFCURVE",
"384 612 QCURVE"
);
}
);
width = 768;
}
);
leftKerningGroup = _kern3;
rightKerningGroup = _kern4;
unicode = 0051;
},
{
color = (166, 255, 153, 255);
glyphname = J;
layers = (
{
layerId = "9D659DC9-364F-48BE-86F1-3EC0559472C9";
paths = (
{
closed = 1;
nodes = (
"154 216 LINE",
"157 163 OFFCURVE",
"212 96 OFFCURVE",
"269 96 QCURVE",
"302 96 OFFCURVE",
"346 116 OFFCURVE",
"373 151 OFFCURVE",
"384 201 OFFCURVE",
"384 231 QCURVE",
"384 707 LINE",
"500 707 LINE",
"500 244 LINE",
"500 187 OFFCURVE",
"476 97 OFFCURVE",
"422 30 OFFCURVE",
"338 -7 OFFCURVE",
"278 -7 QCURVE",
"166 -7 OFFCURVE",
"39 103 OFFCURVE",
"37 216 QCURVE"
);
}
);
width = 577;
}
);
unicode = 004A;
},
{
color = (166, 255, 153, 255);
glyphname = K_alt;
layers = (
{
layerId = "9D659DC9-364F-48BE-86F1-3EC0559472C9";
paths = (
{
closed = 1;
nodes = (
"82 0 LINE",
"82 707 LINE",
"198 707 LINE",
"198 373 LINE",
"507 707 LINE",
"643 707 LINE",
"345 390 LINE",
"643 0 LINE",
"508 0 LINE",
"264 318 LINE",
"198 249 LINE",
"198 0 LINE"
);
}
);
width = 652;
}
);
leftKerningGroup = _kern16;
rightKerningGroup = _kern16;
},
{
color = (166, 255, 153, 255);
glyphname = K;
layers = (
{
layerId = "9D659DC9-364F-48BE-86F1-3EC0559472C9";
paths = (
{
closed = 1;
nodes = (
"82 0 LINE",
"82 707 LINE",
"198 707 LINE",
"198 398 LINE",
"288 398 LINE",
"506 707 LINE",
"640 707 LINE",
"388 364 LINE",
"643 0 LINE",
"507 0 LINE",
"299 295 LINE",
"198 295 LINE",
"198 0 LINE"
);
}
);
width = 652;
}
);
leftKerningGroup = _kern1;
rightKerningGroup = _kern16;
unicode = 004B;
},
{
color = (166, 255, 153, 255);
glyphname = k_alt;
layers = (
{
layerId = "9D659DC9-364F-48BE-86F1-3EC0559472C9";
paths = (
{
closed = 1;
nodes = (
"62 0 LINE",
"62 707 LINE",
"176 707 LINE",
"176 293 LINE",
"394 527 LINE",
"529 527 LINE",
"317 306 LINE",
"539 0 LINE",
"410 0 LINE",
"237 235 LINE",
"176 173 LINE",
"176 0 LINE"
);
}
);
width = 548;
}
);
leftKerningGroup = _kern17;
rightKerningGroup = _kern17;
},
{
color = (166, 255, 153, 255);
glyphname = k;
layers = (
{
layerId = "9D659DC9-364F-48BE-86F1-3EC0559472C9";
paths = (
{
closed = 1;
nodes = (
"62 0 LINE",
"62 707 LINE",
"175 707 LINE",
"175 312 LINE",
"257 312 LINE",
"393 527 LINE",
"521 527 LINE",
"355 276 LINE",
"535 0 LINE",
"403 0 LINE",
"264 213 LINE",
"175 213 LINE",
"175 0 LINE"
);
}
);
width = 537;
}
);
leftKerningGroup = _kern17;
rightKerningGroup = _kern17;
unicode = 006B;
},
{
color = (166, 255, 153, 255);
glyphname = i_alt;
layers = (
{
layerId = "9D659DC9-364F-48BE-86F1-3EC0559472C9";
paths = (
{
closed = 1;
nodes = (
"179 746 OFFCURVE",
"219 708 OFFCURVE",
"219 675 QCURVE",
"219 643 OFFCURVE",
"179 605 OFFCURVE",
"147 605 QCURVE",
"115 605 OFFCURVE",
"74 643 OFFCURVE",
"74 675 QCURVE",
"74 708 OFFCURVE",
"115 746 OFFCURVE",
"147 746 QCURVE"
);
},
{
closed = 1;
nodes = (
"89 0 LINE",
"89 428 LINE",
"7 428 LINE",
"7 527 LINE",
"203 527 LINE",
"203 0 LINE"
);
}
);
width = 273;
}
);
},
{
color = (166, 255, 153, 255);
glyphname = j_alt;
layers = (
{
layerId = "9D659DC9-364F-48BE-86F1-3EC0559472C9";
paths = (
{
closed = 1;
nodes = (
"170 747 OFFCURVE",
"211 708 OFFCURVE",
"211 675 QCURVE",
"211 643 OFFCURVE",
"170 604 OFFCURVE",
"139 604 QCURVE",
"107 604 OFFCURVE",
"65 643 OFFCURVE",
"65 675 QCURVE",
"65 708 OFFCURVE",
"107 747 OFFCURVE",
"139 747 QCURVE"
);
},
{
closed = 1;
nodes = (
"196 -37 LINE",
"196 -126 OFFCURVE",
"113 -211 OFFCURVE",
"21 -211 QCURVE",
"-23 -211 LINE",
"-23 -112 LINE",
"1 -112 LINE",
"45 -112 OFFCURVE",
"81 -65 OFFCURVE",
"81 -23 QCURVE",
"81 428 LINE",
"-2 428 LINE",
"-2 527 LINE",
"196 527 LINE"
);
}
);
width = 265;
}
);
},
{
color = (166, 255, 153, 255);
glyphname = s_alt;
layers = (
{
layerId = "9D659DC9-364F-48BE-86F1-3EC0559472C9";
paths = (
{
closed = 1;
nodes = (
"257 440 OFFCURVE",
"221 436 OFFCURVE",
"189 424 OFFCURVE",
"167 399 OFFCURVE",
"167 381 QCURVE",
"167 353 OFFCURVE",
"213 325 OFFCURVE",
"294 312 OFFCURVE",
"381 298 OFFCURVE",
"415 287 QCURVE",
"465 270 OFFCURVE",
"509 202 OFFCURVE",
"509 157 QCURVE",
"509 110 OFFCURVE",
"469 46 OFFCURVE",
"408 7 OFFCURVE",
"331 -10 OFFCURVE",
"292 -10 QCURVE",
"242 -10 OFFCURVE",
"158 7 OFFCURVE",
"86 47 OFFCURVE",
"41 113 OFFCURVE",
"38 161 QCURVE",
"150 161 LINE",
"155 139 OFFCURVE",
"186 111 OFFCURVE",
"226 93 OFFCURVE",
"269 87 OFFCURVE",
"288 87 QCURVE",
"292 87 OFFCURVE",
"295 87 QCURVE",
"335 87 OFFCURVE",
"359 97 QCURVE",
"375 104 OFFCURVE",
"397 127 OFFCURVE",
"397 147 QCURVE",
"397 174 OFFCURVE",
"364 200 OFFCURVE",
"335 206 QCURVE",
"290 213 OFFCURVE",
"193 228 OFFCURVE",
"111 256 OFFCURVE",
"56 317 OFFCURVE",
"56 373 QCURVE",
"56 419 OFFCURVE",
"94 481 OFFCURVE",
"157 520 OFFCURVE",
"236 536 OFFCURVE",
"276 536 QCURVE",
"323 536 OFFCURVE",
"401 514 OFFCURVE",
"458 471 OFFCURVE",
"490 412 OFFCURVE",
"492 375 QCURVE",
"387 375 LINE",
"382 410 OFFCURVE",
"316 439 OFFCURVE",
"272 440 QCURVE"
);
}
);
width = 548;
}
);
leftKerningGroup = _kern5;
rightKerningGroup = _kern6;
},
{
color = (166, 255, 153, 255);
glyphname = s;
layers = (
{
layerId = "9D659DC9-364F-48BE-86F1-3EC0559472C9";
paths = (
{
closed = 1;
nodes = (
"240 441 OFFCURVE",
"207 437 OFFCURVE",
"178 424 OFFCURVE",
"159 400 OFFCURVE",
"159 381 QCURVE",
"159 360 OFFCURVE",
"187 334 OFFCURVE",
"228 321 OFFCURVE",
"273 312 OFFCURVE",
"289 309 QCURVE",
"332 301 OFFCURVE",
"401 280 OFFCURVE",
"449 247 OFFCURVE",
"476 195 OFFCURVE",
"476 153 QCURVE",
"476 108 OFFCURVE",
"439 46 OFFCURVE",
"380 9 OFFCURVE",
"305 -7 OFFCURVE",
"265 -7 QCURVE",
"225 -7 OFFCURVE",
"147 9 OFFCURVE",
"82 47 OFFCURVE",
"39 110 OFFCURVE",
"34 155 QCURVE",
"149 155 LINE",
"153 135 OFFCURVE",
"179 109 OFFCURVE",
"214 93 OFFCURVE",
"252 87 OFFCURVE",
"268 87 QCURVE",
"280 87 OFFCURVE",
"315 91 OFFCURVE",
"345 105 OFFCURVE",
"366 128 OFFCURVE",
"366 146 QCURVE",
"366 163 OFFCURVE",
"350 186 OFFCURVE",
"323 202 OFFCURVE",
"285 211 OFFCURVE",
"264 216 QCURVE",
"231 222 OFFCURVE",
"156 240 OFFCURVE",
"91 269 OFFCURVE",
"49 327 OFFCURVE",
"49 372 QCURVE",
"49 420 OFFCURVE",
"87 482 OFFCURVE",
"147 521 OFFCURVE",
"221 536 OFFCURVE",
"257 536 QCURVE",
"344 536 OFFCURVE",
"455 456 OFFCURVE",
"460 380 QCURVE",
"353 380 LINE",
"348 412 OFFCURVE",
"293 440 OFFCURVE",
"255 441 QCURVE"
);
}
);
width = 511;
}
);
leftKerningGroup = _kern5;
rightKerningGroup = _kern6;
unicode = 0073;
},
{
color = (166, 255, 153, 255);
glyphname = c_alt;
layers = (
{
layerId = "9D659DC9-364F-48BE-86F1-3EC0559472C9";
paths = (
{
closed = 1;
nodes = (
"228 -7 OFFCURVE",
"133 32 OFFCURVE",
"69 105 OFFCURVE",
"38 204 OFFCURVE",
"38 264 QCURVE",
"38 325 OFFCURVE",
"72 424 OFFCURVE",
"138 496 OFFCURVE",
"233 536 OFFCURVE",
"294 536 QCURVE",
"338 536 OFFCURVE",
"411 517 OFFCURVE",
"469 476 OFFCURVE",
"510 415 OFFCURVE",
"519 372 QCURVE",
"401 372 LINE",
"390 401 OFFCURVE",
"333 434 OFFCURVE",
"293 434 QCURVE",
"255 434 OFFCURVE",
"201 407 OFFCURVE",
"166 361 OFFCURVE",
"150 298 OFFCURVE",
"150 263 QCURVE",
"150 228 OFFCURVE",
"167 166 OFFCURVE",
"202 120 OFFCURVE",
"257 92 OFFCURVE",
"296 92 QCURVE",
"329 92 OFFCURVE",
"384 115 OFFCURVE",
"397 139 QCURVE",
"518 139 LINE",
"507 99 OFFCURVE",
"463 44 OFFCURVE",
"404 9 OFFCURVE",
"332 -7 OFFCURVE",
"292 -7 QCURVE"
);
}
);
width = 557;
}
);
leftKerningGroup = _kern5;
rightKerningGroup = _kern6;
},
{
color = (166, 255, 153, 255);
glyphname = copyright;
layers = (
{
layerId = "9D659DC9-364F-48BE-86F1-3EC0559472C9";
paths = (
{
closed = 1;
nodes = (
"551 722 OFFCURVE",
"700 662 OFFCURVE",
"807 554 OFFCURVE",
"866 401 OFFCURVE",
"866 308 QCURVE",
"866 212 OFFCURVE",
"808 59 OFFCURVE",
"702 -48 OFFCURVE",
"552 -105 OFFCURVE",
"461 -105 QCURVE",
"369 -105 OFFCURVE",
"219 -48 OFFCURVE",
"112 59 OFFCURVE",
"54 212 OFFCURVE",
"54 308 QCURVE",
"54 402 OFFCURVE",
"113 555 OFFCURVE",
"221 663 OFFCURVE",
"371 722 OFFCURVE",
"461 722 QCURVE"
);
},
{
closed = 1;
nodes = (
"392 637 OFFCURVE",
"275 591 OFFCURVE",
"191 505 OFFCURVE",
"145 383 OFFCURVE",
"145 307 QCURVE",
"145 230 OFFCURVE",
"190 109 OFFCURVE",
"274 24 OFFCURVE",
"391 -21 OFFCURVE",
"463 -21 QCURVE",
"535 -21 OFFCURVE",
"651 24 OFFCURVE",
"734 109 OFFCURVE",
"778 230 OFFCURVE",
"778 307 QCURVE",
"778 383 OFFCURVE",
"732 505 OFFCURVE",
"649 591 OFFCURVE",
"533 637 OFFCURVE",
"463 637 QCURVE"
);
},
{
closed = 1;
nodes = (
"420 96 OFFCURVE",
"346 127 OFFCURVE",
"297 183 OFFCURVE",
"272 262 OFFCURVE",
"272 309 QCURVE",
"272 355 OFFCURVE",
"298 432 OFFCURVE",
"348 488 OFFCURVE",
"421 519 OFFCURVE",
"469 519 QCURVE",
"541 519 OFFCURVE",
"634 453 OFFCURVE",
"647 380 QCURVE",
"551 380 LINE",
"544 406 OFFCURVE",
"501 435 OFFCURVE",
"469 435 QCURVE",
"441 435 OFFCURVE",
"402 415 OFFCURVE",
"377 381 OFFCURVE",
"366 335 OFFCURVE",
"366 309 QCURVE",
"366 282 OFFCURVE",
"378 236 OFFCURVE",
"403 201 OFFCURVE",
"443 181 OFFCURVE",
"472 181 QCURVE",
"505 181 OFFCURVE",
"546 210 OFFCURVE",
"552 235 QCURVE",
"649 235 LINE",
"636 162 OFFCURVE",
"541 96 OFFCURVE",
"470 96 QCURVE"
);
}
);
width = 920;
}
);
unicode = 00A9;
},
{
color = (166, 255, 153, 255);
glyphname = ampersand;
layers = (
{
layerId = "9D659DC9-364F-48BE-86F1-3EC0559472C9";
paths = (
{
closed = 1;
nodes = (
"481 55 LINE",
"441 20 OFFCURVE",
"342 -12 OFFCURVE",
"281 -12 QCURVE",
"236 -12 OFFCURVE",
"156 14 OFFCURVE",
"97 63 OFFCURVE",
"62 136 OFFCURVE",
"62 183 QCURVE",
"62 252 OFFCURVE",
"137 346 OFFCURVE",
"197 378 QCURVE",
"163 411 OFFCURVE",
"124 487 OFFCURVE",
"124 531 QCURVE",
"124 574 OFFCURVE",
"154 642 OFFCURVE",
"206 689 OFFCURVE",
"276 713 OFFCURVE",
"317 713 QCURVE",
"354 713 OFFCURVE",
"420 692 OFFCURVE",
"470 651 OFFCURVE",
"498 591 OFFCURVE",
"498 552 QCURVE",
"498 520 OFFCURVE",
"474 463 OFFCURVE",
"435 415 OFFCURVE",
"382 375 OFFCURVE",
"354 359 QCURVE",
"484 208 LINE",
"498 234 OFFCURVE",
"515 292 OFFCURVE",
"519 322 QCURVE",
"623 322 LINE",
"618 272 OFFCURVE",
"584 177 OFFCURVE",
"554 133 QCURVE",
"675 0 LINE",
"532 0 LINE"
);
},
{
closed = 1;
nodes = (
"304 434 OFFCURVE",
"340 458 OFFCURVE",
"372 488 OFFCURVE",
"393 522 OFFCURVE",
"393 541 QCURVE",
"393 576 OFFCURVE",
"350 617 OFFCURVE",
"315 617 QCURVE",
"277 617 OFFCURVE",
"228 577 OFFCURVE",
"228 538 QCURVE",
"228 520 OFFCURVE",
"239 488 OFFCURVE",
"257 461 OFFCURVE",
"279 437 OFFCURVE",
"289 425 QCURVE"
);
},
{
closed = 1;
nodes = (
"258 307 LINE",
"222 287 OFFCURVE",
"171 230 OFFCURVE",
"171 189 QCURVE",
"171 162 OFFCURVE",
"193 123 OFFCURVE",
"229 98 OFFCURVE",
"274 86 OFFCURVE",
"298 86 QCURVE",
"330 86 OFFCURVE",
"392 107 OFFCURVE",
"418 128 QCURVE"
);
}
);
width = 694;
}
);
unicode = 0026;
},
{
color = (166, 255, 153, 255);
glyphname = dollar;
layers = (
{
layerId = "9D659DC9-364F-48BE-86F1-3EC0559472C9";
paths = (
{
closed = 1;
nodes = (
"283 846 LINE",
"391 846 LINE",
"391 712 LINE",
"478 702 OFFCURVE",
"587 599 OFFCURVE",
"592 507 QCURVE",
"482 507 LINE",
"478 537 OFFCURVE",
"452 577 OFFCURVE",
"412 602 OFFCURVE",
"361 613 OFFCURVE",
"330 613 QCURVE",
"310 613 OFFCURVE",
"262 607 OFFCURVE",
"243 597 QCURVE",
"223 587 OFFCURVE",
"197 550 OFFCURVE",
"197 523 QCURVE",
"197 488 OFFCURVE",
"229 446 OFFCURVE",
"280 421 OFFCURVE",
"343 408 OFFCURVE",
"374 402 QCURVE",
"424 393 OFFCURVE",
"510 369 OFFCURVE",
"573 325 OFFCURVE",
"609 257 OFFCURVE",
"609 205 QCURVE",
"609 152 OFFCURVE",
"573 75 OFFCURVE",
"512 24 OFFCURVE",
"431 -3 OFFCURVE",
"386 -6 QCURVE",
"386 -137 LINE",
"279 -137 LINE",
"279 -3 LINE",
"232 3 OFFCURVE",
"153 36 OFFCURVE",
"94 90 OFFCURVE",
"58 163 OFFCURVE",
"54 210 QCURVE",
"170 210 LINE",
"176 178 OFFCURVE",
"212 135 OFFCURVE",
"262 109 OFFCURVE",
"320 98 OFFCURVE",
"348 98 QCURVE",
"375 98 OFFCURVE",
"427 107 OFFCURVE",
"468 130 OFFCURVE",
"494 169 OFFCURVE",
"494 198 QCURVE",
"494 232 OFFCURVE",
"455 269 OFFCURVE",
"396 290 OFFCURVE",
"327 300 OFFCURVE",
"297 307 QCURVE",
"249 317 OFFCURVE",
"169 348 OFFCURVE",
"110 396 OFFCURVE",
"77 464 OFFCURVE",
"77 512 QCURVE",
"77 560 OFFCURVE",
"112 632 OFFCURVE",
"169 681 OFFCURVE",
"243 708 OFFCURVE",
"283 713 QCURVE"
);
}
);
width = 664;
}
);
unicode = 0024;
},
{
color = (166, 255, 153, 255);
glyphname = parenleft;
layers = (
{
layerId = "9D659DC9-364F-48BE-86F1-3EC0559472C9";
paths = (
{
closed = 1;
nodes = (
"359 813 LINE",
"309 752 OFFCURVE",
"239 627 OFFCURVE",
"195 499 OFFCURVE",
"175 369 OFFCURVE",
"174 304 QCURVE",
"176 172 OFFCURVE",
"260 -81 OFFCURVE",
"358 -203 QCURVE",
"230 -203 LINE",
"187 -149 OFFCURVE",
"123 -26 OFFCURVE",
"81 105 OFFCURVE",
"60 239 OFFCURVE",
"60 304 QCURVE",
"60 369 OFFCURVE",
"81 504 OFFCURVE",
"124 636 OFFCURVE",
"188 759 OFFCURVE",
"231 813 QCURVE"
);
}
);
width = 324;
}
);
unicode = 0028;
},
{
color = (166, 255, 153, 255);
glyphname = parenright;
layers = (
{
layerId = "9D659DC9-364F-48BE-86F1-3EC0559472C9";
paths = (
{
closed = 1;
nodes = (
"-35 -203 LINE",
"64 -81 OFFCURVE",
"148 174 OFFCURVE",
"150 305 QCURVE",
"148 437 OFFCURVE",
"64 691 OFFCURVE",
"-34 813 QCURVE",
"93 813 LINE",
"136 759 OFFCURVE",
"200 636 OFFCURVE",
"243 505 OFFCURVE",
"264 370 OFFCURVE",
"264 305 QCURVE",
"264 240 OFFCURVE",
"242 105 OFFCURVE",
"199 -26 OFFCURVE",
"135 -149 OFFCURVE",
"92 -203 QCURVE"
);
}
);
width = 324;
}
);
unicode = 0029;
},
{
color = (166, 255, 153, 255);
glyphname = cent;
layers = (
{
layerId = "9D659DC9-364F-48BE-86F1-3EC0559472C9";
paths = (
{
closed = 1;
nodes = (
"249 -5 LINE",
"150 12 OFFCURVE",
"54 156 OFFCURVE",
"54 263 QCURVE",
"54 316 OFFCURVE",
"79 406 OFFCURVE",
"129 475 OFFCURVE",
"202 522 OFFCURVE",
"249 531 QCURVE",
"249 675 LINE",
"358 675 LINE",
"358 533 LINE",
"429 523 OFFCURVE",
"524 441 OFFCURVE",
"537 363 QCURVE",
"419 363 LINE",
"411 397 OFFCURVE",
"352 435 OFFCURVE",
"310 435 QCURVE",
"271 435 OFFCURVE",
"217 408 OFFCURVE",
"183 361 OFFCURVE",
"167 298 OFFCURVE",
"167 263 QCURVE",
"167 228 OFFCURVE",
"183 166 OFFCURVE",
"217 119 OFFCURVE",
"271 91 OFFCURVE",
"311 91 QCURVE",
"355 91 OFFCURVE",
"413 130 OFFCURVE",
"421 163 QCURVE",
"539 163 LINE",
"525 84 OFFCURVE",
"427 3 OFFCURVE",
"358 -7 QCURVE",
"358 -155 LINE",
"249 -155 LINE"
);
}
);
width = 593;
}
);
unicode = 00A2;
},
{
color = (166, 255, 153, 255);
glyphname = section;
layers = (
{
layerId = "9D659DC9-364F-48BE-86F1-3EC0559472C9";
paths = (
{
closed = 1;
nodes = (
"265 623 OFFCURVE",
"231 620 OFFCURVE",
"201 608 OFFCURVE",
"180 585 OFFCURVE",
"180 564 QCURVE",
"180 547 OFFCURVE",
"200 526 OFFCURVE",
"229 513 OFFCURVE",
"261 506 OFFCURVE",
"274 503 QCURVE",
"308 496 OFFCURVE",
"382 482 OFFCURVE",
"408 474 QCURVE",
"457 457 OFFCURVE",
"497 393 OFFCURVE",
"497 347 QCURVE",
"497 318 OFFCURVE",
"472 266 OFFCURVE",
"451 247 QCURVE",
"474 230 OFFCURVE",
"497 179 OFFCURVE",
"497 148 QCURVE",
"497 104 OFFCURVE",
"460 45 OFFCURVE",
"401 9 OFFCURVE",
"325 -7 OFFCURVE",
"286 -7 QCURVE",
"243 -7 OFFCURVE",
"162 8 OFFCURVE",
"97 45 OFFCURVE",
"57 107 OFFCURVE",
"54 154 QCURVE",
"161 154 LINE",
"167 132 OFFCURVE",
"194 104 OFFCURVE",
"228 88 OFFCURVE",
"264 81 OFFCURVE",
"281 81 QCURVE",
"299 81 OFFCURVE",
"336 85 OFFCURVE",
"366 97 OFFCURVE",
"386 121 OFFCURVE",
"386 142 QCURVE",
"386 165 OFFCURVE",
"348 186 OFFCURVE",
"326 190 QCURVE",
"315 193 OFFCURVE",
"268 202 OFFCURVE",
"186 217 OFFCURVE",
"115 248 OFFCURVE",
"68 305 OFFCURVE",
"68 355 QCURVE",
"68 422 OFFCURVE",
"119 464 QCURVE",
"98 482 OFFCURVE",
"74 530 OFFCURVE",
"74 561 QCURVE",
"74 604 OFFCURVE",
"111 663 OFFCURVE",
"170 699 OFFCURVE",
"243 714 OFFCURVE",
"279 714 QCURVE",
"318 714 OFFCURVE",
"390 697 OFFCURVE",
"445 660 OFFCURVE",
"481 603 OFFCURVE",
"484 563 QCURVE",
"383 563 LINE",
"380 578 OFFCURVE",
"360 601 OFFCURVE",
"331 616 OFFCURVE",
"296 623 OFFCURVE",
"279 623 QCURVE"
);
},
{
closed = 1;
nodes = (
"192 415 OFFCURVE",
"175 383 OFFCURVE",
"175 366 QCURVE",
"175 340 OFFCURVE",
"212 311 OFFCURVE",
"267 298 OFFCURVE",
"332 287 OFFCURVE",
"360 282 QCURVE",
"374 290 OFFCURVE",
"393 319 OFFCURVE",
"393 338 QCURVE",
"393 366 OFFCURVE",
"355 393 OFFCURVE",
"329 399 QCURVE",
"286 408 OFFCURVE",
"230 418 OFFCURVE",
"205 425 QCURVE"
);
}
);
width = 552;
}
);
unicode = 00A7;
},
{
color = (166, 255, 153, 255);
glyphname = uni04C1;
layers = (
{
layerId = "9D659DC9-364F-48BE-86F1-3EC0559472C9";
paths = (
{
closed = 1;
nodes = (
"490 859 OFFCURVE",
"534 890 OFFCURVE",
"539 922 QCURVE",
"639 922 LINE",
"632 848 OFFCURVE",
"535 777 OFFCURVE",
"454 777 QCURVE",
"374 777 OFFCURVE",
"277 848 OFFCURVE",
"271 922 QCURVE",
"371 922 LINE",
"376 890 OFFCURVE",
"420 859 OFFCURVE",
"455 859 QCURVE"
);
},
{
closed = 1;
nodes = (
"396 0 LINE",
"396 297 LINE",
"313 297 LINE",
"142 0 LINE",
"9 0 LINE",
"221 363 LINE",
"11 707 LINE",
"144 707 LINE",
"320 401 LINE",
"396 401 LINE",
"396 707 LINE",
"512 707 LINE",
"512 401 LINE",
"589 401 LINE",
"766 707 LINE",
"897 707 LINE",
"687 363 LINE",
"899 0 LINE",
"766 0 LINE",
"595 297 LINE",
"512 297 LINE",
"512 0 LINE"
);
}
);
width = 908;
}
);
unicode = 04C1;
},
{
color = (166, 255, 153, 255);
glyphname = uni04C2;
layers = (
{
layerId = "9D659DC9-364F-48BE-86F1-3EC0559472C9";
paths = (
{
closed = 1;
nodes = (
"436 674 OFFCURVE",
"480 706 OFFCURVE",
"485 738 QCURVE",
"586 738 LINE",
"579 663 OFFCURVE",
"481 592 OFFCURVE",
"401 592 QCURVE",
"320 592 OFFCURVE",
"222 663 OFFCURVE",
"216 738 QCURVE",
"317 738 LINE",
"322 706 OFFCURVE",
"366 674 OFFCURVE",
"401 674 QCURVE"
);
},
{
closed = 1;
nodes = (
"457 0 LINE",
"344 0 LINE",
"344 213 LINE",
"280 213 LINE",
"144 0 LINE",
"9 0 LINE",
"193 276 LINE",
"23 527 LINE",
"152 527 LINE",
"289 311 LINE",
"344 311 LINE",
"344 527 LINE",
"457 527 LINE",
"457 311 LINE",
"512 311 LINE",
"649 527 LINE",
"778 527 LINE",
"608 276 LINE",
"792 0 LINE",
"658 0 LINE",
"521 213 LINE",
"457 213 LINE"
);
}
);
width = 801;
}
);
unicode = 04C2;
},
{
color = (166, 255, 153, 255);
glyphname = w_alt;
layers = (
{
layerId = "9D659DC9-364F-48BE-86F1-3EC0559472C9";
paths = (
{
closed = 1;
nodes = (
"538 118 LINE",
"649 527 LINE",
"770 527 LINE",
"607 0 LINE",
"471 0 LINE",
"390 272 LINE",
"311 0 LINE",
"172 0 LINE",
"9 527 LINE",
"135 527 LINE",
"245 118 LINE",
"335 409 LINE",
"448 409 LINE"
);
}
);
width = 779;
}
);
leftKerningGroup = _kern20;
rightKerningGroup = _kern20;
},
{
color = (166, 255, 153, 255);
glyphname = W_alt;
layers = (
{
layerId = "9D659DC9-364F-48BE-86F1-3EC0559472C9";
paths = (
{
closed = 1;
nodes = (
"529 548 LINE",
"633 115 LINE",
"757 707 LINE",
"881 707 LINE",
"714 0 LINE",
"550 0 LINE",
"449 431 LINE",
"348 0 LINE",
"182 0 LINE",
"9 707 LINE",
"140 707 LINE",
"267 115 LINE",
"373 548 LINE"
);
}
);
width = 890;
}
);
leftKerningGroup = _kern19;
rightKerningGroup = _kern19;
},
{
color = (166, 255, 153, 255);
glyphname = zero;
layers = (
{
layerId = "9D659DC9-364F-48BE-86F1-3EC0559472C9";
paths = (
{
closed = 1;
nodes = (
"606 273 OFFCURVE",
"573 140 OFFCURVE",
"504 46 OFFCURVE",
"400 -6 OFFCURVE",
"329 -6 QCURVE",
"258 -6 OFFCURVE",
"154 45 OFFCURVE",
"86 137 OFFCURVE",
"52 267 OFFCURVE",
"52 347 QCURVE",
"52 429 OFFCURVE",
"84 565 OFFCURVE",
"152 663 OFFCURVE",
"257 716 OFFCURVE",
"329 716 QCURVE",
"399 716 OFFCURVE",
"503 664 OFFCURVE",
"572 568 OFFCURVE",
"606 435 OFFCURVE",
"606 354 QCURVE"
);
},
{
closed = 1;
nodes = (
"167 299 OFFCURVE",
"183 205 OFFCURVE",
"221 136 OFFCURVE",
"283 97 OFFCURVE",
"329 97 QCURVE",
"374 97 OFFCURVE",
"436 136 OFFCURVE",
"474 205 OFFCURVE",
"490 299 OFFCURVE",
"490 354 QCURVE",
"490 408 OFFCURVE",
"474 503 OFFCURVE",
"436 572 OFFCURVE",
"374 612 OFFCURVE",
"329 612 QCURVE",
"283 612 OFFCURVE",
"221 572 OFFCURVE",
"183 503 OFFCURVE",
"167 408 OFFCURVE",
"167 354 QCURVE"
);
}
);
width = 657;
}
);
unicode = 0030;
},
{
color = (166, 255, 153, 255);
glyphname = one;
layers = (
{
layerId = "9D659DC9-364F-48BE-86F1-3EC0559472C9";
paths = (
{
closed = 1;
nodes = (
"280 0 LINE",
"164 0 LINE",
"164 544 LINE",
"20 544 LINE",
"20 623 LINE",
"79 625 OFFCURVE",
"169 660 OFFCURVE",
"195 707 QCURVE",
"280 707 LINE"
);
}
);
width = 382;
}
);
unicode = 0031;
},
{
color = (166, 255, 153, 255);
glyphname = two;
layers = (
{
layerId = "9D659DC9-364F-48BE-86F1-3EC0559472C9";
paths = (
{
closed = 1;
nodes = (
"220 264 LINE",
"244 285 OFFCURVE",
"303 335 OFFCURVE",
"356 390 OFFCURVE",
"391 454 OFFCURVE",
"391 491 QCURVE",
"391 545 OFFCURVE",
"327 611 OFFCURVE",
"267 611 QCURVE",
"219 611 OFFCURVE",
"153 567 OFFCURVE",
"145 530 QCURVE",
"31 530 LINE",
"35 576 OFFCURVE",
"78 648 OFFCURVE",
"144 694 OFFCURVE",
"223 715 OFFCURVE",
"274 715 QCURVE",
"322 715 OFFCURVE",
"406 689 OFFCURVE",
"469 637 OFFCURVE",
"506 558 OFFCURVE",
"506 505 QCURVE",
"506 463 OFFCURVE",
"484 393 OFFCURVE",
"446 333 OFFCURVE",
"397 281 OFFCURVE",
"370 258 QCURVE",
"334 227 OFFCURVE",
"279 182 OFFCURVE",
"235 146 OFFCURVE",
"199 117 OFFCURVE",
"183 103 QCURVE",
"506 103 LINE",
"506 0 LINE",
"25 0 LINE",
"25 95 LINE"
);
}
);
width = 551;
}
);
unicode = 0032;
},
{
color = (166, 255, 153, 255);
glyphname = three;
layers = (
{
layerId = "9D659DC9-364F-48BE-86F1-3EC0559472C9";
paths = (
{
closed = 1;
nodes = (
"245 -7 OFFCURVE",
"155 14 OFFCURVE",
"84 59 OFFCURVE",
"35 131 OFFCURVE",
"28 182 QCURVE",
"145 182 LINE",
"153 156 OFFCURVE",
"185 124 OFFCURVE",
"226 104 OFFCURVE",
"272 97 OFFCURVE",
"294 97 QCURVE",
"317 97 OFFCURVE",
"367 106 OFFCURVE",
"408 130 OFFCURVE",
"435 173 OFFCURVE",
"435 208 QCURVE",
"435 240 OFFCURVE",
"410 280 OFFCURVE",
"369 302 OFFCURVE",
"318 310 OFFCURVE",
"292 310 QCURVE",
"222 310 LINE",
"222 408 LINE",
"263 408 LINE",
"287 408 OFFCURVE",
"339 418 OFFCURVE",
"382 442 OFFCURVE",
"409 482 OFFCURVE",
"409 512 QCURVE",
"409 541 OFFCURVE",
"389 580 OFFCURVE",
"355 603 OFFCURVE",
"312 612 OFFCURVE",
"288 612 QCURVE",
"247 612 OFFCURVE",
"175 575 OFFCURVE",
"164 529 QCURVE",
"50 529 LINE",
"56 578 OFFCURVE",
"98 649 OFFCURVE",
"164 694 OFFCURVE",
"247 716 OFFCURVE",
"293 716 QCURVE",
"338 716 OFFCURVE",
"421 696 OFFCURVE",
"485 652 OFFCURVE",
"523 581 OFFCURVE",
"523 530 QCURVE",
"523 488 OFFCURVE",
"482 406 OFFCURVE",
"427 378 QCURVE",
"490 361 OFFCURVE",
"552 272 OFFCURVE",
"552 209 QCURVE",
"552 151 OFFCURVE",
"509 70 OFFCURVE",
"440 17 OFFCURVE",
"346 -7 OFFCURVE",
"294 -7 QCURVE"
);
}
);
width = 604;
}
);
unicode = 0033;
},
{
color = (166, 255, 153, 255);
glyphname = four;
layers = (
{
layerId = "9D659DC9-364F-48BE-86F1-3EC0559472C9";
paths = (
{
closed = 1;
nodes = (
"517 707 LINE",
"517 238 LINE",
"598 238 LINE",
"598 136 LINE",
"517 136 LINE",
"517 0 LINE",
"402 0 LINE",
"402 136 LINE",
"37 136 LINE",
"37 219 LINE",
"368 707 LINE"
);
},
{
closed = 1;
nodes = (
"171 238 LINE",
"402 238 LINE",
"402 584 LINE"
);
}
);
width = 630;
}
);
unicode = 0034;
},
{
color = (166, 255, 153, 255);
glyphname = seven;
layers = (
{
layerId = "9D659DC9-364F-48BE-86F1-3EC0559472C9";
paths = (
{
closed = 1;
nodes = (
"85 0 LINE",
"358 603 LINE",
"7 603 LINE",
"7 707 LINE",
"489 707 LINE",
"489 617 LINE",
"214 0 LINE"
);
}
);
width = 507;
}
);
unicode = 0037;
},
{
color = (166, 255, 153, 255);
glyphname = eight;
layers = (
{
layerId = "9D659DC9-364F-48BE-86F1-3EC0559472C9";
paths = (
{
closed = 1;
nodes = (
"569 140 OFFCURVE",
"524 61 OFFCURVE",
"451 13 OFFCURVE",
"359 -8 OFFCURVE",
"311 -8 QCURVE",
"262 -8 OFFCURVE",
"169 14 OFFCURVE",
"96 63 OFFCURVE",
"52 141 OFFCURVE",
"52 198 QCURVE",
"52 259 OFFCURVE",
"107 349 OFFCURVE",
"167 372 QCURVE",
"141 385 OFFCURVE",
"106 421 OFFCURVE",
"85 462 OFFCURVE",
"76 506 OFFCURVE",
"76 526 QCURVE",
"76 577 OFFCURVE",
"115 649 OFFCURVE",
"181 695 OFFCURVE",
"266 716 OFFCURVE",
"312 716 QCURVE",
"357 716 OFFCURVE",
"442 695 OFFCURVE",
"507 649 OFFCURVE",
"546 577 OFFCURVE",
"546 526 QCURVE",
"546 506 OFFCURVE",
"536 462 OFFCURVE",
"515 422 OFFCURVE",
"479 386 OFFCURVE",
"454 374 QCURVE",
"514 351 OFFCURVE",
"569 259 OFFCURVE",
"569 198 QCURVE"
);
},
{
closed = 1;
nodes = (
"287 614 OFFCURVE",
"243 603 OFFCURVE",
"210 579 OFFCURVE",
"191 540 OFFCURVE",
"191 513 QCURVE",
"191 459 OFFCURVE",
"260 408 OFFCURVE",
"311 408 QCURVE",
"335 408 OFFCURVE",
"379 420 OFFCURVE",
"411 445 OFFCURVE",
"430 483 OFFCURVE",
"430 509 QCURVE",
"430 537 OFFCURVE",
"411 577 OFFCURVE",
"379 603 OFFCURVE",
"335 614 OFFCURVE",
"311 614 QCURVE"
);
},
{
closed = 1;
nodes = (
"283 315 OFFCURVE",
"232 303 OFFCURVE",
"192 277 OFFCURVE",
"168 235 OFFCURVE",
"168 205 QCURVE",
"168 172 OFFCURVE",
"196 129 OFFCURVE",
"238 104 OFFCURVE",
"288 94 OFFCURVE",
"311 94 QCURVE",
"334 94 OFFCURVE",
"384 104 OFFCURVE",
"425 129 OFFCURVE",
"452 172 OFFCURVE",
"452 205 QCURVE",
"452 235 OFFCURVE",
"428 277 OFFCURVE",
"388 303 OFFCURVE",
"337 315 OFFCURVE",
"310 315 QCURVE"
);
}
);
width = 621;
}
);
unicode = 0038;
},
{
color = (166, 255, 153, 255);
glyphname = nine;
layers = (
{
layerId = "9D659DC9-364F-48BE-86F1-3EC0559472C9";
paths = (
{
closed = 1;
nodes = (
"443 315 OFFCURVE",
"403 283 OFFCURVE",
"356 262 OFFCURVE",
"304 252 OFFCURVE",
"278 252 QCURVE",
"228 252 OFFCURVE",
"145 283 OFFCURVE",
"83 341 OFFCURVE",
"49 425 OFFCURVE",
"49 478 QCURVE",
"49 532 OFFCURVE",
"88 620 OFFCURVE",
"155 681 OFFCURVE",
"246 714 OFFCURVE",
"299 714 QCURVE",
"373 715 OFFCURVE",
"482 648 OFFCURVE",
"541 547 OFFCURVE",
"566 418 OFFCURVE",
"568 353 QCURVE",
"568 285 OFFCURVE",
"542 155 OFFCURVE",
"479 54 OFFCURVE",
"373 -7 OFFCURVE",
"293 -7 QCURVE",
"249 -7 OFFCURVE",
"170 14 OFFCURVE",
"106 57 OFFCURVE",
"62 122 OFFCURVE",
"55 167 QCURVE",
"174 167 LINE",
"187 131 OFFCURVE",
"255 96 OFFCURVE",
"293 96 QCURVE",
"323 96 OFFCURVE",
"369 113 OFFCURVE",
"405 141 OFFCURVE",
"431 180 OFFCURVE",
"439 202 QCURVE",
"452 235 OFFCURVE",
"458 304 OFFCURVE",
"458 338 QCURVE"
);
},
{
closed = 1;
nodes = (
"165 424 OFFCURVE",
"236 354 OFFCURVE",
"296 354 QCURVE",
"323 354 OFFCURVE",
"372 371 OFFCURVE",
"408 402 OFFCURVE",
"429 447 OFFCURVE",
"430 474 QCURVE",
"430 502 OFFCURVE",
"412 552 OFFCURVE",
"378 589 OFFCURVE",
"329 611 OFFCURVE",
"299 611 QCURVE",
"241 611 OFFCURVE",
"166 543 OFFCURVE",
"165 485 QCURVE"
);
}
);
width = 619;
}
);
unicode = 0039;
},
{
color = (166, 255, 153, 255);
glyphname = uni0430;
layers = (
{
layerId = "9D659DC9-364F-48BE-86F1-3EC0559472C9";
paths = (
{
closed = 1;
nodes = (
"402 65 LINE",
"376 28 OFFCURVE",
"290 -7 OFFCURVE",
"237 -7 QCURVE",
"195 -7 OFFCURVE",
"126 13 OFFCURVE",
"74 54 OFFCURVE",
"44 115 OFFCURVE",
"44 154 QCURVE",
"44 197 OFFCURVE",
"78 258 OFFCURVE",
"137 296 OFFCURVE",
"217 315 OFFCURVE",
"261 315 QCURVE",
"396 315 LINE",
"396 373 OFFCURVE",
"344 437 OFFCURVE",
"279 438 QCURVE",
"241 438 OFFCURVE",
"186 412 OFFCURVE",
"177 382 QCURVE",
"60 382 LINE",
"66 424 OFFCURVE",
"109 482 OFFCURVE",
"170 520 OFFCURVE",
"245 536 OFFCURVE",
"283 536 QCURVE",
"332 536 OFFCURVE",
"416 510 OFFCURVE",
"447 479 QCURVE",
"482 443 OFFCURVE",
"506 343 OFFCURVE",
"506 284 QCURVE",
"506 0 LINE",
"407 0 LINE"
);
},
{
closed = 1;
nodes = (
"286 234 LINE",
"257 234 OFFCURVE",
"199 225 OFFCURVE",
"158 192 OFFCURVE",
"158 161 QCURVE",
"158 123 OFFCURVE",
"213 84 OFFCURVE",
"253 84 QCURVE",
"284 84 OFFCURVE",
"337 100 OFFCURVE",
"375 137 OFFCURVE",
"396 194 OFFCURVE",
"396 234 QCURVE"
);
}
);
width = 566;
}
);
leftKerningGroup = _kern27;
rightKerningGroup = _kern27;
unicode = 0430;
},
{
color = (166, 255, 153, 255);
glyphname = uni0435;
layers = (
{
layerId = "9D659DC9-364F-48BE-86F1-3EC0559472C9";
paths = (
{
closed = 1;
nodes = (
"156 225 LINE",
"158 196 OFFCURVE",
"178 146 OFFCURVE",
"212 109 OFFCURVE",
"263 87 OFFCURVE",
"297 87 QCURVE",
"333 87 OFFCURVE",
"394 113 OFFCURVE",
"408 145 QCURVE",
"525 145 LINE",
"515 105 OFFCURVE",
"470 47 OFFCURVE",
"409 10 OFFCURVE",
"336 -7 OFFCURVE",
"295 -7 QCURVE",
"232 -7 OFFCURVE",
"137 31 OFFCURVE",
"73 103 OFFCURVE",
"42 202 OFFCURVE",
"42 264 QCURVE",
"42 324 OFFCURVE",
"76 423 OFFCURVE",
"141 495 OFFCURVE",
"233 536 OFFCURVE",
"292 536 QCURVE",
"354 536 OFFCURVE",
"444 495 OFFCURVE",
"505 425 OFFCURVE",
"535 331 OFFCURVE",
"535 276 QCURVE",
"535 250 OFFCURVE",
"532 225 QCURVE"
);
},
{
closed = 1;
nodes = (
"424 311 LINE",
"421 373 OFFCURVE",
"350 437 OFFCURVE",
"293 437 QCURVE",
"261 437 OFFCURVE",
"213 417 OFFCURVE",
"180 383 OFFCURVE",
"160 337 OFFCURVE",
"157 311 QCURVE"
);
}
);
width = 576;
}
);
leftKerningGroup = _kern9;
rightKerningGroup = _kern10;
unicode = 0435;
},
{
color = (166, 255, 153, 255);
glyphname = uni043E;
layers = (
{
layerId = "9D659DC9-364F-48BE-86F1-3EC0559472C9";
paths = (
{
closed = 1;
nodes = (
"362 536 OFFCURVE",
"458 496 OFFCURVE",
"525 425 OFFCURVE",
"559 325 OFFCURVE",
"559 264 QCURVE",
"559 202 OFFCURVE",
"526 103 OFFCURVE",
"460 31 OFFCURVE",
"363 -7 OFFCURVE",
"299 -7 QCURVE",
"236 -7 OFFCURVE",
"140 32 OFFCURVE",
"75 103 OFFCURVE",
"42 203 OFFCURVE",
"42 264 QCURVE",
"42 325 OFFCURVE",
"75 425 OFFCURVE",
"141 496 OFFCURVE",
"237 536 OFFCURVE",
"299 536 QCURVE"
);
},
{
closed = 1;
nodes = (
"338 92 OFFCURVE",
"393 119 OFFCURVE",
"428 165 OFFCURVE",
"445 227 OFFCURVE",
"445 263 QCURVE",
"445 299 OFFCURVE",
"428 362 OFFCURVE",
"393 408 OFFCURVE",
"338 434 OFFCURVE",
"299 434 QCURVE",
"263 434 OFFCURVE",
"206 408 OFFCURVE",
"171 362 OFFCURVE",
"154 299 OFFCURVE",
"154 263 QCURVE",
"154 227 OFFCURVE",
"171 165 OFFCURVE",
"206 119 OFFCURVE",
"261 92 OFFCURVE",
"299 92 QCURVE"
);
}
);
width = 601;
}
);
leftKerningGroup = _kern9;
rightKerningGroup = _kern10;
unicode = 043E;
},
{
color = (166, 255, 153, 255);
glyphname = uni0441;
layers = (
{
layerId = "9D659DC9-364F-48BE-86F1-3EC0559472C9";
paths = (
{
closed = 1;
nodes = (
"231 -7 OFFCURVE",
"136 32 OFFCURVE",
"73 103 OFFCURVE",
"42 202 OFFCURVE",
"42 262 QCURVE",
"42 322 OFFCURVE",
"75 422 OFFCURVE",
"141 494 OFFCURVE",
"235 536 OFFCURVE",
"297 536 QCURVE",
"341 536 OFFCURVE",
"416 517 OFFCURVE",
"474 474 OFFCURVE",
"516 409 OFFCURVE",
"524 363 QCURVE",
"406 363 LINE",
"397 397 OFFCURVE",
"338 434 OFFCURVE",
"295 434 QCURVE",
"257 434 OFFCURVE",
"203 406 OFFCURVE",
"169 358 OFFCURVE",
"154 295 OFFCURVE",
"154 261 QCURVE",
"154 226 OFFCURVE",
"170 164 OFFCURVE",
"205 119 OFFCURVE",
"259 92 OFFCURVE",
"297 92 QCURVE",
"342 92 OFFCURVE",
"401 132 OFFCURVE",
"409 165 QCURVE",
"526 165 LINE",
"518 120 OFFCURVE",
"475 54 OFFCURVE",
"413 12 OFFCURVE",
"337 -7 OFFCURVE",
"294 -7 QCURVE"
);
}
);
width = 562;
}
);
leftKerningGroup = _kern9;
rightKerningGroup = _kern10;
unicode = 0441;
},
{
color = (166, 255, 153, 255);
glyphname = uni0218;
layers = (
{
layerId = "9D659DC9-364F-48BE-86F1-3EC0559472C9";
paths = (
{
closed = 1;
nodes = (
"296 613 OFFCURVE",
"248 605 OFFCURVE",
"208 584 OFFCURVE",
"183 547 OFFCURVE",
"183 519 QCURVE",
"183 479 OFFCURVE",
"235 435 OFFCURVE",
"275 424 QCURVE",
"366 401 OFFCURVE",
"388 397 QCURVE",
"429 386 OFFCURVE",
"503 360 OFFCURVE",
"559 318 OFFCURVE",
"592 253 OFFCURVE",
"592 205 QCURVE",
"592 148 OFFCURVE",
"551 68 OFFCURVE",
"481 16 OFFCURVE",
"387 -8 OFFCURVE",
"333 -8 QCURVE",
"278 -8 OFFCURVE",
"179 15 OFFCURVE",
"101 66 OFFCURVE",
"50 146 OFFCURVE",
"43 202 QCURVE",
"162 202 LINE",
"170 172 OFFCURVE",
"205 132 OFFCURVE",
"252 108 OFFCURVE",
"306 98 OFFCURVE",
"334 98 QCURVE",
"362 98 OFFCURVE",
"413 107 OFFCURVE",
"452 130 OFFCURVE",
"475 167 OFFCURVE",
"475 194 QCURVE",
"475 235 OFFCURVE",
"431 270 OFFCURVE",
"398 280 QCURVE",
"362 290 OFFCURVE",
"285 308 OFFCURVE",
"211 329 OFFCURVE",
"144 358 OFFCURVE",
"94 403 OFFCURVE",
"65 467 OFFCURVE",
"65 513 QCURVE",
"65 570 OFFCURVE",
"109 648 OFFCURVE",
"181 695 OFFCURVE",
"271 716 OFFCURVE",
"317 716 QCURVE",
"367 716 OFFCURVE",
"457 694 OFFCURVE",
"527 646 OFFCURVE",
"571 569 OFFCURVE",
"575 515 QCURVE",
"460 515 LINE",
"457 542 OFFCURVE",
"432 578 OFFCURVE",
"395 601 OFFCURVE",
"346 612 OFFCURVE",
"319 613 QCURVE"
);
},
{
closed = 1;
nodes = (
"292 -187 OFFCURVE",
"259 -157 OFFCURVE",
"259 -132 QCURVE",
"259 -106 OFFCURVE",
"295 -74 OFFCURVE",
"321 -74 QCURVE",
"356 -74 OFFCURVE",
"390 -121 OFFCURVE",
"390 -152 QCURVE",
"390 -175 OFFCURVE",
"373 -222 OFFCURVE",
"344 -264 OFFCURVE",
"304 -296 OFFCURVE",
"281 -304 QCURVE",
"257 -270 LINE",
"277 -256 OFFCURVE",
"312 -214 OFFCURVE",
"318 -189 QCURVE"
);
}
);
width = 636;
}
);
unicode = 0218;
},
{
color = (166, 255, 153, 255);
glyphname = uni0219;
layers = (
{
layerId = "9D659DC9-364F-48BE-86F1-3EC0559472C9";
paths = (
{
closed = 1;
nodes = (
"244 441 OFFCURVE",
"211 437 OFFCURVE",
"182 424 OFFCURVE",
"163 400 OFFCURVE",
"163 381 QCURVE",
"163 361 OFFCURVE",
"200 327 OFFCURVE",
"253 317 QCURVE",
"304 308 OFFCURVE",
"387 288 OFFCURVE",
"447 255 OFFCURVE",
"480 200 OFFCURVE",
"480 153 QCURVE",
"480 108 OFFCURVE",
"443 46 OFFCURVE",
"385 9 OFFCURVE",
"310 -7 OFFCURVE",
"272 -7 QCURVE",
"232 -7 OFFCURVE",
"153 9 OFFCURVE",
"87 46 OFFCURVE",
"43 109 OFFCURVE",
"38 155 QCURVE",
"154 155 LINE",
"159 135 OFFCURVE",
"185 109 OFFCURVE",
"218 93 OFFCURVE",
"254 87 OFFCURVE",
"270 87 QCURVE",
"279 87 OFFCURVE",
"313 89 OFFCURVE",
"346 100 OFFCURVE",
"370 124 OFFCURVE",
"370 145 QCURVE",
"370 167 OFFCURVE",
"344 194 OFFCURVE",
"305 209 OFFCURVE",
"246 221 OFFCURVE",
"217 227 QCURVE",
"188 233 OFFCURVE",
"129 252 OFFCURVE",
"82 282 OFFCURVE",
"53 333 OFFCURVE",
"53 372 QCURVE",
"53 420 OFFCURVE",
"91 482 OFFCURVE",
"151 521 OFFCURVE",
"225 536 OFFCURVE",
"261 536 QCURVE",
"348 536 OFFCURVE",
"459 456 OFFCURVE",
"464 380 QCURVE",
"357 380 LINE",
"352 412 OFFCURVE",
"297 439 OFFCURVE",
"259 441 QCURVE"
);
},
{
closed = 1;
nodes = (
"244 -188 OFFCURVE",
"211 -158 OFFCURVE",
"211 -133 QCURVE",
"211 -107 OFFCURVE",
"247 -74 OFFCURVE",
"273 -74 QCURVE",
"309 -74 OFFCURVE",
"343 -122 OFFCURVE",
"343 -153 QCURVE",
"343 -176 OFFCURVE",
"326 -223 OFFCURVE",
"296 -265 OFFCURVE",
"256 -297 OFFCURVE",
"233 -306 QCURVE",
"209 -271 LINE",
"229 -257 OFFCURVE",
"264 -215 OFFCURVE",
"270 -190 QCURVE"
);
}
);
width = 520;
}
);
leftKerningGroup = _kern5;
rightKerningGroup = _kern6;
unicode = 0219;
},
{
color = (166, 255, 153, 255);
glyphname = uni021A;
layers = (
{
layerId = "9D659DC9-364F-48BE-86F1-3EC0559472C9";
paths = (
{
closed = 1;
nodes = (
"347 0 LINE",
"231 0 LINE",
"231 603 LINE",
"9 603 LINE",
"9 707 LINE",
"569 707 LINE",
"569 603 LINE",
"347 603 LINE"
);
},
{
closed = 1;
nodes = (
"259 -187 OFFCURVE",
"226 -157 OFFCURVE",
"226 -132 QCURVE",
"226 -106 OFFCURVE",
"262 -74 OFFCURVE",
"288 -74 QCURVE",
"323 -74 OFFCURVE",
"357 -121 OFFCURVE",
"357 -152 QCURVE",
"357 -175 OFFCURVE",
"340 -222 OFFCURVE",
"311 -264 OFFCURVE",
"271 -296 OFFCURVE",
"248 -304 QCURVE",
"224 -270 LINE",
"244 -256 OFFCURVE",
"279 -214 OFFCURVE",
"285 -189 QCURVE"
);
}
);
width = 578;
}
);
leftKerningGroup = _kern28;
rightKerningGroup = _kern28;
unicode = 021A;
},
{
color = (166, 255, 153, 255);
glyphname = uni021B;
layers = (
{
layerId = "9D659DC9-364F-48BE-86F1-3EC0559472C9";
paths = (
{
closed = 1;
nodes = (
"220 527 LINE",
"354 527 LINE",
"354 428 LINE",
"220 428 LINE",
"220 185 LINE",
"220 141 OFFCURVE",
"258 98 OFFCURVE",
"305 98 QCURVE",
"346 98 LINE",
"346 0 LINE",
"288 0 LINE",
"190 0 OFFCURVE",
"107 80 OFFCURVE",
"107 171 QCURVE",
"107 428 LINE",
"24 428 LINE",
"24 527 LINE",
"107 527 LINE",
"107 676 LINE",
"220 676 LINE"
);
},
{
closed = 1;
nodes = (
"186 -188 OFFCURVE",
"153 -158 OFFCURVE",
"153 -133 QCURVE",
"153 -107 OFFCURVE",
"189 -74 OFFCURVE",
"215 -74 QCURVE",
"250 -74 OFFCURVE",
"284 -122 OFFCURVE",
"284 -153 QCURVE",
"284 -176 OFFCURVE",
"267 -223 OFFCURVE",
"238 -265 OFFCURVE",
"198 -297 OFFCURVE",
"175 -306 QCURVE",
"151 -271 LINE",
"171 -257 OFFCURVE",
"206 -215 OFFCURVE",
"212 -190 QCURVE"
);
}
);
width = 388;
}
);
leftKerningGroup = _kern21;
rightKerningGroup = _kern21;
unicode = 021B;
},
{
color = (166, 255, 153, 255);
glyphname = question;
layers = (
{
layerId = "9D659DC9-364F-48BE-86F1-3EC0559472C9";
paths = (
{
closed = 1;
nodes = (
"190 218 LINE",
"188 226 OFFCURVE",
"188 241 OFFCURVE",
"188 249 QCURVE",
"188 279 OFFCURVE",
"213 329 OFFCURVE",
"250 373 OFFCURVE",
"294 412 OFFCURVE",
"331 453 OFFCURVE",
"357 498 OFFCURVE",
"358 525 QCURVE",
"358 570 OFFCURVE",
"302 612 OFFCURVE",
"251 612 QCURVE",
"232 612 OFFCURVE",
"196 603 OFFCURVE",
"166 585 OFFCURVE",
"146 555 OFFCURVE",
"143 534 QCURVE",
"32 534 LINE",
"34 573 OFFCURVE",
"66 640 OFFCURVE",
"123 688 OFFCURVE",
"205 716 OFFCURVE",
"258 716 QCURVE",
"300 716 OFFCURVE",
"378 696 OFFCURVE",
"437 653 OFFCURVE",
"472 585 OFFCURVE",
"472 537 QCURVE",
"472 492 OFFCURVE",
"440 423 OFFCURVE",
"410 391 QCURVE",
"392 371 OFFCURVE",
"352 335 OFFCURVE",
"319 296 OFFCURVE",
"298 252 OFFCURVE",
"298 225 QCURVE",
"298 218 LINE"
);
},
{
closed = 1;
nodes = (
"279 137 OFFCURVE",
"318 96 OFFCURVE",
"318 63 QCURVE",
"318 31 OFFCURVE",
"279 -8 OFFCURVE",
"245 -8 QCURVE",
"211 -8 OFFCURVE",
"171 30 OFFCURVE",
"171 63 QCURVE",
"171 96 OFFCURVE",
"211 137 OFFCURVE",
"245 137 QCURVE"
);
}
);
width = 522;
}
);
unicode = 003F;
},
{
color = (166, 255, 153, 255);
glyphname = uni2116;
layers = (
{
layerId = "9D659DC9-364F-48BE-86F1-3EC0559472C9";
paths = (
{
closed = 1;
nodes = (
"818 392 OFFCURVE",
"759 417 OFFCURVE",
"718 462 OFFCURVE",
"698 521 OFFCURVE",
"698 556 QCURVE",
"698 628 OFFCURVE",
"779 719 OFFCURVE",
"857 719 QCURVE",
"895 719 OFFCURVE",
"954 695 OFFCURVE",
"994 651 OFFCURVE",
"1014 592 OFFCURVE",
"1014 556 QCURVE",
"1014 521 OFFCURVE",
"993 462 OFFCURVE",
"953 417 OFFCURVE",
"895 392 OFFCURVE",
"857 392 QCURVE"
);
},
{
closed = 1;
nodes = (
"54 0 LINE",
"54 707 LINE",
"180 707 LINE",
"498 179 LINE",
"498 707 LINE",
"613 707 LINE",
"613 0 LINE",
"488 0 LINE",
"169 526 LINE",
"169 0 LINE"
);
},
{
closed = 1;
nodes = (
"819 632 OFFCURVE",
"788 586 OFFCURVE",
"788 556 QCURVE",
"788 524 OFFCURVE",
"819 479 OFFCURVE",
"857 479 QCURVE",
"893 479 OFFCURVE",
"923 524 OFFCURVE",
"923 556 QCURVE",
"923 586 OFFCURVE",
"893 632 OFFCURVE",
"857 632 QCURVE"
);
},
{
closed = 1;
nodes = (
"709 348 LINE",
"1002 348 LINE",
"1002 260 LINE",
"709 260 LINE"
);
}
);
width = 1068;
}
);
unicode = 2116;
},
{
color = (166, 255, 153, 255);
glyphname = uni0401;
layers = (
{
layerId = "9D659DC9-364F-48BE-86F1-3EC0559472C9";
paths = (
{
closed = 1;
nodes = (
"246 928 OFFCURVE",
"286 892 OFFCURVE",
"286 859 QCURVE",
"286 826 OFFCURVE",
"247 789 OFFCURVE",
"215 789 QCURVE",
"183 789 OFFCURVE",
"143 826 OFFCURVE",
"143 859 QCURVE",
"143 892 OFFCURVE",
"184 928 OFFCURVE",
"215 928 QCURVE"
);
},
{
closed = 1;
nodes = (
"483 928 OFFCURVE",
"523 892 OFFCURVE",
"523 859 QCURVE",
"523 826 OFFCURVE",
"484 789 OFFCURVE",
"452 789 QCURVE",
"419 789 OFFCURVE",
"380 826 OFFCURVE",
"380 859 QCURVE",
"380 892 OFFCURVE",
"420 928 OFFCURVE",
"452 928 QCURVE"
);
},
{
closed = 1;
nodes = (
"82 707 LINE",
"573 707 LINE",
"573 603 LINE",
"198 603 LINE",
"198 400 LINE",
"530 400 LINE",
"530 296 LINE",
"198 296 LINE",
"198 103 LINE",
"573 103 LINE",
"573 0 LINE",
"82 0 LINE"
);
}
);
width = 616;
}
);
unicode = 0401;
},
{
color = (166, 255, 153, 255);
glyphname = asciitilde;
layers = (
{
layerId = "9D659DC9-364F-48BE-86F1-3EC0559472C9";
paths = (
{
closed = 1;
nodes = (
"82 257 LINE",
"82 262 OFFCURVE",
"82 267 QCURVE",
"82 298 OFFCURVE",
"93 365 OFFCURVE",
"126 422 OFFCURVE",
"184 457 OFFCURVE",
"230 458 QCURVE",
"256 458 OFFCURVE",
"299 442 OFFCURVE",
"335 417 OFFCURVE",
"366 388 OFFCURVE",
"393 363 OFFCURVE",
"419 346 OFFCURVE",
"431 346 QCURVE",
"448 346 OFFCURVE",
"467 370 OFFCURVE",
"475 404 OFFCURVE",
"476 440 OFFCURVE",
"476 452 QCURVE",
"581 452 LINE",
"581 416 OFFCURVE",
"569 344 OFFCURVE",
"536 287 OFFCURVE",
"478 251 OFFCURVE",
"431 251 QCURVE",
"397 251 OFFCURVE",
"335 286 OFFCURVE",
"289 328 OFFCURVE",
"250 363 OFFCURVE",
"231 363 QCURVE",
"214 363 OFFCURVE",
"196 338 OFFCURVE",
"189 304 OFFCURVE",
"188 268 OFFCURVE",
"188 257 QCURVE"
);
}
);
width = 663;
}
);
unicode = 007E;
},
{
color = (166, 255, 153, 255);
glyphname = trademark;
layers = (
{
layerId = "9D659DC9-364F-48BE-86F1-3EC0559472C9";
paths = (
{
closed = 1;
nodes = (
"571 707 LINE",
"666 707 LINE",
"666 421 LINE",
"588 421 LINE",
"588 602 LINE",
"522 477 LINE",
"489 477 LINE",
"423 602 LINE",
"423 421 LINE",
"344 421 LINE",
"344 707 LINE",
"442 707 LINE",
"507 585 LINE"
);
},
{
closed = 1;
nodes = (
"146 634 LINE",
"54 634 LINE",
"54 707 LINE",
"319 707 LINE",
"319 634 LINE",
"225 634 LINE",
"225 421 LINE",
"146 421 LINE"
);
}
);
width = 720;
}
);
unicode = 2122;
},
{
color = (166, 255, 153, 255);
glyphname = registered;
layers = (
{
layerId = "9D659DC9-364F-48BE-86F1-3EC0559472C9";
paths = (
{
closed = 1;
nodes = (
"326 738 OFFCURVE",
"429 636 OFFCURVE",
"429 545 QCURVE",
"429 454 OFFCURVE",
"326 356 OFFCURVE",
"239 356 QCURVE",
"151 356 OFFCURVE",
"47 454 OFFCURVE",
"47 545 QCURVE",
"47 636 OFFCURVE",
"152 738 OFFCURVE",
"239 738 QCURVE"
);
},
{
closed = 1;
nodes = (
"174 691 OFFCURVE",
"98 613 OFFCURVE",
"98 545 QCURVE",
"98 477 OFFCURVE",
"174 405 OFFCURVE",
"239 405 QCURVE",
"303 405 OFFCURVE",
"378 477 OFFCURVE",
"378 545 QCURVE",
"378 613 OFFCURVE",
"304 691 OFFCURVE",
"239 691 QCURVE"
);
},
{
closed = 1;
nodes = (
"333 452 LINE",
"279 452 LINE",
"232 521 LINE",
"210 521 LINE",
"210 452 LINE",
"165 452 LINE",
"165 649 LINE",
"246 649 LINE",
"278 649 OFFCURVE",
"320 623 OFFCURVE",
"320 586 QCURVE",
"320 542 OFFCURVE",
"283 527 QCURVE"
);
},
{
closed = 1;
nodes = (
"246 561 LINE",
"257 561 OFFCURVE",
"275 573 OFFCURVE",
"275 585 QCURVE",
"275 598 OFFCURVE",
"259 607 OFFCURVE",
"248 607 QCURVE",
"210 607 LINE",
"210 561 LINE"
);
}
);
width = 476;
}
);
unicode = 00AE;
},
{
color = (166, 255, 153, 255);
glyphname = degree;
layers = (
{
layerId = "9D659DC9-364F-48BE-86F1-3EC0559472C9";
paths = (
{
closed = 1;
nodes = (
"225 787 OFFCURVE",
"276 767 OFFCURVE",
"314 730 OFFCURVE",
"335 677 OFFCURVE",
"335 643 QCURVE",
"335 575 OFFCURVE",
"255 504 OFFCURVE",
"194 504 QCURVE",
"132 504 OFFCURVE",
"54 575 OFFCURVE",
"54 643 QCURVE",
"54 676 OFFCURVE",
"76 730 OFFCURVE",
"113 767 OFFCURVE",
"165 787 OFFCURVE",
"195 787 QCURVE"
);
},
{
closed = 1;
nodes = (
"224 574 OFFCURVE",
"261 610 OFFCURVE",
"261 644 QCURVE",
"261 679 OFFCURVE",
"224 716 OFFCURVE",
"195 716 QCURVE",
"166 716 OFFCURVE",
"127 679 OFFCURVE",
"127 644 QCURVE",
"127 610 OFFCURVE",
"165 574 OFFCURVE",
"195 574 QCURVE"
);
}
);
width = 389;
}
);
unicode = 00B0;
},
{
color = (166, 255, 153, 255);
glyphname = bullet;
layers = (
{
layerId = "9D659DC9-364F-48BE-86F1-3EC0559472C9";
paths = (
{
closed = 1;
nodes = (
"235 491 OFFCURVE",
"308 424 OFFCURVE",
"308 363 QCURVE",
"308 305 OFFCURVE",
"235 239 OFFCURVE",
"181 239 QCURVE",
"127 239 OFFCURVE",
"54 305 OFFCURVE",
"54 363 QCURVE",
"54 424 OFFCURVE",
"127 491 OFFCURVE",
"181 491 QCURVE"
);
}
);
width = 362;
}
);
unicode = 2022;
},
{
color = (166, 255, 153, 255);
glyphname = uni27F5;
layers = (
{
layerId = "9D659DC9-364F-48BE-86F1-3EC0559472C9";
paths = (
{
closed = 1;
nodes = (
"1324 318 LINE",
"1324 220 LINE",
"241 220 LINE",
"455 26 LINE",
"392 -51 LINE",
"54 270 LINE",
"392 591 LINE",
"454 513 LINE",
"239 318 LINE"
);
}
);
width = 1378;
}
);
unicode = 27F5;
},
{
color = (166, 255, 153, 255);
glyphname = uni27F6;
layers = (
{
layerId = "9D659DC9-364F-48BE-86F1-3EC0559472C9";
paths = (
{
closed = 1;
nodes = (
"1137 220 LINE",
"54 220 LINE",
"54 318 LINE",
"1137 318 LINE",
"923 512 LINE",
"985 591 LINE",
"1324 269 LINE",
"986 -51 LINE",
"923 26 LINE"
);
}
);
width = 1378;
}
);
unicode = 27F6;
},
{
color = (166, 255, 153, 255);
glyphname = arrowup;
layers = (
{
layerId = "9D659DC9-364F-48BE-86F1-3EC0559472C9";
paths = (
{
closed = 1;
nodes = (
"410 0 LINE",
"314 0 LINE",
"314 478 LINE",
"129 255 LINE",
"54 317 LINE",
"362 672 LINE",
"671 317 LINE",
"595 255 LINE",
"410 478 LINE"
);
}
);
width = 725;
}
);
unicode = 2191;
},
{
color = (166, 255, 153, 255);
glyphname = arrowdown;
layers = (
{
layerId = "9D659DC9-364F-48BE-86F1-3EC0559472C9";
paths = (
{
closed = 1;
nodes = (
"130 416 LINE",
"315 194 LINE",
"315 672 LINE",
"411 672 LINE",
"411 194 LINE",
"596 416 LINE",
"671 354 LINE",
"363 0 LINE",
"54 354 LINE"
);
}
);
width = 725;
}
);
unicode = 2193;
},
{
color = (166, 255, 153, 255);
glyphname = uni21BA;
layers = (
{
layerId = "9D659DC9-364F-48BE-86F1-3EC0559472C9";
paths = (
{
closed = 1;
nodes = (
"676 661 LINE",
"743 613 OFFCURVE",
"818 463 OFFCURVE",
"826 390 QCURVE",
"829 363 OFFCURVE",
"829 337 QCURVE",
"829 279 OFFCURVE",
"795 147 OFFCURVE",
"697 29 OFFCURVE",
"549 -42 OFFCURVE",
"456 -45 QCURVE",
"450 -45 OFFCURVE",
"444 -45 QCURVE",
"361 -45 OFFCURVE",
"219 9 OFFCURVE",
"114 113 OFFCURVE",
"56 258 OFFCURVE",
"55 346 QCURVE",
"55 351 OFFCURVE",
"55 355 QCURVE",
"55 442 OFFCURVE",
"130 607 OFFCURVE",
"204 669 QCURVE",
"275 590 LINE",
"220 540 OFFCURVE",
"166 412 OFFCURVE",
"166 346 QCURVE",
"166 343 OFFCURVE",
"166 341 QCURVE",
"166 284 OFFCURVE",
"206 181 OFFCURVE",
"279 104 OFFCURVE",
"380 60 OFFCURVE",
"441 60 QCURVE",
"443 60 OFFCURVE",
"446 60 QCURVE",
"515 61 OFFCURVE",
"622 114 OFFCURVE",
"693 201 OFFCURVE",
"718 296 OFFCURVE",
"718 337 QCURVE",
"718 356 OFFCURVE",
"716 376 QCURVE",
"713 410 OFFCURVE",
"693 474 OFFCURVE",
"663 532 OFFCURVE",
"624 579 OFFCURVE",
"603 596 QCURVE",
"600 385 LINE",
"509 385 LINE",
"516 767 LINE",
"901 721 LINE",
"887 629 LINE"
);
}
);
width = 955;
}
);
unicode = 21BA;
},
{
color = (166, 255, 153, 255);
glyphname = uni21BB;
layers = (
{
layerId = "9D659DC9-364F-48BE-86F1-3EC0559472C9";
paths = (
{
closed = 1;
nodes = (
"68 629 LINE",
"54 721 LINE",
"439 767 LINE",
"446 385 LINE",
"355 385 LINE",
"352 596 LINE",
"331 579 OFFCURVE",
"292 532 OFFCURVE",
"262 474 OFFCURVE",
"242 409 OFFCURVE",
"240 376 QCURVE",
"237 354 OFFCURVE",
"237 334 QCURVE",
"237 294 OFFCURVE",
"262 201 OFFCURVE",
"332 114 OFFCURVE",
"440 61 OFFCURVE",
"509 60 QCURVE",
"512 60 OFFCURVE",
"514 60 QCURVE",
"575 60 OFFCURVE",
"676 104 OFFCURVE",
"749 181 OFFCURVE",
"789 284 OFFCURVE",
"789 341 QCURVE",
"789 343 OFFCURVE",
"789 346 QCURVE",
"789 412 OFFCURVE",
"735 540 OFFCURVE",
"679 590 QCURVE",
"751 669 LINE",
"825 607 OFFCURVE",
"900 442 OFFCURVE",
"900 355 QCURVE",
"900 351 OFFCURVE",
"900 346 QCURVE",
"898 258 OFFCURVE",
"840 113 OFFCURVE",
"735 9 OFFCURVE",
"594 -45 OFFCURVE",
"511 -45 QCURVE",
"505 -45 OFFCURVE",
"499 -45 QCURVE",
"406 -42 OFFCURVE",
"258 29 OFFCURVE",
"160 147 OFFCURVE",
"125 274 OFFCURVE",
"125 326 QCURVE",
"125 357 OFFCURVE",
"130 390 QCURVE",
"136 467 OFFCURVE",
"212 610 OFFCURVE",
"278 661 QCURVE"
);
}
);
width = 955;
}
);
unicode = 21BB;
},
{
color = (166, 255, 153, 255);
glyphname = uni21B7;
layers = (
{
layerId = "9D659DC9-364F-48BE-86F1-3EC0559472C9";
paths = (
{
closed = 1;
nodes = (
"939 191 LINE",
"976 106 LINE",
"616 -33 LINE",
"510 341 LINE",
"599 361 LINE",
"655 152 LINE",
"683 190 OFFCURVE",
"715 295 OFFCURVE",
"715 346 QCURVE",
"715 406 OFFCURVE",
"676 510 OFFCURVE",
"604 587 OFFCURVE",
"502 630 OFFCURVE",
"440 630 QCURVE",
"382 630 OFFCURVE",
"284 590 OFFCURVE",
"211 519 OFFCURVE",
"168 422 OFFCURVE",
"164 365 QCURVE",
"54 365 LINE",
"58 444 OFFCURVE",
"117 580 OFFCURVE",
"218 680 OFFCURVE",
"356 736 OFFCURVE",
"440 736 QCURVE",
"528 736 OFFCURVE",
"670 678 OFFCURVE",
"770 574 OFFCURVE",
"824 431 OFFCURVE",
"824 347 QCURVE",
"824 285 OFFCURVE",
"787 165 OFFCURVE",
"751 114 QCURVE"
);
}
);
width = 1030;
}
);
unicode = 21B7;
},
{
color = (166, 255, 153, 255);
glyphname = uni21B6;
layers = (
{
layerId = "9D659DC9-364F-48BE-86F1-3EC0559472C9";
paths = (
{
closed = 1;
nodes = (
"279 114 LINE",
"243 165 OFFCURVE",
"206 285 OFFCURVE",
"206 347 QCURVE",
"206 431 OFFCURVE",
"260 574 OFFCURVE",
"360 678 OFFCURVE",
"502 736 OFFCURVE",
"590 736 QCURVE",
"674 736 OFFCURVE",
"812 680 OFFCURVE",
"913 580 OFFCURVE",
"971 444 OFFCURVE",
"976 365 QCURVE",
"866 365 LINE",
"862 422 OFFCURVE",
"819 519 OFFCURVE",
"746 590 OFFCURVE",
"648 630 OFFCURVE",
"590 630 QCURVE",
"528 630 OFFCURVE",
"426 587 OFFCURVE",
"354 510 OFFCURVE",
"315 406 OFFCURVE",
"315 346 QCURVE",
"315 295 OFFCURVE",
"346 190 OFFCURVE",
"375 152 QCURVE",
"431 361 LINE",
"521 341 LINE",
"415 -33 LINE",
"54 106 LINE",
"91 191 LINE"
);
}
);
width = 1030;
}
);
unicode = 21B6;
},
{
color = (166, 255, 153, 255);
glyphname = five;
layers = (
{
layerId = "9D659DC9-364F-48BE-86F1-3EC0559472C9";
paths = (
{
closed = 1;
nodes = (
"73 311 LINE",
"111 707 LINE",
"537 707 LINE",
"537 604 LINE",
"208 604 LINE",
"188 420 LINE",
"217 439 OFFCURVE",
"284 460 OFFCURVE",
"331 460 QCURVE",
"384 460 OFFCURVE",
"470 429 OFFCURVE",
"532 371 OFFCURVE",
"565 287 OFFCURVE",
"565 234 QCURVE",
"565 177 OFFCURVE",
"525 87 OFFCURVE",
"455 25 OFFCURVE",
"361 -8 OFFCURVE",
"306 -8 QCURVE",
"259 -8 OFFCURVE",
"176 14 OFFCURVE",
"109 60 OFFCURVE",
"64 133 OFFCURVE",
"57 183 QCURVE",
"172 183 LINE",
"178 162 OFFCURVE",
"205 130 OFFCURVE",
"241 108 OFFCURVE",
"283 97 OFFCURVE",
"304 97 QCURVE",
"334 97 OFFCURVE",
"386 112 OFFCURVE",
"425 144 OFFCURVE",
"447 193 OFFCURVE",
"447 228 QCURVE",
"447 292 OFFCURVE",
"372 360 OFFCURVE",
"311 360 QCURVE",
"273 360 OFFCURVE",
"211 334 OFFCURVE",
"186 311 QCURVE"
);
}
);
width = 614;
}
);
unicode = 0035;
},
{
color = (166, 255, 153, 255);
glyphname = six;
layers = (
{
layerId = "9D659DC9-364F-48BE-86F1-3EC0559472C9";
paths = (
{
closed = 1;
nodes = (
"196 416 OFFCURVE",
"288 456 OFFCURVE",
"340 456 QCURVE",
"392 456 OFFCURVE",
"478 424 OFFCURVE",
"538 366 OFFCURVE",
"571 281 OFFCURVE",
"571 229 QCURVE",
"571 176 OFFCURVE",
"534 90 OFFCURVE",
"468 28 OFFCURVE",
"380 -6 OFFCURVE",
"329 -6 QCURVE",
"253 -6 OFFCURVE",
"148 49 OFFCURVE",
"83 140 OFFCURVE",
"54 261 OFFCURVE",
"53 327 QCURVE",
"53 372 OFFCURVE",
"64 462 OFFCURVE",
"89 545 OFFCURVE",
"130 619 OFFCURVE",
"160 648 QCURVE",
"192 679 OFFCURVE",
"282 715 OFFCURVE",
"340 715 QCURVE",
"427 715 OFFCURVE",
"551 629 OFFCURVE",
"568 540 QCURVE",
"452 540 LINE",
"438 577 OFFCURVE",
"374 612 OFFCURVE",
"336 612 QCURVE",
"304 612 OFFCURVE",
"251 590 OFFCURVE",
"231 570 QCURVE",
"213 552 OFFCURVE",
"187 506 OFFCURVE",
"171 454 OFFCURVE",
"163 400 OFFCURVE",
"163 374 QCURVE"
);
},
{
closed = 1;
nodes = (
"455 281 OFFCURVE",
"384 354 OFFCURVE",
"324 354 QCURVE",
"296 354 OFFCURVE",
"247 335 OFFCURVE",
"210 301 OFFCURVE",
"189 253 OFFCURVE",
"189 225 QCURVE",
"189 199 OFFCURVE",
"209 152 OFFCURVE",
"245 117 OFFCURVE",
"294 96 OFFCURVE",
"323 96 QCURVE",
"381 96 OFFCURVE",
"455 165 OFFCURVE",
"455 221 QCURVE"
);
}
);
width = 620;
}
);
unicode = 0036;
},
{
color = (166, 255, 153, 255);
glyphname = cedilla;
layers = (
{
layerId = "9D659DC9-364F-48BE-86F1-3EC0559472C9";
paths = (
{
closed = 1;
nodes = (
"321 16 LINE",
"304 -50 LINE",
"311 -49 OFFCURVE",
"319 -49 OFFCURVE",
"324 -49 QCURVE",
"362 -49 OFFCURVE",
"409 -91 OFFCURVE",
"409 -133 QCURVE",
"409 -166 OFFCURVE",
"383 -213 OFFCURVE",
"341 -242 OFFCURVE",
"288 -255 OFFCURVE",
"261 -255 QCURVE",
"239 -255 OFFCURVE",
"212 -252 QCURVE",
"213 -185 LINE",
"221 -186 OFFCURVE",
"237 -187 OFFCURVE",
"245 -187 QCURVE",
"281 -187 OFFCURVE",
"323 -166 OFFCURVE",
"323 -143 QCURVE",
"323 -124 OFFCURVE",
"295 -108 OFFCURVE",
"268 -108 QCURVE",
"254 -108 OFFCURVE",
"225 -110 OFFCURVE",
"214 -112 QCURVE",
"247 16 LINE"
);
}
);
width = 605;
}
);
unicode = 00B8;
},
{
color = (248, 153, 255, 255);
glyphname = dotlessi;
layers = (
{
layerId = "9D659DC9-364F-48BE-86F1-3EC0559472C9";
paths = (
{
closed = 1;
nodes = (
"176 0 LINE",
"62 0 LINE",
"62 527 LINE",
"176 527 LINE"
);
}
);
width = 238;
}
);
unicode = 0131;
},
{
color = (166, 255, 153, 255);
glyphname = ccedilla;
layers = (
{
layerId = "9D659DC9-364F-48BE-86F1-3EC0559472C9";
paths = (
{
closed = 1;
nodes = (
"331 -126 OFFCURVE",
"299 -110 OFFCURVE",
"277 -110 QCURVE",
"262 -110 OFFCURVE",
"233 -112 OFFCURVE",
"221 -114 QCURVE",
"248 -4 LINE",
"195 2 OFFCURVE",
"117 45 OFFCURVE",
"64 115 OFFCURVE",
"39 207 OFFCURVE",
"39 262 QCURVE",
"39 322 OFFCURVE",
"72 422 OFFCURVE",
"138 494 OFFCURVE",
"232 536 OFFCURVE",
"294 536 QCURVE",
"385 536 OFFCURVE",
"505 453 OFFCURVE",
"521 363 QCURVE",
"403 363 LINE",
"394 398 OFFCURVE",
"335 434 OFFCURVE",
"292 434 QCURVE",
"253 434 OFFCURVE",
"200 406 OFFCURVE",
"166 358 OFFCURVE",
"151 295 OFFCURVE",
"151 261 QCURVE",
"151 226 OFFCURVE",
"168 164 OFFCURVE",
"203 119 OFFCURVE",
"257 92 OFFCURVE",
"295 92 QCURVE",
"340 92 OFFCURVE",
"398 132 OFFCURVE",
"406 165 QCURVE",
"523 165 LINE",
"516 124 OFFCURVE",
"479 62 OFFCURVE",
"426 21 OFFCURVE",
"359 -2 OFFCURVE",
"323 -5 QCURVE",
"312 -51 LINE",
"320 -50 OFFCURVE",
"331 -50 OFFCURVE",
"333 -50 QCURVE",
"371 -50 OFFCURVE",
"418 -95 OFFCURVE",
"418 -138 QCURVE",
"418 -171 OFFCURVE",
"392 -217 OFFCURVE",
"348 -246 OFFCURVE",
"292 -259 OFFCURVE",
"264 -259 QCURVE",
"243 -259 OFFCURVE",
"219 -256 QCURVE",
"220 -188 LINE",
"227 -189 OFFCURVE",
"245 -190 OFFCURVE",
"251 -190 QCURVE",
"288 -190 OFFCURVE",
"331 -170 OFFCURVE",
"331 -145 QCURVE"
);
}
);
width = 559;
}
);
leftKerningGroup = _kern5;
rightKerningGroup = _kern6;
unicode = 00E7;
},
{
color = (166, 255, 153, 255);
glyphname = uni0162;
layers = (
{
layerId = "9D659DC9-364F-48BE-86F1-3EC0559472C9";
paths = (
{
closed = 1;
nodes = (
"327 0 LINE",
"314 -50 LINE",
"322 -49 OFFCURVE",
"330 -49 OFFCURVE",
"334 -49 QCURVE",
"371 -49 OFFCURVE",
"420 -93 OFFCURVE",
"420 -135 QCURVE",
"420 -167 OFFCURVE",
"395 -213 OFFCURVE",
"353 -242 OFFCURVE",
"299 -255 OFFCURVE",
"271 -255 QCURVE",
"250 -255 OFFCURVE",
"223 -252 QCURVE",
"224 -186 LINE",
"233 -187 OFFCURVE",
"250 -188 OFFCURVE",
"258 -188 QCURVE",
"293 -188 OFFCURVE",
"334 -168 OFFCURVE",
"334 -143 QCURVE",
"334 -132 OFFCURVE",
"324 -117 OFFCURVE",
"305 -109 OFFCURVE",
"283 -107 OFFCURVE",
"272 -107 QCURVE",
"259 -107 OFFCURVE",
"234 -109 OFFCURVE",
"225 -112 QCURVE",
"255 0 LINE",
"234 0 LINE",
"234 603 LINE",
"9 603 LINE",
"9 707 LINE",
"574 707 LINE",
"574 603 LINE",
"350 603 LINE",
"350 0 LINE"
);
}
);
width = 583;
}
);
leftKerningGroup = _kern28;
rightKerningGroup = _kern28;
unicode = 0162;
},
{
color = (166, 255, 153, 255);
glyphname = uni0163;
layers = (
{
layerId = "9D659DC9-364F-48BE-86F1-3EC0559472C9";
paths = (
{
closed = 1;
nodes = (
"220 527 LINE",
"353 527 LINE",
"353 428 LINE",
"220 428 LINE",
"220 185 LINE",
"220 140 OFFCURVE",
"258 98 OFFCURVE",
"304 98 QCURVE",
"343 98 LINE",
"343 0 LINE",
"260 0 LINE",
"244 -51 LINE",
"253 -50 OFFCURVE",
"260 -50 OFFCURVE",
"265 -50 QCURVE",
"303 -50 OFFCURVE",
"351 -92 OFFCURVE",
"351 -136 QCURVE",
"351 -168 OFFCURVE",
"326 -215 OFFCURVE",
"283 -245 OFFCURVE",
"228 -259 OFFCURVE",
"198 -259 QCURVE",
"177 -259 OFFCURVE",
"153 -256 QCURVE",
"154 -188 LINE",
"163 -190 OFFCURVE",
"179 -191 OFFCURVE",
"187 -191 QCURVE",
"223 -191 OFFCURVE",
"264 -170 OFFCURVE",
"264 -145 QCURVE",
"264 -125 OFFCURVE",
"233 -110 OFFCURVE",
"208 -110 QCURVE",
"197 -110 OFFCURVE",
"166 -112 OFFCURVE",
"155 -114 QCURVE",
"190 14 LINE",
"145 31 OFFCURVE",
"107 109 OFFCURVE",
"107 171 QCURVE",
"107 428 LINE",
"24 428 LINE",
"24 527 LINE",
"107 527 LINE",
"107 676 LINE",
"220 676 LINE"
);
}
);
width = 387;
}
);
leftKerningGroup = _kern21;
rightKerningGroup = _kern21;
unicode = 0163;
},
{
color = (166, 255, 153, 255);
glyphname = Ccedilla;
layers = (
{
layerId = "9D659DC9-364F-48BE-86F1-3EC0559472C9";
paths = (
{
closed = 1;
nodes = (
"319 612 OFFCURVE",
"238 570 OFFCURVE",
"186 499 OFFCURVE",
"162 406 OFFCURVE",
"162 356 QCURVE",
"162 304 OFFCURVE",
"187 210 OFFCURVE",
"240 139 OFFCURVE",
"322 97 OFFCURVE",
"378 97 QCURVE",
"447 97 OFFCURVE",
"540 155 OFFCURVE",
"552 208 QCURVE",
"670 208 LINE",
"662 160 OFFCURVE",
"616 83 OFFCURVE",
"546 29 OFFCURVE",
"456 -2 OFFCURVE",
"404 -5 QCURVE",
"393 -50 LINE",
"403 -49 OFFCURVE",
"410 -49 OFFCURVE",
"413 -49 QCURVE",
"451 -49 OFFCURVE",
"499 -91 OFFCURVE",
"499 -133 QCURVE",
"499 -166 OFFCURVE",
"474 -212 OFFCURVE",
"432 -242 OFFCURVE",
"378 -255 OFFCURVE",
"350 -255 QCURVE",
"329 -255 OFFCURVE",
"302 -252 QCURVE",
"303 -187 LINE",
"311 -188 OFFCURVE",
"325 -188 OFFCURVE",
"332 -188 QCURVE",
"370 -188 OFFCURVE",
"412 -168 OFFCURVE",
"413 -143 QCURVE",
"412 -122 OFFCURVE",
"377 -107 OFFCURVE",
"353 -107 QCURVE",
"337 -107 OFFCURVE",
"312 -110 OFFCURVE",
"304 -112 QCURVE",
"332 -4 LINE",
"260 3 OFFCURVE",
"152 61 OFFCURVE",
"79 156 OFFCURVE",
"43 281 OFFCURVE",
"43 354 QCURVE",
"43 431 OFFCURVE",
"86 564 OFFCURVE",
"170 661 OFFCURVE",
"295 716 OFFCURVE",
"378 716 QCURVE",
"495 716 OFFCURVE",
"647 606 OFFCURVE",
"663 499 QCURVE",
"549 499 LINE",
"536 551 OFFCURVE",
"446 612 OFFCURVE",
"376 612 QCURVE"
);
}
);
width = 713;
}
);
leftKerningGroup = _kern3;
rightKerningGroup = _kern4;
unicode = 00C7;
},
{
color = (166, 255, 153, 255);
glyphname = scedilla;
layers = (
{
layerId = "9D659DC9-364F-48BE-86F1-3EC0559472C9";
paths = (
{
closed = 1;
nodes = (
"244 441 OFFCURVE",
"211 437 OFFCURVE",
"182 424 OFFCURVE",
"163 400 OFFCURVE",
"163 381 QCURVE",
"163 355 OFFCURVE",
"202 327 OFFCURVE",
"236 321 QCURVE",
"283 312 OFFCURVE",
"374 293 OFFCURVE",
"441 261 OFFCURVE",
"480 204 OFFCURVE",
"480 153 QCURVE",
"480 112 OFFCURVE",
"449 52 OFFCURVE",
"397 14 OFFCURVE",
"329 -5 OFFCURVE",
"292 -6 QCURVE",
"280 -52 LINE",
"285 -51 OFFCURVE",
"295 -51 OFFCURVE",
"300 -51 QCURVE",
"339 -51 OFFCURVE",
"387 -93 OFFCURVE",
"387 -136 QCURVE",
"387 -169 OFFCURVE",
"362 -215 OFFCURVE",
"320 -245 OFFCURVE",
"265 -258 OFFCURVE",
"237 -258 QCURVE",
"216 -258 OFFCURVE",
"189 -255 QCURVE",
"190 -188 LINE",
"198 -189 OFFCURVE",
"214 -190 OFFCURVE",
"222 -190 QCURVE",
"258 -190 OFFCURVE",
"300 -171 OFFCURVE",
"300 -146 QCURVE",
"300 -126 OFFCURVE",
"270 -111 OFFCURVE",
"247 -111 QCURVE",
"230 -111 OFFCURVE",
"202 -113 OFFCURVE",
"191 -115 QCURVE",
"219 -3 LINE",
"186 1 OFFCURVE",
"124 22 OFFCURVE",
"74 59 OFFCURVE",
"41 116 OFFCURVE",
"38 155 QCURVE",
"154 155 LINE",
"159 135 OFFCURVE",
"185 109 OFFCURVE",
"219 93 OFFCURVE",
"255 87 OFFCURVE",
"271 87 QCURVE",
"289 87 OFFCURVE",
"320 90 OFFCURVE",
"352 103 OFFCURVE",
"370 127 OFFCURVE",
"370 145 QCURVE",
"370 174 OFFCURVE",
"326 203 OFFCURVE",
"252 219 OFFCURVE",
"171 235 OFFCURVE",
"100 265 OFFCURVE",
"53 322 OFFCURVE",
"53 372 QCURVE",
"53 419 OFFCURVE",
"90 482 OFFCURVE",
"150 520 OFFCURVE",
"224 536 OFFCURVE",
"261 536 QCURVE",
"348 536 OFFCURVE",
"459 456 OFFCURVE",
"464 380 QCURVE",
"357 380 LINE",
"352 412 OFFCURVE",
"297 439 OFFCURVE",
"259 441 QCURVE"
);
}
);
width = 520;
}
);
leftKerningGroup = _kern5;
rightKerningGroup = _kern6;
unicode = 015F;
},
{
color = (166, 255, 153, 255);
glyphname = uni21A9;
layers = (
{
layerId = "9D659DC9-364F-48BE-86F1-3EC0559472C9";
paths = (
{
closed = 1;
nodes = (
"452 -196 LINE",
"392 -273 LINE",
"54 49 LINE",
"393 370 LINE",
"452 291 LINE",
"239 97 LINE",
"776 97 LINE",
"828 97 OFFCURVE",
"911 134 OFFCURVE",
"970 200 OFFCURVE",
"1001 288 OFFCURVE",
"1001 339 QCURVE",
"1001 389 OFFCURVE",
"970 476 OFFCURVE",
"911 541 OFFCURVE",
"827 579 OFFCURVE",
"776 579 QCURVE",
"180 579 LINE",
"180 676 LINE",
"780 676 LINE",
"853 676 OFFCURVE",
"974 625 OFFCURVE",
"1060 534 OFFCURVE",
"1105 410 OFFCURVE",
"1105 338 QCURVE",
"1105 266 OFFCURVE",
"1060 142 OFFCURVE",
"974 50 OFFCURVE",
"853 0 OFFCURVE",
"780 0 QCURVE",
"239 0 LINE"
);
}
);
width = 1159;
}
);
unicode = 21A9;
},
{
color = (166, 255, 153, 255);
glyphname = uni2713;
layers = (
{
layerId = "9D659DC9-364F-48BE-86F1-3EC0559472C9";
paths = (
{
closed = 1;
nodes = (
"924 826 LINE",
"1004 748 LINE",
"383 -7 LINE",
"54 372 LINE",
"133 449 LINE",
"384 165 LINE"
);
}
);
width = 1058;
}
);
unicode = 2713;
},
{
color = (166, 255, 153, 255);
glyphname = divide;
layers = (
{
layerId = "9D659DC9-364F-48BE-86F1-3EC0559472C9";
paths = (
{
closed = 1;
nodes = (
"289 617 OFFCURVE",
"327 578 OFFCURVE",
"327 546 QCURVE",
"327 514 OFFCURVE",
"289 477 OFFCURVE",
"257 477 QCURVE",
"225 477 OFFCURVE",
"188 514 OFFCURVE",
"188 546 QCURVE",
"188 578 OFFCURVE",
"225 617 OFFCURVE",
"257 617 QCURVE"
);
},
{
closed = 1;
nodes = (
"54 408 LINE",
"462 408 LINE",
"462 313 LINE",
"54 313 LINE"
);
},
{
closed = 1;
nodes = (
"289 239 OFFCURVE",
"327 201 OFFCURVE",
"327 169 QCURVE",
"327 137 OFFCURVE",
"289 99 OFFCURVE",
"257 99 QCURVE",
"225 99 OFFCURVE",
"188 137 OFFCURVE",
"188 169 QCURVE",
"188 201 OFFCURVE",
"225 239 OFFCURVE",
"257 239 QCURVE"
);
}
);
width = 516;
}
);
unicode = 00F7;
},
{
color = (166, 255, 153, 255);
glyphname = multiply;
layers = (
{
layerId = "9D659DC9-364F-48BE-86F1-3EC0559472C9";
paths = (
{
closed = 1;
nodes = (
"263 292 LINE",
"116 143 LINE",
"50 210 LINE",
"196 357 LINE",
"50 504 LINE",
"116 571 LINE",
"263 423 LINE",
"409 570 LINE",
"476 504 LINE",
"329 357 LINE",
"476 211 LINE",
"409 143 LINE"
);
}
);
width = 526;
}
);
unicode = 00D7;
},
{
color = (166, 255, 153, 255);
glyphname = yen;
layers = (
{
layerId = "9D659DC9-364F-48BE-86F1-3EC0559472C9";
paths = (
{
closed = 1;
nodes = (
"531 707 LINE",
"663 707 LINE",
"448 337 LINE",
"556 337 LINE",
"556 250 LINE",
"407 250 LINE",
"407 173 LINE",
"556 173 LINE",
"556 86 LINE",
"407 86 LINE",
"407 0 LINE",
"291 0 LINE",
"291 86 LINE",
"141 86 LINE",
"141 173 LINE",
"291 173 LINE",
"291 250 LINE",
"141 250 LINE",
"141 337 LINE",
"249 337 LINE",
"34 707 LINE",
"167 707 LINE",
"351 373 LINE"
);
}
);
width = 697;
}
);
unicode = 00A5;
},
{
color = (166, 255, 153, 255);
glyphname = uni20BD;
layers = (
{
layerId = "9D659DC9-364F-48BE-86F1-3EC0559472C9";
paths = (
{
closed = 1;
nodes = (
"54 174 LINE",
"143 174 LINE",
"143 252 LINE",
"54 252 LINE",
"54 350 LINE",
"143 350 LINE",
"143 707 LINE",
"400 707 LINE",
"459 707 OFFCURVE",
"555 684 OFFCURVE",
"623 631 OFFCURVE",
"660 545 OFFCURVE",
"660 482 QCURVE",
"660 479 OFFCURVE",
"660 477 QCURVE",
"660 425 OFFCURVE",
"620 337 OFFCURVE",
"550 280 OFFCURVE",
"452 252 OFFCURVE",
"395 252 QCURVE",
"259 252 LINE",
"259 174 LINE",
"460 174 LINE",
"460 82 LINE",
"259 82 LINE",
"259 0 LINE",
"143 0 LINE",
"143 82 LINE",
"54 82 LINE"
);
},
{
closed = 1;
nodes = (
"390 350 LINE",
"422 350 OFFCURVE",
"477 364 OFFCURVE",
"519 394 OFFCURVE",
"544 442 OFFCURVE",
"545 477 QCURVE",
"545 514 OFFCURVE",
"525 563 OFFCURVE",
"486 592 OFFCURVE",
"430 603 OFFCURVE",
"393 603 QCURVE",
"259 603 LINE",
"259 350 LINE"
);
}
);
width = 704;
}
);
unicode = 20BD;
},
{
color = (166, 255, 153, 255);
glyphname = uni20B4;
layers = (
{
layerId = "9D659DC9-364F-48BE-86F1-3EC0559472C9";
paths = (
{
closed = 1;
nodes = (
"348 714 OFFCURVE",
"422 697 OFFCURVE",
"481 658 OFFCURVE",
"518 595 OFFCURVE",
"518 550 QCURVE",
"518 525 OFFCURVE",
"502 474 OFFCURVE",
"485 457 QCURVE",
"538 457 LINE",
"538 376 LINE",
"418 376 LINE",
"313 305 LINE",
"538 305 LINE",
"538 225 LINE",
"213 225 LINE",
"202 219 OFFCURVE",
"187 187 OFFCURVE",
"187 173 QCURVE",
"187 150 OFFCURVE",
"207 119 OFFCURVE",
"238 101 OFFCURVE",
"277 93 OFFCURVE",
"296 93 QCURVE",
"317 93 OFFCURVE",
"354 98 OFFCURVE",
"384 113 OFFCURVE",
"405 140 OFFCURVE",
"409 161 QCURVE",
"521 161 LINE",
"519 114 OFFCURVE",
"478 49 OFFCURVE",
"414 8 OFFCURVE",
"331 -10 OFFCURVE",
"286 -10 QCURVE",
"246 -10 OFFCURVE",
"170 9 OFFCURVE",
"110 50 OFFCURVE",
"73 112 OFFCURVE",
"73 155 QCURVE",
"73 170 OFFCURVE",
"83 211 OFFCURVE",
"94 225 QCURVE",
"42 225 LINE",
"42 305 LINE",
"156 305 LINE",
"261 376 LINE",
"42 376 LINE",
"42 457 LINE",
"367 457 LINE",
"374 461 OFFCURVE",
"389 478 OFFCURVE",
"401 499 OFFCURVE",
"408 522 OFFCURVE",
"408 532 QCURVE",
"408 569 OFFCURVE",
"354 610 OFFCURVE",
"307 611 QCURVE",
"288 611 OFFCURVE",
"250 605 OFFCURVE",
"217 589 OFFCURVE",
"194 561 OFFCURVE",
"191 538 QCURVE",
"76 538 LINE",
"79 586 OFFCURVE",
"120 653 OFFCURVE",
"184 695 OFFCURVE",
"267 714 OFFCURVE",
"311 714 QCURVE"
);
}
);
width = 580;
}
);
unicode = 20B4;
},
{
color = (166, 255, 153, 255);
glyphname = sterling;
layers = (
{
layerId = "9D659DC9-364F-48BE-86F1-3EC0559472C9";
paths = (
{
closed = 1;
nodes = (
"459 386 LINE",
"459 286 LINE",
"249 286 LINE",
"249 103 LINE",
"551 103 LINE",
"551 0 LINE",
"54 0 LINE",
"54 103 LINE",
"137 103 LINE",
"137 286 LINE",
"54 286 LINE",
"54 386 LINE",
"137 386 LINE",
"137 514 LINE",
"137 612 OFFCURVE",
"250 716 OFFCURVE",
"348 716 QCURVE",
"437 716 OFFCURVE",
"540 633 OFFCURVE",
"545 548 QCURVE",
"437 548 LINE",
"428 621 OFFCURVE",
"345 621 QCURVE",
"304 621 OFFCURVE",
"249 573 OFFCURVE",
"249 514 QCURVE",
"249 386 LINE"
);
}
);
width = 605;
}
);
unicode = 00A3;
},
{
color = (166, 255, 153, 255);
glyphname = Scedilla;
layers = (
{
layerId = "9D659DC9-364F-48BE-86F1-3EC0559472C9";
paths = (
{
closed = 1;
nodes = (
"296 613 OFFCURVE",
"248 605 OFFCURVE",
"208 584 OFFCURVE",
"183 547 OFFCURVE",
"183 519 QCURVE",
"183 487 OFFCURVE",
"218 446 OFFCURVE",
"268 423 OFFCURVE",
"332 408 OFFCURVE",
"358 403 QCURVE",
"405 393 OFFCURVE",
"490 368 OFFCURVE",
"554 325 OFFCURVE",
"592 257 OFFCURVE",
"592 205 QCURVE",
"592 151 OFFCURVE",
"554 72 OFFCURVE",
"489 20 OFFCURVE",
"401 -6 OFFCURVE",
"350 -7 QCURVE",
"340 -52 LINE",
"350 -51 OFFCURVE",
"358 -51 OFFCURVE",
"361 -51 QCURVE",
"398 -51 OFFCURVE",
"446 -93 OFFCURVE",
"446 -135 QCURVE",
"446 -168 OFFCURVE",
"421 -214 OFFCURVE",
"379 -243 OFFCURVE",
"325 -257 OFFCURVE",
"296 -257 QCURVE",
"274 -257 OFFCURVE",
"249 -254 QCURVE",
"250 -187 LINE",
"258 -188 OFFCURVE",
"274 -189 OFFCURVE",
"282 -189 QCURVE",
"318 -189 OFFCURVE",
"360 -170 OFFCURVE",
"360 -144 QCURVE",
"360 -124 OFFCURVE",
"327 -109 OFFCURVE",
"303 -109 QCURVE",
"286 -109 OFFCURVE",
"261 -112 OFFCURVE",
"251 -114 QCURVE",
"278 -4 LINE",
"232 1 OFFCURVE",
"151 30 OFFCURVE",
"89 80 OFFCURVE",
"49 153 OFFCURVE",
"43 202 QCURVE",
"162 202 LINE",
"170 172 OFFCURVE",
"205 132 OFFCURVE",
"252 108 OFFCURVE",
"306 98 OFFCURVE",
"334 98 QCURVE",
"362 98 OFFCURVE",
"413 107 OFFCURVE",
"452 130 OFFCURVE",
"475 167 OFFCURVE",
"475 194 QCURVE",
"475 196 OFFCURVE",
"475 197 QCURVE",
"475 232 OFFCURVE",
"431 270 OFFCURVE",
"398 280 QCURVE",
"361 291 OFFCURVE",
"283 308 OFFCURVE",
"209 328 OFFCURVE",
"143 356 OFFCURVE",
"94 401 OFFCURVE",
"65 466 OFFCURVE",
"65 513 QCURVE",
"65 570 OFFCURVE",
"109 648 OFFCURVE",
"181 695 OFFCURVE",
"271 716 OFFCURVE",
"317 716 QCURVE",
"367 716 OFFCURVE",
"457 694 OFFCURVE",
"527 645 OFFCURVE",
"571 569 OFFCURVE",
"575 515 QCURVE",
"460 515 LINE",
"457 542 OFFCURVE",
"432 578 OFFCURVE",
"395 601 OFFCURVE",
"346 612 OFFCURVE",
"319 613 QCURVE"
);
}
);
width = 636;
}
);
leftKerningGroup = _kern3;
rightKerningGroup = _kern4;
unicode = 015E;
},
{
color = (166, 255, 153, 255);
glyphname = t_alt;
layers = (
{
layerId = "9D659DC9-364F-48BE-86F1-3EC0559472C9";
paths = (
{
closed = 1;
nodes = (
"220 527 LINE",
"353 527 LINE",
"353 428 LINE",
"220 428 LINE",
"220 185 LINE",
"220 141 OFFCURVE",
"258 98 OFFCURVE",
"304 98 QCURVE",
"343 98 LINE",
"343 0 LINE",
"287 0 LINE",
"190 0 OFFCURVE",
"107 80 OFFCURVE",
"107 171 QCURVE",
"107 428 LINE",
"24 428 LINE",
"24 527 LINE",
"109 527 LINE",
"129 676 LINE",
"220 676 LINE"
);
}
);
width = 387;
}
);
leftKerningGroup = _kern21;
rightKerningGroup = _kern21;
},
{
color = (166, 255, 153, 255);
glyphname = alt_1;
layers = (
{
layerId = "9D659DC9-364F-48BE-86F1-3EC0559472C9";
paths = (
{
closed = 1;
nodes = (
"338 103 LINE",
"493 103 LINE",
"493 0 LINE",
"42 0 LINE",
"42 103 LINE",
"222 103 LINE",
"222 544 LINE",
"61 544 LINE",
"61 621 LINE",
"90 622 OFFCURVE",
"146 629 OFFCURVE",
"196 648 OFFCURVE",
"238 681 OFFCURVE",
"253 707 QCURVE",
"338 707 LINE"
);
}
);
width = 507;
}
);
},
{
color = (166, 255, 153, 255);
glyphname = uni2117;
layers = (
{
layerId = "9D659DC9-364F-48BE-86F1-3EC0559472C9";
paths = (
{
closed = 1;
nodes = (
"551 722 OFFCURVE",
"700 662 OFFCURVE",
"807 554 OFFCURVE",
"866 401 OFFCURVE",
"866 308 QCURVE",
"866 212 OFFCURVE",
"808 59 OFFCURVE",
"702 -48 OFFCURVE",
"552 -105 OFFCURVE",
"461 -105 QCURVE",
"369 -105 OFFCURVE",
"219 -48 OFFCURVE",
"112 59 OFFCURVE",
"54 212 OFFCURVE",
"54 308 QCURVE",
"54 402 OFFCURVE",
"113 555 OFFCURVE",
"221 663 OFFCURVE",
"371 722 OFFCURVE",
"461 722 QCURVE"
);
},
{
closed = 1;
nodes = (
"392 637 OFFCURVE",
"275 591 OFFCURVE",
"191 505 OFFCURVE",
"145 383 OFFCURVE",
"145 307 QCURVE",
"145 230 OFFCURVE",
"190 109 OFFCURVE",
"274 24 OFFCURVE",
"391 -21 OFFCURVE",
"463 -21 QCURVE",
"535 -21 OFFCURVE",
"651 24 OFFCURVE",
"734 109 OFFCURVE",
"778 230 OFFCURVE",
"778 307 QCURVE",
"778 383 OFFCURVE",
"732 505 OFFCURVE",
"649 591 OFFCURVE",
"533 637 OFFCURVE",
"463 637 QCURVE"
);
},
{
closed = 1;
nodes = (
"406 75 LINE",
"319 75 LINE",
"319 522 LINE",
"487 522 LINE",
"564 522 OFFCURVE",
"653 450 OFFCURVE",
"654 372 QCURVE",
"654 292 OFFCURVE",
"560 211 OFFCURVE",
"484 211 QCURVE",
"406 211 LINE"
);
},
{
closed = 1;
nodes = (
"480 290 LINE",
"518 290 OFFCURVE",
"568 328 OFFCURVE",
"568 371 QCURVE",
"568 407 OFFCURVE",
"522 442 OFFCURVE",
"484 442 QCURVE",
"406 442 LINE",
"406 290 LINE"
);
}
);
width = 920;
}
);
unicode = 2117;
},
{
color = (166, 255, 153, 255);
glyphname = colon.uc;
layers = (
{
layerId = "9D659DC9-364F-48BE-86F1-3EC0559472C9";
paths = (
{
closed = 1;
nodes = (
"168 593 OFFCURVE",
"208 552 OFFCURVE",
"208 519 QCURVE",
"208 484 OFFCURVE",
"167 446 OFFCURVE",
"135 446 QCURVE",
"102 446 OFFCURVE",
"62 484 OFFCURVE",
"62 519 QCURVE",
"62 552 OFFCURVE",
"102 593 OFFCURVE",
"135 593 QCURVE"
);
},
{
closed = 1;
nodes = (
"168 235 OFFCURVE",
"208 194 OFFCURVE",
"208 161 QCURVE",
"208 127 OFFCURVE",
"167 88 OFFCURVE",
"135 88 QCURVE",
"102 88 OFFCURVE",
"62 127 OFFCURVE",
"62 161 QCURVE",
"62 194 OFFCURVE",
"102 235 OFFCURVE",
"135 235 QCURVE"
);
}
);
width = 270;
}
);
},
{
color = (166, 255, 153, 255);
glyphname = y_alt;
layers = (
{
layerId = "9D659DC9-364F-48BE-86F1-3EC0559472C9";
paths = (
{
closed = 1;
nodes = (
"551 527 LINE",
"551 34 LINE",
"551 7 OFFCURVE",
"546 -49 OFFCURVE",
"535 -105 OFFCURVE",
"523 -130 QCURVE",
"496 -188 OFFCURVE",
"385 -254 OFFCURVE",
"296 -254 QCURVE",
"252 -254 OFFCURVE",
"174 -234 OFFCURVE",
"113 -192 OFFCURVE",
"69 -127 OFFCURVE",
"62 -81 QCURVE",
"181 -81 LINE",
"189 -117 OFFCURVE",
"256 -153 OFFCURVE",
"297 -153 QCURVE",
"348 -153 OFFCURVE",
"404 -116 OFFCURVE",
"432 -54 OFFCURVE",
"438 26 OFFCURVE",
"438 68 QCURVE",
"413 26 OFFCURVE",
"329 -8 OFFCURVE",
"276 -8 QCURVE",
"216 -8 OFFCURVE",
"136 27 OFFCURVE",
"85 91 OFFCURVE",
"64 180 OFFCURVE",
"64 234 QCURVE",
"64 527 LINE",
"178 527 LINE",
"178 255 LINE",
"178 222 OFFCURVE",
"187 163 OFFCURVE",
"214 118 OFFCURVE",
"263 91 OFFCURVE",
"303 91 QCURVE",
"342 91 OFFCURVE",
"394 122 OFFCURVE",
"425 173 OFFCURVE",
"438 239 OFFCURVE",
"438 274 QCURVE",
"438 527 LINE"
);
}
);
width = 613;
}
);
},
{
color = (166, 255, 153, 255);
glyphname = u_alt;
layers = (
{
layerId = "9D659DC9-364F-48BE-86F1-3EC0559472C9";
paths = (
{
closed = 1;
nodes = (
"538 527 LINE",
"538 0 LINE",
"439 0 LINE",
"431 72 LINE",
"405 29 OFFCURVE",
"354 8 QCURVE",
"310 -8 OFFCURVE",
"261 -8 QCURVE",
"202 -8 OFFCURVE",
"124 28 OFFCURVE",
"76 93 OFFCURVE",
"57 182 OFFCURVE",
"57 234 QCURVE",
"57 527 LINE",
"171 527 LINE",
"171 252 LINE",
"171 222 OFFCURVE",
"178 164 OFFCURVE",
"203 119 OFFCURVE",
"250 91 OFFCURVE",
"290 91 QCURVE",
"328 91 OFFCURVE",
"380 122 OFFCURVE",
"411 173 OFFCURVE",
"425 238 OFFCURVE",
"425 274 QCURVE",
"425 527 LINE"
);
}
);
width = 600;
}
);
},
{
color = (166, 255, 153, 255);
glyphname = be_alt;
layers = (
{
layerId = "9D659DC9-364F-48BE-86F1-3EC0559472C9";
paths = (
{
closed = 1;
nodes = (
"39 371 OFFCURVE",
"51 494 OFFCURVE",
"76 546 QCURVE",
"95 585 OFFCURVE",
"151 640 OFFCURVE",
"185 660 QCURVE",
"239 689 OFFCURVE",
"366 728 OFFCURVE",
"427 751 QCURVE",
"447 759 OFFCURVE",
"480 779 OFFCURVE",
"492 793 QCURVE",
"555 715 LINE",
"544 687 OFFCURVE",
"476 648 OFFCURVE",
"391 621 OFFCURVE",
"300 595 OFFCURVE",
"264 582 QCURVE",
"208 561 OFFCURVE",
"156 479 OFFCURVE",
"154 420 QCURVE",
"188 458 OFFCURVE",
"277 493 OFFCURVE",
"327 493 QCURVE",
"379 493 OFFCURVE",
"464 459 OFFCURVE",
"524 397 OFFCURVE",
"556 310 OFFCURVE",
"556 256 QCURVE",
"556 197 OFFCURVE",
"521 100 OFFCURVE",
"454 31 OFFCURVE",
"360 -7 OFFCURVE",
"299 -7 QCURVE",
"224 -6 OFFCURVE",
"125 49 OFFCURVE",
"65 140 OFFCURVE",
"40 253 OFFCURVE",
"39 312 QCURVE"
);
},
{
closed = 1;
nodes = (
"336 92 OFFCURVE",
"388 118 OFFCURVE",
"424 159 OFFCURVE",
"443 214 OFFCURVE",
"443 244 QCURVE",
"443 275 OFFCURVE",
"424 330 OFFCURVE",
"389 369 OFFCURVE",
"339 391 OFFCURVE",
"307 391 QCURVE",
"239 391 OFFCURVE",
"160 309 OFFCURVE",
"160 239 QCURVE",
"160 210 OFFCURVE",
"178 158 OFFCURVE",
"214 117 OFFCURVE",
"267 92 OFFCURVE",
"301 92 QCURVE"
);
}
);
width = 594;
}
);
},
{
color = (166, 255, 153, 255);
glyphname = g_alt;
layers = (
{
layerId = "9D659DC9-364F-48BE-86F1-3EC0559472C9";
paths = (
{
closed = 1;
nodes = (
"456 527 LINE",
"558 527 LINE",
"558 29 LINE",
"558 -4 OFFCURVE",
"549 -70 OFFCURVE",
"529 -135 OFFCURVE",
"509 -163 QCURVE",
"478 -206 OFFCURVE",
"374 -254 OFFCURVE",
"297 -254 QCURVE",
"234 -254 OFFCURVE",
"119 -223 OFFCURVE",
"70 -189 QCURVE",
"80 -166 OFFCURVE",
"103 -113 OFFCURVE",
"111 -90 QCURVE",
"143 -114 OFFCURVE",
"234 -151 OFFCURVE",
"286 -151 QCURVE",
"344 -151 OFFCURVE",
"409 -109 OFFCURVE",
"426 -71 QCURVE",
"440 -39 OFFCURVE",
"445 18 OFFCURVE",
"445 39 QCURVE",
"445 52 OFFCURVE",
"444 66 QCURVE",
"420 28 OFFCURVE",
"332 -7 OFFCURVE",
"278 -7 QCURVE",
"218 -7 OFFCURVE",
"127 34 OFFCURVE",
"67 106 OFFCURVE",
"38 203 OFFCURVE",
"38 259 QCURVE",
"38 320 OFFCURVE",
"69 421 OFFCURVE",
"131 493 OFFCURVE",
"223 535 OFFCURVE",
"284 535 QCURVE",
"327 535 OFFCURVE",
"416 502 OFFCURVE",
"447 465 QCURVE"
);
},
{
closed = 1;
nodes = (
"258 432 OFFCURVE",
"203 406 OFFCURVE",
"168 360 OFFCURVE",
"151 297 OFFCURVE",
"151 261 QCURVE",
"151 225 OFFCURVE",
"168 164 OFFCURVE",
"204 118 OFFCURVE",
"259 91 OFFCURVE",
"297 91 QCURVE",
"336 91 OFFCURVE",
"391 121 OFFCURVE",
"427 170 OFFCURVE",
"445 232 OFFCURVE",
"445 265 QCURVE",
"445 299 OFFCURVE",
"427 361 OFFCURVE",
"390 406 OFFCURVE",
"334 432 OFFCURVE",
"296 432 QCURVE"
);
}
);
width = 620;
}
);
},
{
color = (166, 255, 153, 255);
glyphname = y;
layers = (
{
layerId = "9D659DC9-364F-48BE-86F1-3EC0559472C9";
paths = (
{
closed = 1;
nodes = (
"549 527 LINE",
"549 84 LINE",
"549 39 OFFCURVE",
"546 -55 OFFCURVE",
"531 -100 QCURVE",
"508 -172 OFFCURVE",
"388 -253 OFFCURVE",
"287 -253 QCURVE",
"227 -253 OFFCURVE",
"116 -222 OFFCURVE",
"67 -185 QCURVE",
"78 -162 OFFCURVE",
"99 -113 OFFCURVE",
"110 -89 QCURVE",
"143 -115 OFFCURVE",
"228 -151 OFFCURVE",
"283 -151 QCURVE",
"336 -151 OFFCURVE",
"396 -115 OFFCURVE",
"427 -54 OFFCURVE",
"436 25 OFFCURVE",
"436 66 QCURVE",
"408 26 OFFCURVE",
"325 -8 OFFCURVE",
"273 -7 QCURVE",
"214 -8 OFFCURVE",
"130 28 OFFCURVE",
"82 92 OFFCURVE",
"62 180 OFFCURVE",
"62 232 QCURVE",
"62 527 LINE",
"175 527 LINE",
"175 254 LINE",
"175 222 OFFCURVE",
"184 163 OFFCURVE",
"211 118 OFFCURVE",
"259 91 OFFCURVE",
"298 91 QCURVE",
"338 91 OFFCURVE",
"391 123 OFFCURVE",
"422 174 OFFCURVE",
"435 240 OFFCURVE",
"435 275 QCURVE",
"435 527 LINE"
);
}
);
width = 611;
}
);
unicode = 0079;
},
{
color = (166, 255, 153, 255);
glyphname = t2.alt;
layers = (
{
layerId = "9D659DC9-364F-48BE-86F1-3EC0559472C9";
paths = (
{
closed = 1;
nodes = (
"220 527 LINE",
"378 527 LINE",
"378 428 LINE",
"220 428 LINE",
"220 196 LINE",
"220 176 OFFCURVE",
"225 140 OFFCURVE",
"240 111 OFFCURVE",
"268 93 OFFCURVE",
"292 93 QCURVE",
"334 93 OFFCURVE",
"364 118 QCURVE",
"402 33 LINE",
"376 13 OFFCURVE",
"308 -6 OFFCURVE",
"275 -6 QCURVE",
"189 -6 OFFCURVE",
"107 81 OFFCURVE",
"107 174 QCURVE",
"107 428 LINE",
"24 428 LINE",
"24 527 LINE",
"107 527 LINE",
"107 677 LINE",
"220 677 LINE"
);
}
);
width = 412;
}
);
},
{
color = (166, 255, 153, 255);
glyphname = f_alt;
layers = (
{
layerId = "9D659DC9-364F-48BE-86F1-3EC0559472C9";
paths = (
{
closed = 1;
nodes = (
"107 0 LINE",
"107 428 LINE",
"24 428 LINE",
"24 527 LINE",
"107 527 LINE",
"107 586 LINE",
"107 674 OFFCURVE",
"196 761 OFFCURVE",
"279 761 QCURVE",
"312 761 OFFCURVE",
"371 745 OFFCURVE",
"397 727 QCURVE",
"358 640 LINE",
"344 650 OFFCURVE",
"312 661 OFFCURVE",
"290 661 QCURVE",
"251 661 OFFCURVE",
"220 614 OFFCURVE",
"220 572 QCURVE",
"220 527 LINE",
"364 527 LINE",
"364 428 LINE",
"220 428 LINE",
"220 0 LINE"
);
}
);
width = 369;
}
);
},
{
color = (166, 255, 153, 255);
glyphname = hyphen.uc;
layers = (
{
layerId = "9D659DC9-364F-48BE-86F1-3EC0559472C9";
paths = (
{
closed = 1;
nodes = (
"69 398 LINE",
"388 398 LINE",
"388 300 LINE",
"69 300 LINE"
);
}
);
width = 457;
}
);
},
{
color = (166, 255, 153, 255);
glyphname = uni00AD.uc;
layers = (
{
layerId = "9D659DC9-364F-48BE-86F1-3EC0559472C9";
paths = (
{
closed = 1;
nodes = (
"69 398 LINE",
"388 398 LINE",
"388 300 LINE",
"69 300 LINE"
);
}
);
width = 457;
}
);
},
{
color = (166, 255, 153, 255);
glyphname = endash.uc;
layers = (
{
layerId = "9D659DC9-364F-48BE-86F1-3EC0559472C9";
paths = (
{
closed = 1;
nodes = (
"69 398 LINE",
"533 398 LINE",
"533 300 LINE",
"69 300 LINE"
);
}
);
width = 602;
}
);
},
{
color = (166, 255, 153, 255);
glyphname = emdash.uc;
layers = (
{
layerId = "9D659DC9-364F-48BE-86F1-3EC0559472C9";
paths = (
{
closed = 1;
nodes = (
"69 398 LINE",
"736 398 LINE",
"736 300 LINE",
"69 300 LINE"
);
}
);
width = 805;
}
);
},
{
color = (166, 255, 153, 255);
glyphname = a_alt;
layers = (
{
layerId = "9D659DC9-364F-48BE-86F1-3EC0559472C9";
paths = (
{
closed = 1;
nodes = (
"398 61 LINE",
"370 28 OFFCURVE",
"277 -6 OFFCURVE",
"230 -6 QCURVE",
"192 -6 OFFCURVE",
"126 12 OFFCURVE",
"74 49 OFFCURVE",
"45 107 OFFCURVE",
"44 145 QCURVE",
"44 204 OFFCURVE",
"109 278 OFFCURVE",
"215 311 OFFCURVE",
"339 322 OFFCURVE",
"395 324 QCURVE",
"395 379 OFFCURVE",
"339 438 OFFCURVE",
"278 438 QCURVE",
"263 438 OFFCURVE",
"231 432 OFFCURVE",
"204 419 OFFCURVE",
"182 397 OFFCURVE",
"178 382 QCURVE",
"60 382 LINE",
"66 424 OFFCURVE",
"109 482 OFFCURVE",
"170 520 OFFCURVE",
"245 536 OFFCURVE",
"283 536 QCURVE",
"338 536 OFFCURVE",
"429 505 OFFCURVE",
"458 468 QCURVE",
"487 433 OFFCURVE",
"506 338 OFFCURVE",
"506 286 QCURVE",
"506 0 LINE",
"405 0 LINE"
);
},
{
closed = 1;
nodes = (
"157 130 OFFCURVE",
"176 104 OFFCURVE",
"204 90 OFFCURVE",
"232 85 OFFCURVE",
"248 85 QCURVE",
"278 85 OFFCURVE",
"332 104 OFFCURVE",
"373 142 OFFCURVE",
"397 200 OFFCURVE",
"397 239 QCURVE",
"381 239 OFFCURVE",
"333 236 OFFCURVE",
"278 231 OFFCURVE",
"226 220 OFFCURVE",
"183 202 OFFCURVE",
"157 171 OFFCURVE",
"157 149 QCURVE"
);
}
);
width = 566;
}
);
leftKerningGroup = _kern27;
rightKerningGroup = _kern27;
},
{
color = (166, 255, 153, 255);
glyphname = D;
layers = (
{
layerId = "9D659DC9-364F-48BE-86F1-3EC0559472C9";
paths = (
{
closed = 1;
nodes = (
"82 707 LINE",
"338 707 LINE",
"422 707 OFFCURVE",
"551 658 OFFCURVE",
"638 567 OFFCURVE",
"682 435 OFFCURVE",
"682 353 QCURVE",
"682 270 OFFCURVE",
"638 140 OFFCURVE",
"553 48 OFFCURVE",
"426 0 OFFCURVE",
"342 0 QCURVE",
"82 0 LINE"
);
},
{
closed = 1;
nodes = (
"198 603 LINE",
"198 103 LINE",
"339 103 LINE",
"397 103 OFFCURVE",
"481 139 OFFCURVE",
"536 204 OFFCURVE",
"563 296 OFFCURVE",
"563 353 QCURVE",
"563 471 OFFCURVE",
"448 603 OFFCURVE",
"338 603 QCURVE"
);
}
);
width = 726;
}
);
leftKerningGroup = _kern1;
rightKerningGroup = _kern4;
unicode = 0044;
},
{
color = (166, 255, 153, 255);
glyphname = B;
layers = (
{
layerId = "9D659DC9-364F-48BE-86F1-3EC0559472C9";
paths = (
{
closed = 1;
nodes = (
"81 707 LINE",
"362 707 LINE",
"402 707 OFFCURVE",
"484 693 OFFCURVE",
"550 654 OFFCURVE",
"591 585 OFFCURVE",
"591 530 QCURVE",
"591 479 OFFCURVE",
"549 399 OFFCURVE",
"501 376 QCURVE",
"569 360 OFFCURVE",
"626 273 OFFCURVE",
"626 210 QCURVE",
"626 147 OFFCURVE",
"573 63 OFFCURVE",
"491 17 OFFCURVE",
"390 0 OFFCURVE",
"341 0 QCURVE",
"81 0 LINE"
);
},
{
closed = 1;
nodes = (
"197 603 LINE",
"197 409 LINE",
"329 409 LINE",
"354 409 OFFCURVE",
"408 416 OFFCURVE",
"451 437 OFFCURVE",
"479 477 OFFCURVE",
"479 511 QCURVE",
"479 542 OFFCURVE",
"457 579 OFFCURVE",
"421 598 OFFCURVE",
"374 603 OFFCURVE",
"349 603 QCURVE"
);
},
{
closed = 1;
nodes = (
"339 103 LINE",
"367 103 OFFCURVE",
"427 109 OFFCURVE",
"477 131 OFFCURVE",
"510 174 OFFCURVE",
"510 211 QCURVE",
"510 241 OFFCURVE",
"485 280 OFFCURVE",
"445 301 OFFCURVE",
"396 309 OFFCURVE",
"371 309 QCURVE",
"349 309 OFFCURVE",
"327 309 QCURVE",
"241 308 LINE",
"219 308 OFFCURVE",
"197 308 QCURVE",
"197 103 LINE"
);
}
);
width = 670;
}
);
leftKerningGroup = _kern1;
unicode = 0042;
},
{
color = (166, 255, 153, 255);
glyphname = uni0490;
layers = (
{
layerId = "9D659DC9-364F-48BE-86F1-3EC0559472C9";
paths = (
{
closed = 1;
nodes = (
"82 0 LINE",
"82 707 LINE",
"439 707 LINE",
"439 832 LINE",
"555 832 LINE",
"555 603 LINE",
"198 603 LINE",
"198 0 LINE"
);
}
);
width = 579;
}
);
leftKerningGroup = _kern23;
rightKerningGroup = _kern23;
unicode = 0490;
},
{
color = (166, 255, 153, 255);
glyphname = uni0491;
layers = (
{
layerId = "9D659DC9-364F-48BE-86F1-3EC0559472C9";
paths = (
{
closed = 1;
nodes = (
"62 0 LINE",
"62 527 LINE",
"332 527 LINE",
"332 668 LINE",
"443 668 LINE",
"443 428 LINE",
"176 428 LINE",
"176 0 LINE"
);
}
);
width = 461;
}
);
leftKerningGroup = _kern24;
rightKerningGroup = _kern24;
unicode = 0491;
},
{
color = (166, 255, 153, 255);
glyphname = uni0404;
layers = (
{
layerId = "9D659DC9-364F-48BE-86F1-3EC0559472C9";
paths = (
{
closed = 1;
nodes = (
"322 612 OFFCURVE",
"248 580 OFFCURVE",
"197 525 OFFCURVE",
"168 449 OFFCURVE",
"165 404 QCURVE",
"466 404 LINE",
"466 303 LINE",
"165 303 LINE",
"167 257 OFFCURVE",
"197 181 OFFCURVE",
"250 127 OFFCURVE",
"325 97 OFFCURVE",
"373 97 QCURVE",
"402 97 OFFCURVE",
"459 109 OFFCURVE",
"508 135 OFFCURVE",
"544 177 OFFCURVE",
"552 208 QCURVE",
"669 208 LINE",
"660 152 OFFCURVE",
"603 71 OFFCURVE",
"521 18 OFFCURVE",
"421 -7 OFFCURVE",
"369 -7 QCURVE",
"287 -7 OFFCURVE",
"165 46 OFFCURVE",
"84 142 OFFCURVE",
"43 273 OFFCURVE",
"43 351 QCURVE",
"43 430 OFFCURVE",
"84 564 OFFCURVE",
"167 662 OFFCURVE",
"290 716 OFFCURVE",
"373 716 QCURVE",
"426 716 OFFCURVE",
"523 690 OFFCURVE",
"599 636 OFFCURVE",
"652 554 OFFCURVE",
"661 499 QCURVE",
"548 499 LINE",
"540 529 OFFCURVE",
"504 572 OFFCURVE",
"456 599 OFFCURVE",
"399 612 OFFCURVE",
"370 612 QCURVE"
);
}
);
width = 712;
}
);
unicode = 0404;
},
{
color = (166, 255, 153, 255);
glyphname = uni0454;
layers = (
{
layerId = "9D659DC9-364F-48BE-86F1-3EC0559472C9";
paths = (
{
closed = 1;
nodes = (
"363 309 LINE",
"363 216 LINE",
"150 216 LINE",
"152 155 OFFCURVE",
"228 91 OFFCURVE",
"287 91 QCURVE",
"304 91 OFFCURVE",
"339 97 OFFCURVE",
"371 111 OFFCURVE",
"396 134 OFFCURVE",
"403 151 QCURVE",
"519 151 LINE",
"511 110 OFFCURVE",
"464 50 OFFCURVE",
"401 11 OFFCURVE",
"326 -7 OFFCURVE",
"287 -7 QCURVE",
"223 -7 OFFCURVE",
"130 32 OFFCURVE",
"68 103 OFFCURVE",
"38 203 OFFCURVE",
"38 263 QCURVE",
"38 322 OFFCURVE",
"69 422 OFFCURVE",
"131 494 OFFCURVE",
"224 536 OFFCURVE",
"287 536 QCURVE",
"330 536 OFFCURVE",
"404 517 OFFCURVE",
"463 477 OFFCURVE",
"507 415 OFFCURVE",
"517 372 QCURVE",
"400 372 LINE",
"396 388 OFFCURVE",
"370 414 OFFCURVE",
"338 428 OFFCURVE",
"300 434 OFFCURVE",
"284 434 QCURVE",
"224 434 OFFCURVE",
"154 369 OFFCURVE",
"149 309 QCURVE"
);
}
);
width = 553;
}
);
unicode = 0454;
},
{
color = (166, 255, 153, 255);
glyphname = uni0406;
layers = (
{
layerId = "9D659DC9-364F-48BE-86F1-3EC0559472C9";
paths = (
{
closed = 1;
nodes = (
"198 0 LINE",
"82 0 LINE",
"82 707 LINE",
"198 707 LINE"
);
}
);
width = 280;
}
);
unicode = 0406;
},
{
color = (166, 255, 153, 255);
glyphname = uni0456;
layers = (
{
layerId = "9D659DC9-364F-48BE-86F1-3EC0559472C9";
paths = (
{
closed = 1;
nodes = (
"158 746 OFFCURVE",
"199 708 OFFCURVE",
"199 675 QCURVE",
"199 643 OFFCURVE",
"158 605 OFFCURVE",
"127 605 QCURVE",
"94 605 OFFCURVE",
"54 643 OFFCURVE",
"54 675 QCURVE",
"54 708 OFFCURVE",
"94 746 OFFCURVE",
"127 746 QCURVE"
);
},
{
closed = 1;
nodes = (
"69 0 LINE",
"69 527 LINE",
"183 527 LINE",
"183 0 LINE"
);
}
);
width = 253;
}
);
unicode = 0456;
},
{
color = (166, 255, 153, 255);
glyphname = uni0407;
layers = (
{
layerId = "9D659DC9-364F-48BE-86F1-3EC0559472C9";
paths = (
{
closed = 1;
nodes = (
"198 0 LINE",
"82 0 LINE",
"82 707 LINE",
"198 707 LINE"
);
},
{
closed = 1;
nodes = (
"247 883 OFFCURVE",
"283 847 OFFCURVE",
"283 817 QCURVE",
"283 786 OFFCURVE",
"247 751 OFFCURVE",
"219 751 QCURVE",
"190 751 OFFCURVE",
"155 786 OFFCURVE",
"155 817 QCURVE",
"155 847 OFFCURVE",
"190 883 OFFCURVE",
"219 883 QCURVE"
);
},
{
closed = 1;
nodes = (
"90 883 OFFCURVE",
"126 847 OFFCURVE",
"126 817 QCURVE",
"126 786 OFFCURVE",
"90 751 OFFCURVE",
"61 751 QCURVE",
"32 751 OFFCURVE",
"-3 786 OFFCURVE",
"-3 817 QCURVE",
"-3 847 OFFCURVE",
"32 883 OFFCURVE",
"61 883 QCURVE"
);
}
);
width = 280;
}
);
unicode = 0407;
},
{
color = (166, 255, 153, 255);
glyphname = uni0457;
layers = (
{
layerId = "9D659DC9-364F-48BE-86F1-3EC0559472C9";
paths = (
{
closed = 1;
nodes = (
"70 0 LINE",
"70 527 LINE",
"184 527 LINE",
"184 0 LINE"
);
},
{
closed = 1;
nodes = (
"234 733 OFFCURVE",
"270 696 OFFCURVE",
"270 666 QCURVE",
"270 636 OFFCURVE",
"234 600 OFFCURVE",
"206 600 QCURVE",
"177 600 OFFCURVE",
"142 635 OFFCURVE",
"142 666 QCURVE",
"142 697 OFFCURVE",
"177 733 OFFCURVE",
"206 733 QCURVE"
);
},
{
closed = 1;
nodes = (
"76 733 OFFCURVE",
"113 696 OFFCURVE",
"113 666 QCURVE",
"113 636 OFFCURVE",
"76 600 OFFCURVE",
"47 600 QCURVE",
"18 600 OFFCURVE",
"-17 635 OFFCURVE",
"-17 666 QCURVE",
"-17 697 OFFCURVE",
"18 733 OFFCURVE",
"47 733 QCURVE"
);
}
);
width = 253;
}
);
unicode = 0457;
},
{
color = (166, 255, 153, 255);
glyphname = t0163.alt;
layers = (
{
layerId = "9D659DC9-364F-48BE-86F1-3EC0559472C9";
paths = (
{
closed = 1;
nodes = (
"220 527 LINE",
"378 527 LINE",
"378 428 LINE",
"220 428 LINE",
"220 196 LINE",
"220 176 OFFCURVE",
"225 140 OFFCURVE",
"240 111 OFFCURVE",
"268 93 OFFCURVE",
"292 93 QCURVE",
"334 93 OFFCURVE",
"364 118 QCURVE",
"402 33 LINE",
"376 13 OFFCURVE",
"308 -6 OFFCURVE",
"275 -6 QCURVE",
"265 -6 OFFCURVE",
"256 -5 QCURVE",
"242 -51 LINE",
"247 -50 OFFCURVE",
"252 -50 QCURVE",
"263 -50 LINE",
"300 -50 OFFCURVE",
"349 -92 OFFCURVE",
"349 -136 QCURVE",
"349 -168 OFFCURVE",
"324 -215 OFFCURVE",
"281 -245 OFFCURVE",
"226 -259 OFFCURVE",
"196 -259 QCURVE",
"175 -259 OFFCURVE",
"151 -256 QCURVE",
"151 -239 LINE",
"152 -206 LINE",
"152 -189 LINE",
"161 -190 OFFCURVE",
"177 -191 OFFCURVE",
"185 -191 QCURVE",
"221 -191 OFFCURVE",
"262 -170 OFFCURVE",
"262 -145 QCURVE",
"262 -124 OFFCURVE",
"230 -110 OFFCURVE",
"209 -110 QCURVE",
"193 -110 OFFCURVE",
"164 -112 OFFCURVE",
"153 -114 QCURVE",
"187 10 LINE",
"164 20 OFFCURVE",
"148 37 QCURVE",
"107 81 OFFCURVE",
"107 174 QCURVE",
"107 428 LINE",
"24 428 LINE",
"24 527 LINE",
"107 527 LINE",
"107 677 LINE",
"220 677 LINE"
);
}
);
width = 412;
}
);
},
{
color = (166, 255, 153, 255);
glyphname = t021b.alt;
layers = (
{
layerId = "9D659DC9-364F-48BE-86F1-3EC0559472C9";
paths = (
{
closed = 1;
nodes = (
"199 -188 OFFCURVE",
"166 -158 OFFCURVE",
"166 -133 QCURVE",
"166 -107 OFFCURVE",
"202 -74 OFFCURVE",
"228 -74 QCURVE",
"263 -74 OFFCURVE",
"297 -122 OFFCURVE",
"297 -153 QCURVE",
"297 -176 OFFCURVE",
"280 -223 OFFCURVE",
"251 -265 OFFCURVE",
"211 -297 OFFCURVE",
"188 -306 QCURVE",
"164 -271 LINE",
"184 -257 OFFCURVE",
"219 -215 OFFCURVE",
"225 -190 QCURVE"
);
},
{
closed = 1;
nodes = (
"220 527 LINE",
"378 527 LINE",
"378 428 LINE",
"220 428 LINE",
"220 196 LINE",
"220 176 OFFCURVE",
"225 140 OFFCURVE",
"240 111 OFFCURVE",
"268 93 OFFCURVE",
"292 93 QCURVE",
"334 93 OFFCURVE",
"364 118 QCURVE",
"402 33 LINE",
"376 13 OFFCURVE",
"308 -6 OFFCURVE",
"275 -6 QCURVE",
"189 -6 OFFCURVE",
"107 81 OFFCURVE",
"107 174 QCURVE",
"107 428 LINE",
"24 428 LINE",
"24 527 LINE",
"107 527 LINE",
"107 677 LINE",
"220 677 LINE"
);
}
);
width = 412;
}
);
},
{
color = (166, 255, 153, 255);
glyphname = map;
layers = (
{
layerId = "9D659DC9-364F-48BE-86F1-3EC0559472C9";
paths = (
{
closed = 1;
nodes = (
"59 684 LINE",
"61 686 OFFCURVE",
"63 686 QCURVE",
"102 686 LINE",
"105 686 OFFCURVE",
"106 687 QCURVE",
"125 706 LINE",
"127 708 OFFCURVE",
"129 708 QCURVE",
"225 708 LINE",
"227 708 OFFCURVE",
"229 706 QCURVE",
"275 660 LINE",
"276 659 OFFCURVE",
"278 659 QCURVE",
"311 659 LINE",
"316 659 OFFCURVE",
"316 654 QCURVE",
"316 629 LINE",
"316 624 OFFCURVE",
"322 624 QCURVE",
"328 624 LINE",
"331 624 OFFCURVE",
"332 625 QCURVE",
"348 642 LINE",
"349 643 OFFCURVE",
"352 643 QCURVE",
"384 643 LINE",
"389 643 OFFCURVE",
"389 638 QCURVE",
"389 612 LINE",
"389 610 OFFCURVE",
"391 608 QCURVE",
"411 588 LINE",
"414 584 OFFCURVE",
"418 588 QCURVE",
"428 598 LINE",
"429 599 OFFCURVE",
"432 599 QCURVE",
"438 599 LINE",
"444 599 OFFCURVE",
"444 594 QCURVE",
"444 515 LINE",
"444 513 OFFCURVE",
"442 511 QCURVE",
"436 505 LINE",
"432 501 OFFCURVE",
"436 497 QCURVE",
"495 438 LINE",
"496 437 OFFCURVE",
"498 437 QCURVE",
"510 437 LINE",
"515 437 OFFCURVE",
"515 432 QCURVE",
"515 398 LINE",
"515 361 LINE",
"515 359 OFFCURVE",
"517 357 QCURVE",
"539 335 LINE",
"541 333 OFFCURVE",
"543 333 QCURVE",
"555 333 LINE",
"558 333 OFFCURVE",
"559 332 QCURVE",
"575 315 LINE",
"577 313 OFFCURVE",
"577 311 QCURVE",
"577 274 LINE",
"577 272 OFFCURVE",
"575 270 QCURVE",
"569 265 LINE",
"565 261 OFFCURVE",
"569 257 QCURVE",
"590 237 LINE",
"591 236 OFFCURVE",
"591 233 QCURVE",
"591 228 OFFCURVE",
"586 228 QCURVE",
"567 228 LINE",
"553 228 LINE",
"551 228 OFFCURVE",
"550 229 QCURVE",
"541 238 LINE",
"537 241 OFFCURVE",
"534 238 QCURVE",
"523 227 LINE",
"518 224 OFFCURVE",
"515 227 QCURVE",
"500 242 LINE",
"497 245 OFFCURVE",
"492 242 QCURVE",
"465 215 LINE",
"463 213 OFFCURVE",
"462 213 QCURVE",
"453 213 LINE",
"448 213 OFFCURVE",
"448 219 QCURVE",
"448 253 LINE",
"448 257 OFFCURVE",
"441 259 OFFCURVE",
"439 257 QCURVE",
"417 235 LINE",
"416 234 OFFCURVE",
"416 232 QCURVE",
"416 205 LINE",
"416 202 OFFCURVE",
"417 201 QCURVE",
"427 191 LINE",
"430 187 OFFCURVE",
"427 184 QCURVE",
"407 164 LINE",
"406 163 OFFCURVE",
"406 160 QCURVE",
"406 135 LINE",
"406 133 OFFCURVE",
"404 131 QCURVE",
"382 109 LINE",
"381 108 OFFCURVE",
"381 106 QCURVE",
"381 94 LINE",
"381 92 OFFCURVE",
"379 90 QCURVE",
"367 78 LINE",
"365 76 OFFCURVE",
"364 76 QCURVE",
"355 76 LINE",
"353 76 OFFCURVE",
"352 75 QCURVE",
"342 65 LINE",
"340 63 OFFCURVE",
"340 61 QCURVE",
"340 23 LINE",
"340 17 OFFCURVE",
"335 17 QCURVE",
"315 17 LINE",
"312 17 OFFCURVE",
"311 16 QCURVE",
"297 1 LINE",
"296 1 OFFCURVE",
"295 0 OFFCURVE",
"293 0 QCURVE",
"290 0 LINE",
"285 0 OFFCURVE",
"285 5 QCURVE",
"285 28 LINE",
"285 30 OFFCURVE",
"283 32 QCURVE",
"274 41 LINE",
"270 44 OFFCURVE",
"274 48 QCURVE",
"286 60 LINE",
"292 64 OFFCURVE",
"286 68 QCURVE",
"274 80 LINE",
"273 81 OFFCURVE",
"273 84 QCURVE",
"273 169 LINE",
"273 172 OFFCURVE",
"274 173 QCURVE",
"288 186 LINE",
"289 187 OFFCURVE",
"289 190 QCURVE",
"289 309 LINE",
"289 312 OFFCURVE",
"288 313 QCURVE",
"275 325 LINE",
"274 326 OFFCURVE",
"274 329 QCURVE",
"274 352 LINE",
"274 355 OFFCURVE",
"272 355 QCURVE",
"226 402 LINE",
"224 404 OFFCURVE",
"224 406 QCURVE",
"224 427 LINE",
"224 430 OFFCURVE",
"223 431 QCURVE",
"177 477 LINE",
"175 479 OFFCURVE",
"175 480 QCURVE",
"175 506 LINE",
"175 509 OFFCURVE",
"174 510 QCURVE",
"143 540 LINE",
"142 541 OFFCURVE",
"142 544 QCURVE",
"142 573 LINE",
"142 575 OFFCURVE",
"140 577 QCURVE",
"119 598 LINE",
"117 600 OFFCURVE",
"117 602 QCURVE",
"117 628 LINE",
"117 631 OFFCURVE",
"116 632 QCURVE",
"93 655 LINE",
"91 657 OFFCURVE",
"89 657 QCURVE",
"47 657 LINE",
"42 657 OFFCURVE",
"42 662 QCURVE",
"42 664 LINE",
"42 667 OFFCURVE",
"43 668 QCURVE"
);
}
);
width = 673;
}
);
},
